<?xml version="1.0" encoding="UTF-8"?>
<svg xmlns="http://www.w3.org/2000/svg" viewBox="0 0 980.00 430.00" role="img">
  <title>A Gaussian density cut into pieces and shuffled</title>
  <style>
    text { font-family: 'Crimson Pro', 'Times New Roman', serif; fill: #5b6673; }
    .label { font-size: 14px; font-weight: 600; }
    .small { font-size: 12px; }
    .axis-label { fill: #5b6673; }
    .accent-text { fill: #8b3a3a; }
    .axis { stroke: #1f2a37; stroke-opacity: 0.35; stroke-width: 1.2; }
    .grid { stroke: #1f2a37; stroke-opacity: 0.12; stroke-width: 1; }
    .truth { stroke: #5b6673; stroke-opacity: 0.55; stroke-width: 1.7; fill: none; stroke-dasharray: 5 5; }
    .density-fill { fill: #8b3a3a; fill-opacity: 0.32; stroke: none; }
    .coverage { stroke: #8b3a3a; stroke-opacity: 0.88; stroke-width: 2.1; fill: none; }
    .stem { stroke: #8b3a3a; stroke-opacity: 0.58; stroke-width: 1.4; }
    .dot { fill: #8b3a3a; fill-opacity: 0.78; stroke: #8b3a3a; stroke-opacity: 0.95; stroke-width: 1; }
  </style>
  <rect x="0" y="0" width="980.00" height="430.00" fill="#ffffff" />
  <text class="label" x="64.00" y="34.00" fill="#1f2a37">Contiguous Gaussian</text>
  <text class="small" x="64.00" y="52.00">same likelihood under a measure-preserving shuffle</text>
  <rect x="64.00" y="64.00" width="399.00" height="252.00" fill="none" stroke="#000000" stroke-opacity="0.05" />
  <line class="axis" x1="64.00" y1="316.00" x2="463.00" y2="316.00" />
  <line class="axis" x1="64.00" y1="64.00" x2="64.00" y2="316.00" />
  <line class="grid" x1="64.00" y1="256.00" x2="463.00" y2="256.00" />
  <text class="small" x="30.00" y="260.00">1</text>
  <line class="grid" x1="64.00" y1="196.00" x2="463.00" y2="196.00" />
  <text class="small" x="30.00" y="200.00">2</text>
  <line class="grid" x1="64.00" y1="136.00" x2="463.00" y2="136.00" />
  <text class="small" x="30.00" y="140.00">3</text>
  <line class="grid" x1="64.00" y1="76.00" x2="463.00" y2="76.00" />
  <text class="small" x="30.00" y="80.00">4</text>
  <text class="small" x="46.00" y="320.00">0</text>
  <line class="axis" x1="64.00" y1="316.00" x2="64.00" y2="322.00" />
  <text class="small" x="57.00" y="340.00">0</text>
  <line class="axis" x1="263.50" y1="316.00" x2="263.50" y2="322.00" />
  <text class="small" x="256.50" y="340.00">0.5</text>
  <line class="axis" x1="463.00" y1="316.00" x2="463.00" y2="322.00" />
  <text class="small" x="456.00" y="340.00">1</text>
  <text class="small axis-label" x="14.00" y="190.00" text-anchor="middle" transform="rotate(-90 14.00 190.00)">density</text>
  <text class="small" x="259.50" y="360.00">x</text>
  <path class="density-fill" d="M 64.00,316.00 L 64.00,315.97 L 64.95,315.96 L 65.90,315.96 L 66.85,315.96 L 67.80,315.95 L 68.75,315.95 L 69.70,315.94 L 70.65,315.94 L 71.60,315.94 L 72.55,315.93 L 73.50,315.92 L 74.45,315.92 L 75.40,315.91 L 76.35,315.90 L 77.30,315.90 L 78.25,315.89 L 79.20,315.88 L 80.15,315.87 L 81.10,315.86 L 82.05,315.85 L 83.00,315.84 L 83.95,315.82 L 84.90,315.81 L 85.85,315.80 L 86.80,315.78 L 87.75,315.76 L 88.70,315.75 L 89.65,315.73 L 90.60,315.71 L 91.55,315.68 L 92.50,315.66 L 93.45,315.64 L 94.40,315.61 L 95.35,315.58 L 96.30,315.55 L 97.25,315.52 L 98.20,315.49 L 99.15,315.45 L 100.10,315.41 L 101.05,315.37 L 102.00,315.32 L 102.95,315.28 L 103.90,315.23 L 104.85,315.18 L 105.80,315.12 L 106.75,315.06 L 107.70,315.00 L 108.65,314.93 L 109.60,314.86 L 110.55,314.79 L 111.50,314.71 L 112.45,314.62 L 113.40,314.54 L 114.35,314.44 L 115.30,314.34 L 116.25,314.24 L 117.20,314.13 L 118.15,314.01 L 119.10,313.89 L 120.05,313.76 L 121.00,313.62 L 121.95,313.48 L 122.90,313.32 L 123.85,313.16 L 124.80,313.00 L 125.75,312.82 L 126.70,312.63 L 127.65,312.44 L 128.60,312.23 L 129.55,312.02 L 130.50,311.79 L 131.45,311.55 L 132.40,311.30 L 133.35,311.04 L 134.30,310.77 L 135.25,310.48 L 136.20,310.18 L 137.15,309.87 L 138.10,309.54 L 139.05,309.19 L 140.00,308.84 L 140.95,308.46 L 141.90,308.07 L 142.85,307.66 L 143.80,307.24 L 144.75,306.79 L 145.70,306.33 L 146.65,305.85 L 147.60,305.35 L 148.55,304.82 L 149.50,304.28 L 150.45,303.72 L 151.40,303.13 L 152.35,302.52 L 153.30,301.89 L 154.25,301.23 L 155.20,300.55 L 156.15,299.84 L 157.10,299.11 L 158.05,298.35 L 159.00,297.57 L 159.95,296.76 L 160.90,295.92 L 161.85,295.05 L 162.80,294.15 L 163.75,293.23 L 164.70,292.27 L 165.65,291.28 L 166.60,290.27 L 167.55,289.22 L 168.50,288.14 L 169.45,287.02 L 170.40,285.88 L 171.35,284.70 L 172.30,283.49 L 173.25,282.24 L 174.20,280.96 L 175.15,279.65 L 176.10,278.30 L 177.05,276.92 L 178.00,275.50 L 178.95,274.05 L 179.90,272.56 L 180.85,271.04 L 181.80,269.48 L 182.75,267.89 L 183.70,266.26 L 184.65,264.60 L 185.60,262.90 L 186.55,261.17 L 187.50,259.40 L 188.45,257.60 L 189.40,255.77 L 190.35,253.91 L 191.30,252.01 L 192.25,250.08 L 193.20,248.11 L 194.15,246.12 L 195.10,244.10 L 196.05,242.05 L 197.00,239.96 L 197.95,237.86 L 198.90,235.72 L 199.85,233.56 L 200.80,231.37 L 201.75,229.16 L 202.70,226.93 L 203.65,224.67 L 204.60,222.40 L 205.55,220.10 L 206.50,217.79 L 207.45,215.46 L 208.40,213.12 L 209.35,210.77 L 210.30,208.40 L 211.25,206.02 L 212.20,203.64 L 213.15,201.25 L 214.10,198.85 L 215.05,196.45 L 216.00,194.05 L 216.95,191.65 L 217.90,189.25 L 218.85,186.86 L 219.80,184.48 L 220.75,182.10 L 221.70,179.73 L 222.65,177.38 L 223.60,175.04 L 224.55,172.72 L 225.50,170.42 L 226.45,168.13 L 227.40,165.88 L 228.35,163.64 L 229.30,161.44 L 230.25,159.26 L 231.20,157.12 L 232.15,155.01 L 233.10,152.94 L 234.05,150.90 L 235.00,148.91 L 235.95,146.96 L 236.90,145.05 L 237.85,143.19 L 238.80,141.38 L 239.75,139.61 L 240.70,137.90 L 241.65,136.25 L 242.60,134.65 L 243.55,133.11 L 244.50,131.63 L 245.45,130.21 L 246.40,128.85 L 247.35,127.55 L 248.30,126.33 L 249.25,125.16 L 250.20,124.07 L 251.15,123.05 L 252.10,122.10 L 253.05,121.22 L 254.00,120.41 L 254.95,119.68 L 255.90,119.02 L 256.85,118.44 L 257.80,117.93 L 258.75,117.50 L 259.70,117.15 L 260.65,116.88 L 261.60,116.68 L 262.55,116.56 L 263.50,116.52 L 264.45,116.56 L 265.40,116.68 L 266.35,116.88 L 267.30,117.15 L 268.25,117.50 L 269.20,117.93 L 270.15,118.44 L 271.10,119.02 L 272.05,119.68 L 273.00,120.41 L 273.95,121.22 L 274.90,122.10 L 275.85,123.05 L 276.80,124.07 L 277.75,125.16 L 278.70,126.33 L 279.65,127.55 L 280.60,128.85 L 281.55,130.21 L 282.50,131.63 L 283.45,133.11 L 284.40,134.65 L 285.35,136.25 L 286.30,137.90 L 287.25,139.61 L 288.20,141.38 L 289.15,143.19 L 290.10,145.05 L 291.05,146.96 L 292.00,148.91 L 292.95,150.90 L 293.90,152.94 L 294.85,155.01 L 295.80,157.12 L 296.75,159.26 L 297.70,161.44 L 298.65,163.64 L 299.60,165.88 L 300.55,168.13 L 301.50,170.42 L 302.45,172.72 L 303.40,175.04 L 304.35,177.38 L 305.30,179.73 L 306.25,182.10 L 307.20,184.48 L 308.15,186.86 L 309.10,189.25 L 310.05,191.65 L 311.00,194.05 L 311.95,196.45 L 312.90,198.85 L 313.85,201.25 L 314.80,203.64 L 315.75,206.02 L 316.70,208.40 L 317.65,210.77 L 318.60,213.12 L 319.55,215.46 L 320.50,217.79 L 321.45,220.10 L 322.40,222.40 L 323.35,224.67 L 324.30,226.93 L 325.25,229.16 L 326.20,231.37 L 327.15,233.56 L 328.10,235.72 L 329.05,237.86 L 330.00,239.96 L 330.95,242.05 L 331.90,244.10 L 332.85,246.12 L 333.80,248.11 L 334.75,250.08 L 335.70,252.01 L 336.65,253.91 L 337.60,255.77 L 338.55,257.60 L 339.50,259.40 L 340.45,261.17 L 341.40,262.90 L 342.35,264.60 L 343.30,266.26 L 344.25,267.89 L 345.20,269.48 L 346.15,271.04 L 347.10,272.56 L 348.05,274.05 L 349.00,275.50 L 349.95,276.92 L 350.90,278.30 L 351.85,279.65 L 352.80,280.96 L 353.75,282.24 L 354.70,283.49 L 355.65,284.70 L 356.60,285.88 L 357.55,287.02 L 358.50,288.14 L 359.45,289.22 L 360.40,290.27 L 361.35,291.28 L 362.30,292.27 L 363.25,293.23 L 364.20,294.15 L 365.15,295.05 L 366.10,295.92 L 367.05,296.76 L 368.00,297.57 L 368.95,298.35 L 369.90,299.11 L 370.85,299.84 L 371.80,300.55 L 372.75,301.23 L 373.70,301.89 L 374.65,302.52 L 375.60,303.13 L 376.55,303.72 L 377.50,304.28 L 378.45,304.82 L 379.40,305.35 L 380.35,305.85 L 381.30,306.33 L 382.25,306.79 L 383.20,307.24 L 384.15,307.66 L 385.10,308.07 L 386.05,308.46 L 387.00,308.84 L 387.95,309.19 L 388.90,309.54 L 389.85,309.87 L 390.80,310.18 L 391.75,310.48 L 392.70,310.77 L 393.65,311.04 L 394.60,311.30 L 395.55,311.55 L 396.50,311.79 L 397.45,312.02 L 398.40,312.23 L 399.35,312.44 L 400.30,312.63 L 401.25,312.82 L 402.20,313.00 L 403.15,313.16 L 404.10,313.32 L 405.05,313.48 L 406.00,313.62 L 406.95,313.76 L 407.90,313.89 L 408.85,314.01 L 409.80,314.13 L 410.75,314.24 L 411.70,314.34 L 412.65,314.44 L 413.60,314.54 L 414.55,314.62 L 415.50,314.71 L 416.45,314.79 L 417.40,314.86 L 418.35,314.93 L 419.30,315.00 L 420.25,315.06 L 421.20,315.12 L 422.15,315.18 L 423.10,315.23 L 424.05,315.28 L 425.00,315.32 L 425.95,315.37 L 426.90,315.41 L 427.85,315.45 L 428.80,315.49 L 429.75,315.52 L 430.70,315.55 L 431.65,315.58 L 432.60,315.61 L 433.55,315.64 L 434.50,315.66 L 435.45,315.68 L 436.40,315.71 L 437.35,315.73 L 438.30,315.75 L 439.25,315.76 L 440.20,315.78 L 441.15,315.80 L 442.10,315.81 L 443.05,315.82 L 444.00,315.84 L 444.95,315.85 L 445.90,315.86 L 446.85,315.87 L 447.80,315.88 L 448.75,315.89 L 449.70,315.90 L 450.65,315.90 L 451.60,315.91 L 452.55,315.92 L 453.50,315.92 L 454.45,315.93 L 455.40,315.94 L 456.35,315.94 L 457.30,315.94 L 458.25,315.95 L 459.20,315.95 L 460.15,315.96 L 461.10,315.96 L 462.05,315.96 L 463.00,315.97 L 463.00,316.00 Z" />
  <path class="truth" d="M 64.00,256.00 L 64.95,256.00 L 65.90,256.00 L 66.85,256.00 L 67.80,256.00 L 68.75,256.00 L 69.70,256.00 L 70.65,256.00 L 71.60,256.00 L 72.55,256.00 L 73.50,256.00 L 74.45,256.00 L 75.40,256.00 L 76.35,256.00 L 77.30,256.00 L 78.25,256.00 L 79.20,256.00 L 80.15,256.00 L 81.10,256.00 L 82.05,256.00 L 83.00,256.00 L 83.95,256.00 L 84.90,256.00 L 85.85,256.00 L 86.80,256.00 L 87.75,256.00 L 88.70,256.00 L 89.65,256.00 L 90.60,256.00 L 91.55,256.00 L 92.50,256.00 L 93.45,256.00 L 94.40,256.00 L 95.35,256.00 L 96.30,256.00 L 97.25,256.00 L 98.20,256.00 L 99.15,256.00 L 100.10,256.00 L 101.05,256.00 L 102.00,256.00 L 102.95,256.00 L 103.90,256.00 L 104.85,256.00 L 105.80,256.00 L 106.75,256.00 L 107.70,256.00 L 108.65,256.00 L 109.60,256.00 L 110.55,256.00 L 111.50,256.00 L 112.45,256.00 L 113.40,256.00 L 114.35,256.00 L 115.30,256.00 L 116.25,256.00 L 117.20,256.00 L 118.15,256.00 L 119.10,256.00 L 120.05,256.00 L 121.00,256.00 L 121.95,256.00 L 122.90,256.00 L 123.85,256.00 L 124.80,256.00 L 125.75,256.00 L 126.70,256.00 L 127.65,256.00 L 128.60,256.00 L 129.55,256.00 L 130.50,256.00 L 131.45,256.00 L 132.40,256.00 L 133.35,256.00 L 134.30,256.00 L 135.25,256.00 L 136.20,256.00 L 137.15,256.00 L 138.10,256.00 L 139.05,256.00 L 140.00,256.00 L 140.95,256.00 L 141.90,256.00 L 142.85,256.00 L 143.80,256.00 L 144.75,256.00 L 145.70,256.00 L 146.65,256.00 L 147.60,256.00 L 148.55,256.00 L 149.50,256.00 L 150.45,256.00 L 151.40,256.00 L 152.35,256.00 L 153.30,256.00 L 154.25,256.00 L 155.20,256.00 L 156.15,256.00 L 157.10,256.00 L 158.05,256.00 L 159.00,256.00 L 159.95,256.00 L 160.90,256.00 L 161.85,256.00 L 162.80,256.00 L 163.75,256.00 L 164.70,256.00 L 165.65,256.00 L 166.60,256.00 L 167.55,256.00 L 168.50,256.00 L 169.45,256.00 L 170.40,256.00 L 171.35,256.00 L 172.30,256.00 L 173.25,256.00 L 174.20,256.00 L 175.15,256.00 L 176.10,256.00 L 177.05,256.00 L 178.00,256.00 L 178.95,256.00 L 179.90,256.00 L 180.85,256.00 L 181.80,256.00 L 182.75,256.00 L 183.70,256.00 L 184.65,256.00 L 185.60,256.00 L 186.55,256.00 L 187.50,256.00 L 188.45,256.00 L 189.40,256.00 L 190.35,256.00 L 191.30,256.00 L 192.25,256.00 L 193.20,256.00 L 194.15,256.00 L 195.10,256.00 L 196.05,256.00 L 197.00,256.00 L 197.95,256.00 L 198.90,256.00 L 199.85,256.00 L 200.80,256.00 L 201.75,256.00 L 202.70,256.00 L 203.65,256.00 L 204.60,256.00 L 205.55,256.00 L 206.50,256.00 L 207.45,256.00 L 208.40,256.00 L 209.35,256.00 L 210.30,256.00 L 211.25,256.00 L 212.20,256.00 L 213.15,256.00 L 214.10,256.00 L 215.05,256.00 L 216.00,256.00 L 216.95,256.00 L 217.90,256.00 L 218.85,256.00 L 219.80,256.00 L 220.75,256.00 L 221.70,256.00 L 222.65,256.00 L 223.60,256.00 L 224.55,256.00 L 225.50,256.00 L 226.45,256.00 L 227.40,256.00 L 228.35,256.00 L 229.30,256.00 L 230.25,256.00 L 231.20,256.00 L 232.15,256.00 L 233.10,256.00 L 234.05,256.00 L 235.00,256.00 L 235.95,256.00 L 236.90,256.00 L 237.85,256.00 L 238.80,256.00 L 239.75,256.00 L 240.70,256.00 L 241.65,256.00 L 242.60,256.00 L 243.55,256.00 L 244.50,256.00 L 245.45,256.00 L 246.40,256.00 L 247.35,256.00 L 248.30,256.00 L 249.25,256.00 L 250.20,256.00 L 251.15,256.00 L 252.10,256.00 L 253.05,256.00 L 254.00,256.00 L 254.95,256.00 L 255.90,256.00 L 256.85,256.00 L 257.80,256.00 L 258.75,256.00 L 259.70,256.00 L 260.65,256.00 L 261.60,256.00 L 262.55,256.00 L 263.50,256.00 L 264.45,256.00 L 265.40,256.00 L 266.35,256.00 L 267.30,256.00 L 268.25,256.00 L 269.20,256.00 L 270.15,256.00 L 271.10,256.00 L 272.05,256.00 L 273.00,256.00 L 273.95,256.00 L 274.90,256.00 L 275.85,256.00 L 276.80,256.00 L 277.75,256.00 L 278.70,256.00 L 279.65,256.00 L 280.60,256.00 L 281.55,256.00 L 282.50,256.00 L 283.45,256.00 L 284.40,256.00 L 285.35,256.00 L 286.30,256.00 L 287.25,256.00 L 288.20,256.00 L 289.15,256.00 L 290.10,256.00 L 291.05,256.00 L 292.00,256.00 L 292.95,256.00 L 293.90,256.00 L 294.85,256.00 L 295.80,256.00 L 296.75,256.00 L 297.70,256.00 L 298.65,256.00 L 299.60,256.00 L 300.55,256.00 L 301.50,256.00 L 302.45,256.00 L 303.40,256.00 L 304.35,256.00 L 305.30,256.00 L 306.25,256.00 L 307.20,256.00 L 308.15,256.00 L 309.10,256.00 L 310.05,256.00 L 311.00,256.00 L 311.95,256.00 L 312.90,256.00 L 313.85,256.00 L 314.80,256.00 L 315.75,256.00 L 316.70,256.00 L 317.65,256.00 L 318.60,256.00 L 319.55,256.00 L 320.50,256.00 L 321.45,256.00 L 322.40,256.00 L 323.35,256.00 L 324.30,256.00 L 325.25,256.00 L 326.20,256.00 L 327.15,256.00 L 328.10,256.00 L 329.05,256.00 L 330.00,256.00 L 330.95,256.00 L 331.90,256.00 L 332.85,256.00 L 333.80,256.00 L 334.75,256.00 L 335.70,256.00 L 336.65,256.00 L 337.60,256.00 L 338.55,256.00 L 339.50,256.00 L 340.45,256.00 L 341.40,256.00 L 342.35,256.00 L 343.30,256.00 L 344.25,256.00 L 345.20,256.00 L 346.15,256.00 L 347.10,256.00 L 348.05,256.00 L 349.00,256.00 L 349.95,256.00 L 350.90,256.00 L 351.85,256.00 L 352.80,256.00 L 353.75,256.00 L 354.70,256.00 L 355.65,256.00 L 356.60,256.00 L 357.55,256.00 L 358.50,256.00 L 359.45,256.00 L 360.40,256.00 L 361.35,256.00 L 362.30,256.00 L 363.25,256.00 L 364.20,256.00 L 365.15,256.00 L 366.10,256.00 L 367.05,256.00 L 368.00,256.00 L 368.95,256.00 L 369.90,256.00 L 370.85,256.00 L 371.80,256.00 L 372.75,256.00 L 373.70,256.00 L 374.65,256.00 L 375.60,256.00 L 376.55,256.00 L 377.50,256.00 L 378.45,256.00 L 379.40,256.00 L 380.35,256.00 L 381.30,256.00 L 382.25,256.00 L 383.20,256.00 L 384.15,256.00 L 385.10,256.00 L 386.05,256.00 L 387.00,256.00 L 387.95,256.00 L 388.90,256.00 L 389.85,256.00 L 390.80,256.00 L 391.75,256.00 L 392.70,256.00 L 393.65,256.00 L 394.60,256.00 L 395.55,256.00 L 396.50,256.00 L 397.45,256.00 L 398.40,256.00 L 399.35,256.00 L 400.30,256.00 L 401.25,256.00 L 402.20,256.00 L 403.15,256.00 L 404.10,256.00 L 405.05,256.00 L 406.00,256.00 L 406.95,256.00 L 407.90,256.00 L 408.85,256.00 L 409.80,256.00 L 410.75,256.00 L 411.70,256.00 L 412.65,256.00 L 413.60,256.00 L 414.55,256.00 L 415.50,256.00 L 416.45,256.00 L 417.40,256.00 L 418.35,256.00 L 419.30,256.00 L 420.25,256.00 L 421.20,256.00 L 422.15,256.00 L 423.10,256.00 L 424.05,256.00 L 425.00,256.00 L 425.95,256.00 L 426.90,256.00 L 427.85,256.00 L 428.80,256.00 L 429.75,256.00 L 430.70,256.00 L 431.65,256.00 L 432.60,256.00 L 433.55,256.00 L 434.50,256.00 L 435.45,256.00 L 436.40,256.00 L 437.35,256.00 L 438.30,256.00 L 439.25,256.00 L 440.20,256.00 L 441.15,256.00 L 442.10,256.00 L 443.05,256.00 L 444.00,256.00 L 444.95,256.00 L 445.90,256.00 L 446.85,256.00 L 447.80,256.00 L 448.75,256.00 L 449.70,256.00 L 450.65,256.00 L 451.60,256.00 L 452.55,256.00 L 453.50,256.00 L 454.45,256.00 L 455.40,256.00 L 456.35,256.00 L 457.30,256.00 L 458.25,256.00 L 459.20,256.00 L 460.15,256.00 L 461.10,256.00 L 462.05,256.00 L 463.00,256.00" />
  <path class="coverage" d="M 64.00,315.93 L 64.95,315.92 L 65.90,315.92 L 66.85,315.91 L 67.80,315.91 L 68.75,315.89 L 69.70,315.89 L 70.65,315.88 L 71.60,315.87 L 72.55,315.86 L 73.50,315.84 L 74.45,315.83 L 75.40,315.82 L 76.35,315.81 L 77.30,315.79 L 78.25,315.78 L 79.20,315.76 L 80.15,315.75 L 81.10,315.73 L 82.05,315.70 L 83.00,315.68 L 83.95,315.67 L 84.90,315.65 L 85.85,315.61 L 86.80,315.58 L 87.75,315.56 L 88.70,315.54 L 89.65,315.51 L 90.60,315.46 L 91.55,315.43 L 92.50,315.39 L 93.45,315.36 L 94.40,315.29 L 95.35,315.25 L 96.30,315.22 L 97.25,315.17 L 98.20,315.13 L 99.15,315.04 L 100.10,314.99 L 101.05,314.94 L 102.00,314.88 L 102.95,314.83 L 103.90,314.71 L 104.85,314.64 L 105.80,314.57 L 106.75,314.50 L 107.70,314.35 L 108.65,314.27 L 109.60,314.19 L 110.55,314.10 L 111.50,314.01 L 112.45,313.82 L 113.40,313.72 L 114.35,313.61 L 115.30,313.50 L 116.25,313.26 L 117.20,313.14 L 118.15,313.01 L 119.10,312.87 L 120.05,312.73 L 121.00,312.43 L 121.95,312.27 L 122.90,312.11 L 123.85,311.94 L 124.80,311.58 L 125.75,311.38 L 126.70,311.19 L 127.65,310.98 L 128.60,310.77 L 129.55,310.32 L 130.50,310.08 L 131.45,309.84 L 132.40,309.59 L 133.35,309.32 L 134.30,308.77 L 135.25,308.48 L 136.20,308.18 L 137.15,307.87 L 138.10,307.22 L 139.05,306.88 L 140.00,306.53 L 140.95,306.17 L 141.90,305.79 L 142.85,305.00 L 143.80,304.59 L 144.75,304.17 L 145.70,303.73 L 146.65,302.82 L 147.60,302.34 L 148.55,301.85 L 149.50,301.35 L 150.45,300.83 L 151.40,299.75 L 152.35,299.18 L 153.30,298.60 L 154.25,298.01 L 155.20,296.77 L 156.15,296.13 L 157.10,295.47 L 158.05,294.79 L 159.00,294.10 L 159.95,292.66 L 160.90,291.91 L 161.85,291.15 L 162.80,290.37 L 163.75,288.75 L 164.70,287.91 L 165.65,287.05 L 166.60,286.18 L 167.55,285.28 L 168.50,283.43 L 169.45,282.48 L 170.40,281.51 L 171.35,280.52 L 172.30,279.50 L 173.25,277.42 L 174.20,276.35 L 175.15,275.25 L 176.10,274.14 L 177.05,271.85 L 178.00,270.68 L 178.95,269.49 L 179.90,268.27 L 180.85,267.04 L 181.80,264.52 L 182.75,263.22 L 183.70,261.91 L 184.65,260.58 L 185.60,257.86 L 186.55,256.47 L 187.50,255.06 L 188.45,253.64 L 189.40,252.19 L 190.35,249.25 L 191.30,247.76 L 192.25,246.24 L 193.20,244.71 L 194.15,241.60 L 195.10,240.03 L 196.05,238.43 L 197.00,236.83 L 197.95,235.21 L 198.90,231.93 L 199.85,230.27 L 200.80,228.59 L 201.75,226.91 L 202.70,225.22 L 203.65,221.80 L 204.60,220.08 L 205.55,218.35 L 206.50,216.61 L 207.45,213.11 L 208.40,211.35 L 209.35,209.59 L 210.30,207.83 L 211.25,206.06 L 212.20,202.52 L 213.15,200.75 L 214.10,198.97 L 215.05,197.20 L 216.00,193.67 L 216.95,191.91 L 217.90,190.15 L 218.85,188.39 L 219.80,186.65 L 220.75,183.18 L 221.70,181.46 L 222.65,179.75 L 223.60,178.05 L 224.55,174.69 L 225.50,173.03 L 226.45,171.38 L 227.40,169.75 L 228.35,168.14 L 229.30,164.97 L 230.25,163.41 L 231.20,161.87 L 232.15,160.36 L 233.10,158.87 L 234.05,155.96 L 235.00,154.54 L 235.95,153.15 L 236.90,151.78 L 237.85,149.14 L 238.80,147.86 L 239.75,146.61 L 240.70,145.40 L 241.65,144.21 L 242.60,141.95 L 243.55,140.86 L 244.50,139.82 L 245.45,138.81 L 246.40,136.90 L 247.35,136.00 L 248.30,135.14 L 249.25,134.31 L 250.20,133.53 L 251.15,132.09 L 252.10,131.43 L 253.05,130.82 L 254.00,130.24 L 254.95,129.22 L 255.90,128.77 L 256.85,128.37 L 257.80,128.01 L 258.75,127.70 L 259.70,127.21 L 260.65,127.02 L 261.60,126.89 L 262.55,126.80 L 263.50,126.75 L 264.45,126.80 L 265.40,126.89 L 266.35,127.02 L 267.30,127.21 L 268.25,127.70 L 269.20,128.01 L 270.15,128.37 L 271.10,128.77 L 272.05,129.22 L 273.00,130.24 L 273.95,130.82 L 274.90,131.43 L 275.85,132.09 L 276.80,133.53 L 277.75,134.31 L 278.70,135.14 L 279.65,136.00 L 280.60,136.90 L 281.55,138.81 L 282.50,139.82 L 283.45,140.86 L 284.40,141.95 L 285.35,144.21 L 286.30,145.40 L 287.25,146.61 L 288.20,147.86 L 289.15,149.14 L 290.10,151.78 L 291.05,153.15 L 292.00,154.54 L 292.95,155.96 L 293.90,158.87 L 294.85,160.36 L 295.80,161.87 L 296.75,163.41 L 297.70,164.97 L 298.65,168.14 L 299.60,169.75 L 300.55,171.38 L 301.50,173.03 L 302.45,174.69 L 303.40,178.05 L 304.35,179.75 L 305.30,181.46 L 306.25,183.18 L 307.20,186.65 L 308.15,188.39 L 309.10,190.15 L 310.05,191.91 L 311.00,193.67 L 311.95,197.20 L 312.90,198.97 L 313.85,200.75 L 314.80,202.52 L 315.75,206.06 L 316.70,207.83 L 317.65,209.59 L 318.60,211.35 L 319.55,213.11 L 320.50,216.61 L 321.45,218.35 L 322.40,220.08 L 323.35,221.80 L 324.30,225.22 L 325.25,226.91 L 326.20,228.59 L 327.15,230.27 L 328.10,231.93 L 329.05,235.21 L 330.00,236.83 L 330.95,238.43 L 331.90,240.03 L 332.85,241.60 L 333.80,244.71 L 334.75,246.24 L 335.70,247.76 L 336.65,249.25 L 337.60,252.19 L 338.55,253.64 L 339.50,255.06 L 340.45,256.47 L 341.40,257.86 L 342.35,260.58 L 343.30,261.91 L 344.25,263.22 L 345.20,264.52 L 346.15,267.04 L 347.10,268.27 L 348.05,269.49 L 349.00,270.68 L 349.95,271.85 L 350.90,274.14 L 351.85,275.25 L 352.80,276.35 L 353.75,277.42 L 354.70,279.50 L 355.65,280.52 L 356.60,281.51 L 357.55,282.48 L 358.50,283.43 L 359.45,285.28 L 360.40,286.18 L 361.35,287.05 L 362.30,287.91 L 363.25,289.57 L 364.20,290.37 L 365.15,291.15 L 366.10,291.91 L 367.05,292.66 L 368.00,294.10 L 368.95,294.79 L 369.90,295.47 L 370.85,296.13 L 371.80,296.77 L 372.75,298.01 L 373.70,298.60 L 374.65,299.18 L 375.60,299.75 L 376.55,300.83 L 377.50,301.35 L 378.45,301.85 L 379.40,302.34 L 380.35,302.82 L 381.30,303.73 L 382.25,304.17 L 383.20,304.59 L 384.15,305.00 L 385.10,305.79 L 386.05,306.17 L 387.00,306.53 L 387.95,306.88 L 388.90,307.22 L 389.85,307.87 L 390.80,308.18 L 391.75,308.48 L 392.70,308.77 L 393.65,309.32 L 394.60,309.59 L 395.55,309.84 L 396.50,310.08 L 397.45,310.32 L 398.40,310.77 L 399.35,310.98 L 400.30,311.19 L 401.25,311.38 L 402.20,311.58 L 403.15,311.94 L 404.10,312.11 L 405.05,312.27 L 406.00,312.43 L 406.95,312.73 L 407.90,312.87 L 408.85,313.01 L 409.80,313.14 L 410.75,313.26 L 411.70,313.50 L 412.65,313.61 L 413.60,313.72 L 414.55,313.82 L 415.50,314.01 L 416.45,314.10 L 417.40,314.19 L 418.35,314.27 L 419.30,314.35 L 420.25,314.50 L 421.20,314.57 L 422.15,314.64 L 423.10,314.71 L 424.05,314.83 L 425.00,314.88 L 425.95,314.94 L 426.90,314.99 L 427.85,315.04 L 428.80,315.13 L 429.75,315.17 L 430.70,315.22 L 431.65,315.25 L 432.60,315.29 L 433.55,315.36 L 434.50,315.39 L 435.45,315.43 L 436.40,315.46 L 437.35,315.51 L 438.30,315.54 L 439.25,315.56 L 440.20,315.58 L 441.15,315.61 L 442.10,315.65 L 443.05,315.67 L 444.00,315.68 L 444.95,315.70 L 445.90,315.73 L 446.85,315.75 L 447.80,315.76 L 448.75,315.78 L 449.70,315.79 L 450.65,315.81 L 451.60,315.82 L 452.55,315.83 L 453.50,315.84 L 454.45,315.86 L 455.40,315.87 L 456.35,315.88 L 457.30,315.89 L 458.25,315.89 L 459.20,315.91 L 460.15,315.91 L 461.10,315.92 L 462.05,315.92 L 463.00,315.93" />
  <line class="truth" x1="64.00" y1="379.00" x2="94.00" y2="379.00" />
  <text class="small" x="102.00" y="383.00">uniform P</text>
  <rect class="density-fill" x="188.00" y="370.00" width="26.00" height="12.00" />
  <text class="small" x="222.00" y="383.00">density q</text>
  <line class="coverage" x1="302.00" y1="379.00" x2="332.00" y2="379.00" />
  <text class="small" x="340.00" y="383.00">normalized Kq (ℓ = 0.04)</text>
  <text class="small" x="64.00" y="404.00">ordinary CE = 1.692</text>
  <text class="label" x="541.00" y="34.00" fill="#1f2a37">Shuffled equal-width pieces</text>
  <text class="small" x="541.00" y="52.00">high-mass pieces distributed across the interval</text>
  <rect x="541.00" y="64.00" width="399.00" height="252.00" fill="none" stroke="#000000" stroke-opacity="0.05" />
  <line class="axis" x1="541.00" y1="316.00" x2="940.00" y2="316.00" />
  <line class="axis" x1="541.00" y1="64.00" x2="541.00" y2="316.00" />
  <line class="grid" x1="541.00" y1="256.00" x2="940.00" y2="256.00" />
  <text class="small" x="507.00" y="260.00">1</text>
  <line class="grid" x1="541.00" y1="196.00" x2="940.00" y2="196.00" />
  <text class="small" x="507.00" y="200.00">2</text>
  <line class="grid" x1="541.00" y1="136.00" x2="940.00" y2="136.00" />
  <text class="small" x="507.00" y="140.00">3</text>
  <line class="grid" x1="541.00" y1="76.00" x2="940.00" y2="76.00" />
  <text class="small" x="507.00" y="80.00">4</text>
  <text class="small" x="523.00" y="320.00">0</text>
  <line class="axis" x1="541.00" y1="316.00" x2="541.00" y2="322.00" />
  <text class="small" x="534.00" y="340.00">0</text>
  <line class="axis" x1="740.50" y1="316.00" x2="740.50" y2="322.00" />
  <text class="small" x="733.50" y="340.00">0.5</text>
  <line class="axis" x1="940.00" y1="316.00" x2="940.00" y2="322.00" />
  <text class="small" x="933.00" y="340.00">1</text>
  <text class="small" x="736.50" y="360.00">x</text>
  <path class="density-fill" d="M 541.00,316.00 L 541.00,123.17 L 541.95,122.21 L 542.90,121.32 L 543.85,120.51 L 544.80,119.77 L 545.75,119.10 L 546.70,118.51 L 547.65,117.99 L 548.60,117.55 L 549.55,117.19 L 550.50,116.91 L 551.45,116.70 L 552.40,116.57 L 553.35,116.52 L 554.30,302.67 L 555.25,302.05 L 556.20,301.40 L 557.15,300.72 L 558.10,300.02 L 559.05,299.30 L 560.00,298.55 L 560.95,297.77 L 561.90,296.96 L 562.85,296.13 L 563.80,295.27 L 564.75,294.38 L 565.70,293.46 L 566.65,228.88 L 567.60,226.65 L 568.55,224.39 L 569.50,222.11 L 570.45,219.82 L 571.40,217.50 L 572.35,215.17 L 573.30,212.83 L 574.25,210.47 L 575.20,208.10 L 576.15,205.73 L 577.10,203.34 L 578.05,200.95 L 579.00,315.32 L 579.95,315.28 L 580.90,315.23 L 581.85,315.18 L 582.80,315.12 L 583.75,315.06 L 584.70,315.00 L 585.65,314.93 L 586.60,314.86 L 587.55,314.79 L 588.50,314.71 L 589.45,314.62 L 590.40,314.54 L 591.35,167.85 L 592.30,165.59 L 593.25,163.37 L 594.20,161.16 L 595.15,158.99 L 596.10,156.85 L 597.05,154.75 L 598.00,152.68 L 598.95,150.65 L 599.90,148.66 L 600.85,146.71 L 601.80,144.81 L 602.75,142.96 L 603.70,312.63 L 604.65,312.44 L 605.60,312.23 L 606.55,312.02 L 607.50,311.79 L 608.45,311.55 L 609.40,311.30 L 610.35,311.04 L 611.30,310.77 L 612.25,310.48 L 613.20,310.18 L 614.15,309.87 L 615.10,309.54 L 616.05,277.79 L 617.00,276.39 L 617.95,274.96 L 618.90,273.49 L 619.85,271.99 L 620.80,270.46 L 621.75,268.89 L 622.70,267.28 L 623.65,265.64 L 624.60,263.97 L 625.55,262.26 L 626.50,260.51 L 627.45,258.73 L 628.40,315.90 L 629.35,315.89 L 630.30,315.89 L 631.25,315.88 L 632.20,315.87 L 633.15,315.86 L 634.10,315.85 L 635.05,315.83 L 636.00,315.82 L 636.95,315.81 L 637.90,315.79 L 638.85,315.78 L 639.80,315.76 L 640.75,141.82 L 641.70,140.05 L 642.65,138.33 L 643.60,136.66 L 644.55,135.04 L 645.50,133.49 L 646.45,131.99 L 647.40,130.55 L 648.35,129.18 L 649.30,127.87 L 650.25,126.63 L 651.20,125.45 L 652.15,124.34 L 653.10,123.30 L 654.05,308.97 L 655.00,308.60 L 655.95,308.22 L 656.90,307.82 L 657.85,307.40 L 658.80,306.96 L 659.75,306.50 L 660.70,306.03 L 661.65,305.54 L 662.60,305.02 L 663.55,304.49 L 664.50,303.93 L 665.45,303.35 L 666.40,255.77 L 667.35,253.91 L 668.30,252.01 L 669.25,250.08 L 670.20,248.11 L 671.15,246.12 L 672.10,244.10 L 673.05,242.05 L 674.00,239.96 L 674.95,237.86 L 675.90,235.72 L 676.85,233.56 L 677.80,231.37 L 678.75,315.73 L 679.70,315.71 L 680.65,315.69 L 681.60,315.66 L 682.55,315.64 L 683.50,315.61 L 684.45,315.59 L 685.40,315.56 L 686.35,315.52 L 687.30,315.49 L 688.25,315.45 L 689.20,315.41 L 690.15,315.37 L 691.10,198.85 L 692.05,196.45 L 693.00,194.05 L 693.95,191.65 L 694.90,189.25 L 695.85,186.86 L 696.80,184.48 L 697.75,182.10 L 698.70,179.73 L 699.65,177.38 L 700.60,175.04 L 701.55,172.72 L 702.50,170.42 L 703.45,314.45 L 704.40,314.35 L 705.35,314.25 L 706.30,314.14 L 707.25,314.03 L 708.20,313.90 L 709.15,313.77 L 710.10,313.64 L 711.05,313.49 L 712.00,313.34 L 712.95,313.18 L 713.90,313.02 L 714.85,312.84 L 715.80,292.99 L 716.75,292.03 L 717.70,291.03 L 718.65,290.01 L 719.60,288.95 L 720.55,287.86 L 721.50,286.74 L 722.45,285.59 L 723.40,284.40 L 724.35,283.18 L 725.30,281.92 L 726.25,280.64 L 727.20,279.31 L 728.15,315.97 L 729.10,315.96 L 730.05,315.96 L 731.00,315.96 L 731.95,315.95 L 732.90,315.95 L 733.85,315.94 L 734.80,315.94 L 735.75,315.93 L 736.70,315.93 L 737.65,315.92 L 738.60,315.92 L 739.55,315.91 L 740.50,116.52 L 741.45,116.56 L 742.40,116.68 L 743.35,116.88 L 744.30,117.15 L 745.25,117.50 L 746.20,117.93 L 747.15,118.44 L 748.10,119.02 L 749.05,119.68 L 750.00,120.41 L 750.95,121.22 L 751.90,122.10 L 752.85,123.05 L 753.80,294.04 L 754.75,294.94 L 755.70,295.81 L 756.65,296.66 L 757.60,297.47 L 758.55,298.26 L 759.50,299.02 L 760.45,299.75 L 761.40,300.46 L 762.35,301.15 L 763.30,301.81 L 764.25,302.44 L 765.20,303.05 L 766.15,201.85 L 767.10,204.24 L 768.05,206.62 L 769.00,208.99 L 769.95,211.36 L 770.90,213.71 L 771.85,216.05 L 772.80,218.37 L 773.75,220.68 L 774.70,222.97 L 775.65,225.24 L 776.60,227.49 L 777.55,229.72 L 778.50,314.55 L 779.45,314.63 L 780.40,314.72 L 781.35,314.80 L 782.30,314.87 L 783.25,314.94 L 784.20,315.01 L 785.15,315.07 L 786.10,315.13 L 787.05,315.18 L 788.00,315.24 L 788.95,315.28 L 789.90,315.33 L 790.85,142.73 L 791.80,144.58 L 792.75,146.47 L 793.70,148.42 L 794.65,150.40 L 795.60,152.42 L 796.55,154.49 L 797.50,156.59 L 798.45,158.72 L 799.40,160.89 L 800.35,163.09 L 801.30,165.31 L 802.25,167.57 L 803.20,309.41 L 804.15,309.74 L 805.10,310.06 L 806.05,310.37 L 807.00,310.66 L 807.95,310.94 L 808.90,311.21 L 809.85,311.46 L 810.80,311.70 L 811.75,311.93 L 812.70,312.15 L 813.65,312.36 L 814.60,312.56 L 815.55,257.60 L 816.50,259.40 L 817.45,261.17 L 818.40,262.90 L 819.35,264.60 L 820.30,266.26 L 821.25,267.89 L 822.20,269.48 L 823.15,271.04 L 824.10,272.56 L 825.05,274.05 L 826.00,275.50 L 826.95,276.92 L 827.90,315.74 L 828.85,315.76 L 829.80,315.78 L 830.75,315.79 L 831.70,315.81 L 832.65,315.82 L 833.60,315.83 L 834.55,315.85 L 835.50,315.86 L 836.45,315.87 L 837.40,315.88 L 838.35,315.89 L 839.30,315.90 L 840.25,123.17 L 841.20,124.20 L 842.15,125.31 L 843.10,126.48 L 844.05,127.71 L 845.00,129.01 L 845.95,130.38 L 846.90,131.81 L 847.85,133.30 L 848.80,134.85 L 849.75,136.45 L 850.70,138.11 L 851.65,139.83 L 852.60,141.60 L 853.55,303.72 L 854.50,304.28 L 855.45,304.82 L 856.40,305.35 L 857.35,305.85 L 858.30,306.33 L 859.25,306.79 L 860.20,307.24 L 861.15,307.66 L 862.10,308.07 L 863.05,308.46 L 864.00,308.84 L 864.95,309.19 L 865.90,232.19 L 866.85,234.37 L 867.80,236.52 L 868.75,238.65 L 869.70,240.75 L 870.65,242.82 L 871.60,244.86 L 872.55,246.87 L 873.50,248.85 L 874.45,250.80 L 875.40,252.72 L 876.35,254.61 L 877.30,256.46 L 878.25,315.38 L 879.20,315.42 L 880.15,315.46 L 881.10,315.49 L 882.05,315.53 L 883.00,315.56 L 883.95,315.59 L 884.90,315.62 L 885.85,315.64 L 886.80,315.67 L 887.75,315.69 L 888.70,315.71 L 889.65,315.73 L 890.60,170.13 L 891.55,172.43 L 892.50,174.75 L 893.45,177.09 L 894.40,179.44 L 895.35,181.80 L 896.30,184.18 L 897.25,186.56 L 898.20,188.95 L 899.15,191.35 L 900.10,193.75 L 901.05,196.15 L 902.00,198.55 L 902.95,312.77 L 903.90,312.95 L 904.85,313.12 L 905.80,313.29 L 906.75,313.44 L 907.70,313.59 L 908.65,313.72 L 909.60,313.86 L 910.55,313.98 L 911.50,314.10 L 912.45,314.21 L 913.40,314.32 L 914.35,314.42 L 915.30,278.47 L 916.25,279.81 L 917.20,281.12 L 918.15,282.40 L 919.10,283.64 L 920.05,284.85 L 921.00,286.02 L 921.95,287.16 L 922.90,288.27 L 923.85,289.35 L 924.80,290.40 L 925.75,291.41 L 926.70,292.39 L 927.65,315.90 L 928.60,315.91 L 929.55,315.92 L 930.50,315.92 L 931.45,315.93 L 932.40,315.94 L 933.35,315.94 L 934.30,315.94 L 935.25,315.95 L 936.20,315.95 L 937.15,315.96 L 938.10,315.96 L 939.05,315.96 L 940.00,315.97 L 940.00,316.00 Z" />
  <path class="truth" d="M 541.00,256.00 L 541.95,256.00 L 542.90,256.00 L 543.85,256.00 L 544.80,256.00 L 545.75,256.00 L 546.70,256.00 L 547.65,256.00 L 548.60,256.00 L 549.55,256.00 L 550.50,256.00 L 551.45,256.00 L 552.40,256.00 L 553.35,256.00 L 554.30,256.00 L 555.25,256.00 L 556.20,256.00 L 557.15,256.00 L 558.10,256.00 L 559.05,256.00 L 560.00,256.00 L 560.95,256.00 L 561.90,256.00 L 562.85,256.00 L 563.80,256.00 L 564.75,256.00 L 565.70,256.00 L 566.65,256.00 L 567.60,256.00 L 568.55,256.00 L 569.50,256.00 L 570.45,256.00 L 571.40,256.00 L 572.35,256.00 L 573.30,256.00 L 574.25,256.00 L 575.20,256.00 L 576.15,256.00 L 577.10,256.00 L 578.05,256.00 L 579.00,256.00 L 579.95,256.00 L 580.90,256.00 L 581.85,256.00 L 582.80,256.00 L 583.75,256.00 L 584.70,256.00 L 585.65,256.00 L 586.60,256.00 L 587.55,256.00 L 588.50,256.00 L 589.45,256.00 L 590.40,256.00 L 591.35,256.00 L 592.30,256.00 L 593.25,256.00 L 594.20,256.00 L 595.15,256.00 L 596.10,256.00 L 597.05,256.00 L 598.00,256.00 L 598.95,256.00 L 599.90,256.00 L 600.85,256.00 L 601.80,256.00 L 602.75,256.00 L 603.70,256.00 L 604.65,256.00 L 605.60,256.00 L 606.55,256.00 L 607.50,256.00 L 608.45,256.00 L 609.40,256.00 L 610.35,256.00 L 611.30,256.00 L 612.25,256.00 L 613.20,256.00 L 614.15,256.00 L 615.10,256.00 L 616.05,256.00 L 617.00,256.00 L 617.95,256.00 L 618.90,256.00 L 619.85,256.00 L 620.80,256.00 L 621.75,256.00 L 622.70,256.00 L 623.65,256.00 L 624.60,256.00 L 625.55,256.00 L 626.50,256.00 L 627.45,256.00 L 628.40,256.00 L 629.35,256.00 L 630.30,256.00 L 631.25,256.00 L 632.20,256.00 L 633.15,256.00 L 634.10,256.00 L 635.05,256.00 L 636.00,256.00 L 636.95,256.00 L 637.90,256.00 L 638.85,256.00 L 639.80,256.00 L 640.75,256.00 L 641.70,256.00 L 642.65,256.00 L 643.60,256.00 L 644.55,256.00 L 645.50,256.00 L 646.45,256.00 L 647.40,256.00 L 648.35,256.00 L 649.30,256.00 L 650.25,256.00 L 651.20,256.00 L 652.15,256.00 L 653.10,256.00 L 654.05,256.00 L 655.00,256.00 L 655.95,256.00 L 656.90,256.00 L 657.85,256.00 L 658.80,256.00 L 659.75,256.00 L 660.70,256.00 L 661.65,256.00 L 662.60,256.00 L 663.55,256.00 L 664.50,256.00 L 665.45,256.00 L 666.40,256.00 L 667.35,256.00 L 668.30,256.00 L 669.25,256.00 L 670.20,256.00 L 671.15,256.00 L 672.10,256.00 L 673.05,256.00 L 674.00,256.00 L 674.95,256.00 L 675.90,256.00 L 676.85,256.00 L 677.80,256.00 L 678.75,256.00 L 679.70,256.00 L 680.65,256.00 L 681.60,256.00 L 682.55,256.00 L 683.50,256.00 L 684.45,256.00 L 685.40,256.00 L 686.35,256.00 L 687.30,256.00 L 688.25,256.00 L 689.20,256.00 L 690.15,256.00 L 691.10,256.00 L 692.05,256.00 L 693.00,256.00 L 693.95,256.00 L 694.90,256.00 L 695.85,256.00 L 696.80,256.00 L 697.75,256.00 L 698.70,256.00 L 699.65,256.00 L 700.60,256.00 L 701.55,256.00 L 702.50,256.00 L 703.45,256.00 L 704.40,256.00 L 705.35,256.00 L 706.30,256.00 L 707.25,256.00 L 708.20,256.00 L 709.15,256.00 L 710.10,256.00 L 711.05,256.00 L 712.00,256.00 L 712.95,256.00 L 713.90,256.00 L 714.85,256.00 L 715.80,256.00 L 716.75,256.00 L 717.70,256.00 L 718.65,256.00 L 719.60,256.00 L 720.55,256.00 L 721.50,256.00 L 722.45,256.00 L 723.40,256.00 L 724.35,256.00 L 725.30,256.00 L 726.25,256.00 L 727.20,256.00 L 728.15,256.00 L 729.10,256.00 L 730.05,256.00 L 731.00,256.00 L 731.95,256.00 L 732.90,256.00 L 733.85,256.00 L 734.80,256.00 L 735.75,256.00 L 736.70,256.00 L 737.65,256.00 L 738.60,256.00 L 739.55,256.00 L 740.50,256.00 L 741.45,256.00 L 742.40,256.00 L 743.35,256.00 L 744.30,256.00 L 745.25,256.00 L 746.20,256.00 L 747.15,256.00 L 748.10,256.00 L 749.05,256.00 L 750.00,256.00 L 750.95,256.00 L 751.90,256.00 L 752.85,256.00 L 753.80,256.00 L 754.75,256.00 L 755.70,256.00 L 756.65,256.00 L 757.60,256.00 L 758.55,256.00 L 759.50,256.00 L 760.45,256.00 L 761.40,256.00 L 762.35,256.00 L 763.30,256.00 L 764.25,256.00 L 765.20,256.00 L 766.15,256.00 L 767.10,256.00 L 768.05,256.00 L 769.00,256.00 L 769.95,256.00 L 770.90,256.00 L 771.85,256.00 L 772.80,256.00 L 773.75,256.00 L 774.70,256.00 L 775.65,256.00 L 776.60,256.00 L 777.55,256.00 L 778.50,256.00 L 779.45,256.00 L 780.40,256.00 L 781.35,256.00 L 782.30,256.00 L 783.25,256.00 L 784.20,256.00 L 785.15,256.00 L 786.10,256.00 L 787.05,256.00 L 788.00,256.00 L 788.95,256.00 L 789.90,256.00 L 790.85,256.00 L 791.80,256.00 L 792.75,256.00 L 793.70,256.00 L 794.65,256.00 L 795.60,256.00 L 796.55,256.00 L 797.50,256.00 L 798.45,256.00 L 799.40,256.00 L 800.35,256.00 L 801.30,256.00 L 802.25,256.00 L 803.20,256.00 L 804.15,256.00 L 805.10,256.00 L 806.05,256.00 L 807.00,256.00 L 807.95,256.00 L 808.90,256.00 L 809.85,256.00 L 810.80,256.00 L 811.75,256.00 L 812.70,256.00 L 813.65,256.00 L 814.60,256.00 L 815.55,256.00 L 816.50,256.00 L 817.45,256.00 L 818.40,256.00 L 819.35,256.00 L 820.30,256.00 L 821.25,256.00 L 822.20,256.00 L 823.15,256.00 L 824.10,256.00 L 825.05,256.00 L 826.00,256.00 L 826.95,256.00 L 827.90,256.00 L 828.85,256.00 L 829.80,256.00 L 830.75,256.00 L 831.70,256.00 L 832.65,256.00 L 833.60,256.00 L 834.55,256.00 L 835.50,256.00 L 836.45,256.00 L 837.40,256.00 L 838.35,256.00 L 839.30,256.00 L 840.25,256.00 L 841.20,256.00 L 842.15,256.00 L 843.10,256.00 L 844.05,256.00 L 845.00,256.00 L 845.95,256.00 L 846.90,256.00 L 847.85,256.00 L 848.80,256.00 L 849.75,256.00 L 850.70,256.00 L 851.65,256.00 L 852.60,256.00 L 853.55,256.00 L 854.50,256.00 L 855.45,256.00 L 856.40,256.00 L 857.35,256.00 L 858.30,256.00 L 859.25,256.00 L 860.20,256.00 L 861.15,256.00 L 862.10,256.00 L 863.05,256.00 L 864.00,256.00 L 864.95,256.00 L 865.90,256.00 L 866.85,256.00 L 867.80,256.00 L 868.75,256.00 L 869.70,256.00 L 870.65,256.00 L 871.60,256.00 L 872.55,256.00 L 873.50,256.00 L 874.45,256.00 L 875.40,256.00 L 876.35,256.00 L 877.30,256.00 L 878.25,256.00 L 879.20,256.00 L 880.15,256.00 L 881.10,256.00 L 882.05,256.00 L 883.00,256.00 L 883.95,256.00 L 884.90,256.00 L 885.85,256.00 L 886.80,256.00 L 887.75,256.00 L 888.70,256.00 L 889.65,256.00 L 890.60,256.00 L 891.55,256.00 L 892.50,256.00 L 893.45,256.00 L 894.40,256.00 L 895.35,256.00 L 896.30,256.00 L 897.25,256.00 L 898.20,256.00 L 899.15,256.00 L 900.10,256.00 L 901.05,256.00 L 902.00,256.00 L 902.95,256.00 L 903.90,256.00 L 904.85,256.00 L 905.80,256.00 L 906.75,256.00 L 907.70,256.00 L 908.65,256.00 L 909.60,256.00 L 910.55,256.00 L 911.50,256.00 L 912.45,256.00 L 913.40,256.00 L 914.35,256.00 L 915.30,256.00 L 916.25,256.00 L 917.20,256.00 L 918.15,256.00 L 919.10,256.00 L 920.05,256.00 L 921.00,256.00 L 921.95,256.00 L 922.90,256.00 L 923.85,256.00 L 924.80,256.00 L 925.75,256.00 L 926.70,256.00 L 927.65,256.00 L 928.60,256.00 L 929.55,256.00 L 930.50,256.00 L 931.45,256.00 L 932.40,256.00 L 933.35,256.00 L 934.30,256.00 L 935.25,256.00 L 936.20,256.00 L 937.15,256.00 L 938.10,256.00 L 939.05,256.00 L 940.00,256.00" />
  <path class="coverage" d="M 541.00,249.19 L 541.95,247.57 L 542.90,246.04 L 543.85,244.59 L 544.80,243.25 L 545.75,240.84 L 546.70,239.80 L 547.65,238.86 L 548.60,238.02 L 549.55,237.29 L 550.50,236.14 L 551.45,235.72 L 552.40,235.40 L 553.35,235.17 L 554.30,234.99 L 555.25,235.02 L 556.20,235.13 L 557.15,235.31 L 558.10,235.56 L 559.05,236.22 L 560.00,236.62 L 560.95,237.06 L 561.90,237.53 L 562.85,238.54 L 563.80,239.07 L 564.75,239.60 L 565.70,240.14 L 566.65,240.67 L 567.60,241.70 L 568.55,242.19 L 569.50,242.66 L 570.45,243.10 L 571.40,243.90 L 572.35,244.25 L 573.30,244.57 L 574.25,244.85 L 575.20,245.09 L 576.15,245.48 L 577.10,245.62 L 578.05,245.72 L 579.00,245.80 L 579.95,245.85 L 580.90,245.87 L 581.85,245.84 L 582.80,245.80 L 583.75,245.75 L 584.70,245.63 L 585.65,245.56 L 586.60,245.50 L 587.55,245.45 L 588.50,245.42 L 589.45,245.40 L 590.40,245.43 L 591.35,245.49 L 592.30,245.58 L 593.25,245.88 L 594.20,246.09 L 595.15,246.34 L 596.10,246.64 L 597.05,246.99 L 598.00,247.82 L 598.95,248.31 L 599.90,248.84 L 600.85,249.41 L 601.80,250.68 L 602.75,251.37 L 603.70,252.09 L 604.65,252.83 L 605.60,253.59 L 606.55,255.16 L 607.50,255.96 L 608.45,256.76 L 609.40,257.54 L 610.35,258.32 L 611.30,259.80 L 612.25,260.50 L 613.20,261.16 L 614.15,261.78 L 615.10,262.86 L 616.05,263.31 L 617.00,263.71 L 617.95,264.03 L 618.90,264.28 L 619.85,264.57 L 620.80,264.59 L 621.75,264.54 L 622.70,264.41 L 623.65,263.91 L 624.60,263.54 L 625.55,263.10 L 626.50,262.59 L 627.45,262.00 L 628.40,260.65 L 629.35,259.89 L 630.30,259.08 L 631.25,258.22 L 632.20,256.40 L 633.15,255.45 L 634.10,254.49 L 635.05,253.51 L 636.00,252.54 L 636.95,250.62 L 637.90,249.68 L 638.85,248.78 L 639.80,247.91 L 640.75,246.30 L 641.70,245.58 L 642.65,244.91 L 643.60,244.31 L 644.55,243.78 L 645.50,242.95 L 646.45,242.64 L 647.40,242.42 L 648.35,242.28 L 649.30,242.22 L 650.25,242.33 L 651.20,242.51 L 652.15,242.76 L 653.10,243.09 L 654.05,243.93 L 655.00,244.45 L 655.95,245.02 L 656.90,245.64 L 657.85,246.30 L 658.80,247.74 L 659.75,248.50 L 660.70,249.27 L 661.65,250.06 L 662.60,251.66 L 663.55,252.45 L 664.50,253.24 L 665.45,254.00 L 666.40,254.75 L 667.35,256.17 L 668.30,256.83 L 669.25,257.46 L 670.20,258.04 L 671.15,259.09 L 672.10,259.54 L 673.05,259.95 L 674.00,260.32 L 674.95,260.64 L 675.90,261.14 L 676.85,261.33 L 677.80,261.47 L 678.75,261.58 L 679.70,261.65 L 680.65,261.69 L 681.60,261.67 L 682.55,261.63 L 683.50,261.57 L 684.45,261.42 L 685.40,261.33 L 686.35,261.24 L 687.30,261.16 L 688.25,261.09 L 689.20,260.98 L 690.15,260.96 L 691.10,260.96 L 692.05,260.99 L 693.00,261.15 L 693.95,261.28 L 694.90,261.46 L 695.85,261.67 L 696.80,261.92 L 697.75,262.54 L 698.70,262.91 L 699.65,263.32 L 700.60,263.77 L 701.55,264.75 L 702.50,265.29 L 703.45,265.85 L 704.40,266.42 L 705.35,267.01 L 706.30,268.21 L 707.25,268.81 L 708.20,269.40 L 709.15,269.97 L 710.10,270.52 L 711.05,271.53 L 712.00,271.97 L 712.95,272.37 L 713.90,272.71 L 714.85,273.22 L 715.80,273.38 L 716.75,273.46 L 717.70,273.46 L 718.65,273.38 L 719.60,272.97 L 720.55,272.63 L 721.50,272.20 L 722.45,271.68 L 723.40,270.38 L 724.35,269.60 L 725.30,268.73 L 726.25,267.78 L 727.20,266.75 L 728.15,264.48 L 729.10,263.25 L 730.05,261.96 L 731.00,260.62 L 731.95,257.82 L 732.90,256.37 L 733.85,254.91 L 734.80,253.43 L 735.75,251.94 L 736.70,249.00 L 737.65,247.56 L 738.60,246.15 L 739.55,244.78 L 740.50,242.17 L 741.45,240.95 L 742.40,239.80 L 743.35,238.72 L 744.30,237.72 L 745.25,235.95 L 746.20,235.20 L 747.15,234.54 L 748.10,233.96 L 749.05,233.48 L 750.00,232.79 L 750.95,232.58 L 751.90,232.45 L 752.85,232.41 L 753.80,232.57 L 754.75,232.76 L 755.70,233.02 L 756.65,233.34 L 757.60,233.71 L 758.55,234.61 L 759.50,235.12 L 760.45,235.67 L 761.40,236.24 L 762.35,237.44 L 763.30,238.05 L 764.25,238.67 L 765.20,239.28 L 766.15,239.89 L 767.10,241.06 L 768.05,241.61 L 769.00,242.14 L 769.95,242.64 L 770.90,243.54 L 771.85,243.94 L 772.80,244.30 L 773.75,244.63 L 774.70,244.91 L 775.65,245.37 L 776.60,245.54 L 777.55,245.67 L 778.50,245.78 L 779.45,245.85 L 780.40,245.90 L 781.35,245.90 L 782.30,245.87 L 783.25,245.84 L 784.20,245.73 L 785.15,245.68 L 786.10,245.63 L 787.05,245.58 L 788.00,245.55 L 788.95,245.54 L 789.90,245.57 L 790.85,245.64 L 791.80,245.73 L 792.75,246.04 L 793.70,246.25 L 794.65,246.51 L 795.60,246.81 L 796.55,247.16 L 797.50,248.00 L 798.45,248.49 L 799.40,249.03 L 800.35,249.61 L 801.30,250.88 L 802.25,251.58 L 803.20,252.30 L 804.15,253.05 L 805.10,253.81 L 806.05,255.39 L 807.00,256.19 L 807.95,256.99 L 808.90,257.78 L 809.85,258.56 L 810.80,260.05 L 811.75,260.75 L 812.70,261.41 L 813.65,262.03 L 814.60,263.11 L 815.55,263.56 L 816.50,263.95 L 817.45,264.27 L 818.40,264.52 L 819.35,264.79 L 820.30,264.81 L 821.25,264.75 L 822.20,264.62 L 823.15,264.10 L 824.10,263.72 L 825.05,263.27 L 826.00,262.75 L 826.95,262.15 L 827.90,260.77 L 828.85,260.00 L 829.80,259.17 L 830.75,258.30 L 831.70,256.45 L 832.65,255.48 L 833.60,254.50 L 834.55,253.51 L 835.50,252.52 L 836.45,250.56 L 837.40,249.61 L 838.35,248.69 L 839.30,247.80 L 840.25,246.17 L 841.20,245.43 L 842.15,244.75 L 843.10,244.13 L 844.05,243.59 L 845.00,242.73 L 845.95,242.42 L 846.90,242.18 L 847.85,242.03 L 848.80,241.96 L 849.75,242.07 L 850.70,242.24 L 851.65,242.49 L 852.60,242.81 L 853.55,243.66 L 854.50,244.18 L 855.45,244.75 L 856.40,245.37 L 857.35,246.04 L 858.30,247.48 L 859.25,248.25 L 860.20,249.03 L 861.15,249.83 L 862.10,251.44 L 863.05,252.24 L 864.00,253.04 L 864.95,253.81 L 865.90,254.57 L 866.85,256.01 L 867.80,256.68 L 868.75,257.31 L 869.70,257.91 L 870.65,258.97 L 871.60,259.44 L 872.55,259.86 L 873.50,260.23 L 874.45,260.56 L 875.40,261.08 L 876.35,261.27 L 877.30,261.42 L 878.25,261.54 L 879.20,261.62 L 880.15,261.68 L 881.10,261.67 L 882.05,261.64 L 883.00,261.60 L 883.95,261.47 L 884.90,261.40 L 885.85,261.34 L 886.80,261.28 L 887.75,261.23 L 888.70,261.19 L 889.65,261.21 L 890.60,261.26 L 891.55,261.34 L 892.50,261.62 L 893.45,261.82 L 894.40,262.07 L 895.35,262.37 L 896.30,262.72 L 897.25,263.58 L 898.20,264.08 L 899.15,264.64 L 900.10,265.26 L 901.05,266.64 L 902.00,267.40 L 902.95,268.21 L 903.90,269.07 L 904.85,269.96 L 905.80,271.87 L 906.75,272.87 L 907.70,273.90 L 908.65,274.96 L 909.60,276.03 L 910.55,278.24 L 911.50,279.36 L 912.45,280.49 L 913.40,281.62 L 914.35,283.88 L 915.30,285.00 L 916.25,286.12 L 917.20,287.23 L 918.15,288.32 L 919.10,290.46 L 920.05,291.50 L 921.00,292.52 L 921.95,293.52 L 922.90,295.46 L 923.85,296.39 L 924.80,297.30 L 925.75,298.18 L 926.70,299.04 L 927.65,300.67 L 928.60,301.45 L 929.55,302.21 L 930.50,302.93 L 931.45,304.32 L 932.40,304.97 L 933.35,305.60 L 934.30,306.20 L 935.25,306.78 L 936.20,307.87 L 937.15,308.38 L 938.10,308.87 L 939.05,309.33 L 940.00,309.77" />
  <line class="truth" x1="541.00" y1="379.00" x2="571.00" y2="379.00" />
  <text class="small" x="579.00" y="383.00">uniform P</text>
  <rect class="density-fill" x="665.00" y="370.00" width="26.00" height="12.00" />
  <text class="small" x="699.00" y="383.00">density q</text>
  <line class="coverage" x1="779.00" y1="379.00" x2="809.00" y2="379.00" />
  <text class="small" x="817.00" y="383.00">normalized Kq (ℓ = 0.04)</text>
  <text class="small" x="541.00" y="404.00">ordinary CE = 1.692</text>
</svg>
