<?xml version="1.0" encoding="UTF-8"?>
<svg xmlns="http://www.w3.org/2000/svg" viewBox="0 0 980.00 430.00" role="img">
  <title>Finite-atom approximations under ordinary log loss and K-loss</title>
  <style>
    text { font-family: 'Crimson Pro', 'Times New Roman', serif; fill: #5b6673; }
    .label { font-size: 14px; font-weight: 600; }
    .small { font-size: 12px; }
    .axis-label { fill: #5b6673; }
    .accent-text { fill: #8b3a3a; }
    .axis { stroke: #1f2a37; stroke-opacity: 0.35; stroke-width: 1.2; }
    .grid { stroke: #1f2a37; stroke-opacity: 0.12; stroke-width: 1; }
    .truth { stroke: #5b6673; stroke-opacity: 0.55; stroke-width: 1.7; fill: none; stroke-dasharray: 5 5; }
    .density-fill { fill: #8b3a3a; fill-opacity: 0.32; stroke: none; }
    .coverage { stroke: #8b3a3a; stroke-opacity: 0.88; stroke-width: 2.1; fill: none; }
    .stem { stroke: #8b3a3a; stroke-opacity: 0.58; stroke-width: 1.4; }
    .dot { fill: #8b3a3a; fill-opacity: 0.78; stroke: #8b3a3a; stroke-opacity: 0.95; stroke-width: 1; }
  </style>
  <rect x="0" y="0" width="980.00" height="430.00" fill="#ffffff" />
  <text class="label" x="64.00" y="34.00" fill="#1f2a37">11 equally weighted atoms</text>
  <text class="small" x="64.00" y="52.00">zero density between support points</text>
  <rect x="64.00" y="64.00" width="399.00" height="252.00" fill="none" stroke="#000000" stroke-opacity="0.05" />
  <line class="axis" x1="64.00" y1="316.00" x2="463.00" y2="316.00" />
  <line class="axis" x1="64.00" y1="64.00" x2="64.00" y2="316.00" />
  <line class="grid" x1="64.00" y1="249.68" x2="463.00" y2="249.68" />
  <text class="small" x="30.00" y="253.68">0.5</text>
  <line class="grid" x1="64.00" y1="183.37" x2="463.00" y2="183.37" />
  <text class="small" x="30.00" y="187.37">1</text>
  <line class="grid" x1="64.00" y1="117.05" x2="463.00" y2="117.05" />
  <text class="small" x="30.00" y="121.05">1.5</text>
  <text class="small" x="46.00" y="320.00">0</text>
  <line class="axis" x1="64.00" y1="316.00" x2="64.00" y2="322.00" />
  <text class="small" x="57.00" y="340.00">0</text>
  <line class="axis" x1="263.50" y1="316.00" x2="263.50" y2="322.00" />
  <text class="small" x="256.50" y="340.00">0.5</text>
  <line class="axis" x1="463.00" y1="316.00" x2="463.00" y2="322.00" />
  <text class="small" x="456.00" y="340.00">1</text>
  <text class="small axis-label" x="14.00" y="190.00" text-anchor="middle" transform="rotate(-90 14.00 190.00)">relative Kq</text>
  <text class="small" x="259.50" y="360.00">x</text>
  <path class="truth" d="M 64.00,183.37 L 64.95,183.37 L 65.90,183.37 L 66.85,183.37 L 67.80,183.37 L 68.75,183.37 L 69.70,183.37 L 70.65,183.37 L 71.60,183.37 L 72.55,183.37 L 73.50,183.37 L 74.45,183.37 L 75.40,183.37 L 76.35,183.37 L 77.30,183.37 L 78.25,183.37 L 79.20,183.37 L 80.15,183.37 L 81.10,183.37 L 82.05,183.37 L 83.00,183.37 L 83.95,183.37 L 84.90,183.37 L 85.85,183.37 L 86.80,183.37 L 87.75,183.37 L 88.70,183.37 L 89.65,183.37 L 90.60,183.37 L 91.55,183.37 L 92.50,183.37 L 93.45,183.37 L 94.40,183.37 L 95.35,183.37 L 96.30,183.37 L 97.25,183.37 L 98.20,183.37 L 99.15,183.37 L 100.10,183.37 L 101.05,183.37 L 102.00,183.37 L 102.95,183.37 L 103.90,183.37 L 104.85,183.37 L 105.80,183.37 L 106.75,183.37 L 107.70,183.37 L 108.65,183.37 L 109.60,183.37 L 110.55,183.37 L 111.50,183.37 L 112.45,183.37 L 113.40,183.37 L 114.35,183.37 L 115.30,183.37 L 116.25,183.37 L 117.20,183.37 L 118.15,183.37 L 119.10,183.37 L 120.05,183.37 L 121.00,183.37 L 121.95,183.37 L 122.90,183.37 L 123.85,183.37 L 124.80,183.37 L 125.75,183.37 L 126.70,183.37 L 127.65,183.37 L 128.60,183.37 L 129.55,183.37 L 130.50,183.37 L 131.45,183.37 L 132.40,183.37 L 133.35,183.37 L 134.30,183.37 L 135.25,183.37 L 136.20,183.37 L 137.15,183.37 L 138.10,183.37 L 139.05,183.37 L 140.00,183.37 L 140.95,183.37 L 141.90,183.37 L 142.85,183.37 L 143.80,183.37 L 144.75,183.37 L 145.70,183.37 L 146.65,183.37 L 147.60,183.37 L 148.55,183.37 L 149.50,183.37 L 150.45,183.37 L 151.40,183.37 L 152.35,183.37 L 153.30,183.37 L 154.25,183.37 L 155.20,183.37 L 156.15,183.37 L 157.10,183.37 L 158.05,183.37 L 159.00,183.37 L 159.95,183.37 L 160.90,183.37 L 161.85,183.37 L 162.80,183.37 L 163.75,183.37 L 164.70,183.37 L 165.65,183.37 L 166.60,183.37 L 167.55,183.37 L 168.50,183.37 L 169.45,183.37 L 170.40,183.37 L 171.35,183.37 L 172.30,183.37 L 173.25,183.37 L 174.20,183.37 L 175.15,183.37 L 176.10,183.37 L 177.05,183.37 L 178.00,183.37 L 178.95,183.37 L 179.90,183.37 L 180.85,183.37 L 181.80,183.37 L 182.75,183.37 L 183.70,183.37 L 184.65,183.37 L 185.60,183.37 L 186.55,183.37 L 187.50,183.37 L 188.45,183.37 L 189.40,183.37 L 190.35,183.37 L 191.30,183.37 L 192.25,183.37 L 193.20,183.37 L 194.15,183.37 L 195.10,183.37 L 196.05,183.37 L 197.00,183.37 L 197.95,183.37 L 198.90,183.37 L 199.85,183.37 L 200.80,183.37 L 201.75,183.37 L 202.70,183.37 L 203.65,183.37 L 204.60,183.37 L 205.55,183.37 L 206.50,183.37 L 207.45,183.37 L 208.40,183.37 L 209.35,183.37 L 210.30,183.37 L 211.25,183.37 L 212.20,183.37 L 213.15,183.37 L 214.10,183.37 L 215.05,183.37 L 216.00,183.37 L 216.95,183.37 L 217.90,183.37 L 218.85,183.37 L 219.80,183.37 L 220.75,183.37 L 221.70,183.37 L 222.65,183.37 L 223.60,183.37 L 224.55,183.37 L 225.50,183.37 L 226.45,183.37 L 227.40,183.37 L 228.35,183.37 L 229.30,183.37 L 230.25,183.37 L 231.20,183.37 L 232.15,183.37 L 233.10,183.37 L 234.05,183.37 L 235.00,183.37 L 235.95,183.37 L 236.90,183.37 L 237.85,183.37 L 238.80,183.37 L 239.75,183.37 L 240.70,183.37 L 241.65,183.37 L 242.60,183.37 L 243.55,183.37 L 244.50,183.37 L 245.45,183.37 L 246.40,183.37 L 247.35,183.37 L 248.30,183.37 L 249.25,183.37 L 250.20,183.37 L 251.15,183.37 L 252.10,183.37 L 253.05,183.37 L 254.00,183.37 L 254.95,183.37 L 255.90,183.37 L 256.85,183.37 L 257.80,183.37 L 258.75,183.37 L 259.70,183.37 L 260.65,183.37 L 261.60,183.37 L 262.55,183.37 L 263.50,183.37 L 264.45,183.37 L 265.40,183.37 L 266.35,183.37 L 267.30,183.37 L 268.25,183.37 L 269.20,183.37 L 270.15,183.37 L 271.10,183.37 L 272.05,183.37 L 273.00,183.37 L 273.95,183.37 L 274.90,183.37 L 275.85,183.37 L 276.80,183.37 L 277.75,183.37 L 278.70,183.37 L 279.65,183.37 L 280.60,183.37 L 281.55,183.37 L 282.50,183.37 L 283.45,183.37 L 284.40,183.37 L 285.35,183.37 L 286.30,183.37 L 287.25,183.37 L 288.20,183.37 L 289.15,183.37 L 290.10,183.37 L 291.05,183.37 L 292.00,183.37 L 292.95,183.37 L 293.90,183.37 L 294.85,183.37 L 295.80,183.37 L 296.75,183.37 L 297.70,183.37 L 298.65,183.37 L 299.60,183.37 L 300.55,183.37 L 301.50,183.37 L 302.45,183.37 L 303.40,183.37 L 304.35,183.37 L 305.30,183.37 L 306.25,183.37 L 307.20,183.37 L 308.15,183.37 L 309.10,183.37 L 310.05,183.37 L 311.00,183.37 L 311.95,183.37 L 312.90,183.37 L 313.85,183.37 L 314.80,183.37 L 315.75,183.37 L 316.70,183.37 L 317.65,183.37 L 318.60,183.37 L 319.55,183.37 L 320.50,183.37 L 321.45,183.37 L 322.40,183.37 L 323.35,183.37 L 324.30,183.37 L 325.25,183.37 L 326.20,183.37 L 327.15,183.37 L 328.10,183.37 L 329.05,183.37 L 330.00,183.37 L 330.95,183.37 L 331.90,183.37 L 332.85,183.37 L 333.80,183.37 L 334.75,183.37 L 335.70,183.37 L 336.65,183.37 L 337.60,183.37 L 338.55,183.37 L 339.50,183.37 L 340.45,183.37 L 341.40,183.37 L 342.35,183.37 L 343.30,183.37 L 344.25,183.37 L 345.20,183.37 L 346.15,183.37 L 347.10,183.37 L 348.05,183.37 L 349.00,183.37 L 349.95,183.37 L 350.90,183.37 L 351.85,183.37 L 352.80,183.37 L 353.75,183.37 L 354.70,183.37 L 355.65,183.37 L 356.60,183.37 L 357.55,183.37 L 358.50,183.37 L 359.45,183.37 L 360.40,183.37 L 361.35,183.37 L 362.30,183.37 L 363.25,183.37 L 364.20,183.37 L 365.15,183.37 L 366.10,183.37 L 367.05,183.37 L 368.00,183.37 L 368.95,183.37 L 369.90,183.37 L 370.85,183.37 L 371.80,183.37 L 372.75,183.37 L 373.70,183.37 L 374.65,183.37 L 375.60,183.37 L 376.55,183.37 L 377.50,183.37 L 378.45,183.37 L 379.40,183.37 L 380.35,183.37 L 381.30,183.37 L 382.25,183.37 L 383.20,183.37 L 384.15,183.37 L 385.10,183.37 L 386.05,183.37 L 387.00,183.37 L 387.95,183.37 L 388.90,183.37 L 389.85,183.37 L 390.80,183.37 L 391.75,183.37 L 392.70,183.37 L 393.65,183.37 L 394.60,183.37 L 395.55,183.37 L 396.50,183.37 L 397.45,183.37 L 398.40,183.37 L 399.35,183.37 L 400.30,183.37 L 401.25,183.37 L 402.20,183.37 L 403.15,183.37 L 404.10,183.37 L 405.05,183.37 L 406.00,183.37 L 406.95,183.37 L 407.90,183.37 L 408.85,183.37 L 409.80,183.37 L 410.75,183.37 L 411.70,183.37 L 412.65,183.37 L 413.60,183.37 L 414.55,183.37 L 415.50,183.37 L 416.45,183.37 L 417.40,183.37 L 418.35,183.37 L 419.30,183.37 L 420.25,183.37 L 421.20,183.37 L 422.15,183.37 L 423.10,183.37 L 424.05,183.37 L 425.00,183.37 L 425.95,183.37 L 426.90,183.37 L 427.85,183.37 L 428.80,183.37 L 429.75,183.37 L 430.70,183.37 L 431.65,183.37 L 432.60,183.37 L 433.55,183.37 L 434.50,183.37 L 435.45,183.37 L 436.40,183.37 L 437.35,183.37 L 438.30,183.37 L 439.25,183.37 L 440.20,183.37 L 441.15,183.37 L 442.10,183.37 L 443.05,183.37 L 444.00,183.37 L 444.95,183.37 L 445.90,183.37 L 446.85,183.37 L 447.80,183.37 L 448.75,183.37 L 449.70,183.37 L 450.65,183.37 L 451.60,183.37 L 452.55,183.37 L 453.50,183.37 L 454.45,183.37 L 455.40,183.37 L 456.35,183.37 L 457.30,183.37 L 458.25,183.37 L 459.20,183.37 L 460.15,183.37 L 461.10,183.37 L 462.05,183.37 L 463.00,183.37" />
  <path class="coverage" d="M 64.00,177.75 L 64.95,177.06 L 65.90,176.72 L 66.85,176.71 L 67.80,177.01 L 68.75,177.59 L 69.70,178.42 L 70.65,179.46 L 71.60,180.67 L 72.55,182.03 L 73.50,183.47 L 74.45,184.97 L 75.40,186.48 L 76.35,187.96 L 77.30,189.37 L 78.25,190.67 L 79.20,191.83 L 80.15,192.82 L 81.10,193.61 L 82.05,194.18 L 83.00,194.52 L 83.95,194.62 L 84.90,194.47 L 85.85,194.08 L 86.80,193.44 L 87.75,192.59 L 88.70,191.53 L 89.65,190.28 L 90.60,188.88 L 91.55,187.36 L 92.50,185.74 L 93.45,184.07 L 94.40,182.38 L 95.35,180.71 L 96.30,179.10 L 97.25,177.58 L 98.20,176.18 L 99.15,174.95 L 100.10,173.89 L 101.05,173.05 L 102.00,172.43 L 102.95,172.06 L 103.90,171.93 L 104.85,172.06 L 105.80,172.43 L 106.75,173.05 L 107.70,173.89 L 108.65,174.94 L 109.60,176.18 L 110.55,177.57 L 111.50,179.09 L 112.45,180.71 L 113.40,182.37 L 114.35,184.06 L 115.30,185.73 L 116.25,187.34 L 117.20,188.86 L 118.15,190.25 L 119.10,191.49 L 120.05,192.54 L 121.00,193.38 L 121.95,194.00 L 122.90,194.38 L 123.85,194.50 L 124.80,194.38 L 125.75,194.00 L 126.70,193.38 L 127.65,192.54 L 128.60,191.49 L 129.55,190.25 L 130.50,188.86 L 131.45,187.34 L 132.40,185.73 L 133.35,184.06 L 134.30,182.37 L 135.25,180.71 L 136.20,179.09 L 137.15,177.57 L 138.10,176.18 L 139.05,174.94 L 140.00,173.89 L 140.95,173.05 L 141.90,172.43 L 142.85,172.06 L 143.80,171.93 L 144.75,172.06 L 145.70,172.43 L 146.65,173.05 L 147.60,173.89 L 148.55,174.94 L 149.50,176.18 L 150.45,177.57 L 151.40,179.09 L 152.35,180.71 L 153.30,182.37 L 154.25,184.06 L 155.20,185.73 L 156.15,187.34 L 157.10,188.86 L 158.05,190.25 L 159.00,191.49 L 159.95,192.54 L 160.90,193.38 L 161.85,194.00 L 162.80,194.38 L 163.75,194.50 L 164.70,194.38 L 165.65,194.00 L 166.60,193.38 L 167.55,192.54 L 168.50,191.49 L 169.45,190.25 L 170.40,188.86 L 171.35,187.34 L 172.30,185.73 L 173.25,184.06 L 174.20,182.37 L 175.15,180.71 L 176.10,179.09 L 177.05,177.57 L 178.00,176.18 L 178.95,174.94 L 179.90,173.89 L 180.85,173.05 L 181.80,172.43 L 182.75,172.06 L 183.70,171.93 L 184.65,172.06 L 185.60,172.43 L 186.55,173.05 L 187.50,173.89 L 188.45,174.94 L 189.40,176.18 L 190.35,177.57 L 191.30,179.09 L 192.25,180.71 L 193.20,182.37 L 194.15,184.06 L 195.10,185.73 L 196.05,187.34 L 197.00,188.86 L 197.95,190.25 L 198.90,191.49 L 199.85,192.54 L 200.80,193.38 L 201.75,194.00 L 202.70,194.38 L 203.65,194.50 L 204.60,194.38 L 205.55,194.00 L 206.50,193.38 L 207.45,192.54 L 208.40,191.49 L 209.35,190.25 L 210.30,188.86 L 211.25,187.34 L 212.20,185.73 L 213.15,184.06 L 214.10,182.37 L 215.05,180.71 L 216.00,179.09 L 216.95,177.57 L 217.90,176.18 L 218.85,174.94 L 219.80,173.89 L 220.75,173.05 L 221.70,172.43 L 222.65,172.06 L 223.60,171.93 L 224.55,172.06 L 225.50,172.43 L 226.45,173.05 L 227.40,173.89 L 228.35,174.94 L 229.30,176.18 L 230.25,177.57 L 231.20,179.09 L 232.15,180.71 L 233.10,182.37 L 234.05,184.06 L 235.00,185.73 L 235.95,187.34 L 236.90,188.86 L 237.85,190.25 L 238.80,191.49 L 239.75,192.54 L 240.70,193.38 L 241.65,194.00 L 242.60,194.38 L 243.55,194.50 L 244.50,194.38 L 245.45,194.00 L 246.40,193.38 L 247.35,192.54 L 248.30,191.49 L 249.25,190.25 L 250.20,188.86 L 251.15,187.34 L 252.10,185.73 L 253.05,184.06 L 254.00,182.37 L 254.95,180.71 L 255.90,179.09 L 256.85,177.57 L 257.80,176.18 L 258.75,174.94 L 259.70,173.89 L 260.65,173.05 L 261.60,172.43 L 262.55,172.06 L 263.50,171.93 L 264.45,172.06 L 265.40,172.43 L 266.35,173.05 L 267.30,173.89 L 268.25,174.94 L 269.20,176.18 L 270.15,177.57 L 271.10,179.09 L 272.05,180.71 L 273.00,182.37 L 273.95,184.06 L 274.90,185.73 L 275.85,187.34 L 276.80,188.86 L 277.75,190.25 L 278.70,191.49 L 279.65,192.54 L 280.60,193.38 L 281.55,194.00 L 282.50,194.38 L 283.45,194.50 L 284.40,194.38 L 285.35,194.00 L 286.30,193.38 L 287.25,192.54 L 288.20,191.49 L 289.15,190.25 L 290.10,188.86 L 291.05,187.34 L 292.00,185.73 L 292.95,184.06 L 293.90,182.37 L 294.85,180.71 L 295.80,179.09 L 296.75,177.57 L 297.70,176.18 L 298.65,174.94 L 299.60,173.89 L 300.55,173.05 L 301.50,172.43 L 302.45,172.06 L 303.40,171.93 L 304.35,172.06 L 305.30,172.43 L 306.25,173.05 L 307.20,173.89 L 308.15,174.94 L 309.10,176.18 L 310.05,177.57 L 311.00,179.09 L 311.95,180.71 L 312.90,182.37 L 313.85,184.06 L 314.80,185.73 L 315.75,187.34 L 316.70,188.86 L 317.65,190.25 L 318.60,191.49 L 319.55,192.54 L 320.50,193.38 L 321.45,194.00 L 322.40,194.38 L 323.35,194.50 L 324.30,194.38 L 325.25,194.00 L 326.20,193.38 L 327.15,192.54 L 328.10,191.49 L 329.05,190.25 L 330.00,188.86 L 330.95,187.34 L 331.90,185.73 L 332.85,184.06 L 333.80,182.37 L 334.75,180.71 L 335.70,179.09 L 336.65,177.57 L 337.60,176.18 L 338.55,174.94 L 339.50,173.89 L 340.45,173.05 L 341.40,172.43 L 342.35,172.06 L 343.30,171.93 L 344.25,172.06 L 345.20,172.43 L 346.15,173.05 L 347.10,173.89 L 348.05,174.94 L 349.00,176.18 L 349.95,177.57 L 350.90,179.09 L 351.85,180.71 L 352.80,182.37 L 353.75,184.06 L 354.70,185.73 L 355.65,187.34 L 356.60,188.86 L 357.55,190.25 L 358.50,191.49 L 359.45,192.54 L 360.40,193.38 L 361.35,194.00 L 362.30,194.38 L 363.25,194.50 L 364.20,194.38 L 365.15,194.00 L 366.10,193.38 L 367.05,192.54 L 368.00,191.49 L 368.95,190.25 L 369.90,188.86 L 370.85,187.34 L 371.80,185.73 L 372.75,184.06 L 373.70,182.37 L 374.65,180.71 L 375.60,179.09 L 376.55,177.57 L 377.50,176.18 L 378.45,174.94 L 379.40,173.89 L 380.35,173.05 L 381.30,172.43 L 382.25,172.06 L 383.20,171.93 L 384.15,172.06 L 385.10,172.43 L 386.05,173.05 L 387.00,173.89 L 387.95,174.94 L 388.90,176.18 L 389.85,177.57 L 390.80,179.09 L 391.75,180.71 L 392.70,182.37 L 393.65,184.06 L 394.60,185.73 L 395.55,187.34 L 396.50,188.86 L 397.45,190.25 L 398.40,191.49 L 399.35,192.54 L 400.30,193.38 L 401.25,194.00 L 402.20,194.38 L 403.15,194.50 L 404.10,194.38 L 405.05,194.00 L 406.00,193.38 L 406.95,192.54 L 407.90,191.49 L 408.85,190.25 L 409.80,188.86 L 410.75,187.34 L 411.70,185.73 L 412.65,184.06 L 413.60,182.37 L 414.55,180.71 L 415.50,179.09 L 416.45,177.57 L 417.40,176.18 L 418.35,174.94 L 419.30,173.89 L 420.25,173.05 L 421.20,172.43 L 422.15,172.06 L 423.10,171.93 L 424.05,172.06 L 425.00,172.43 L 425.95,173.05 L 426.90,173.89 L 427.85,174.95 L 428.80,176.18 L 429.75,177.58 L 430.70,179.10 L 431.65,180.71 L 432.60,182.38 L 433.55,184.07 L 434.50,185.74 L 435.45,187.36 L 436.40,188.88 L 437.35,190.28 L 438.30,191.53 L 439.25,192.59 L 440.20,193.44 L 441.15,194.08 L 442.10,194.47 L 443.05,194.62 L 444.00,194.52 L 444.95,194.18 L 445.90,193.61 L 446.85,192.82 L 447.80,191.83 L 448.75,190.67 L 449.70,189.37 L 450.65,187.96 L 451.60,186.48 L 452.55,184.97 L 453.50,183.47 L 454.45,182.03 L 455.40,180.67 L 456.35,179.46 L 457.30,178.42 L 458.25,177.59 L 459.20,177.01 L 460.15,176.71 L 461.10,176.72 L 462.05,177.06 L 463.00,177.75" />
  <line class="stem" x1="64.00" y1="316.00" x2="64.00" y2="292.13" />
  <circle class="dot" cx="64.00" cy="292.13" r="2.5" />
  <line class="stem" x1="103.90" y1="316.00" x2="103.90" y2="292.13" />
  <circle class="dot" cx="103.90" cy="292.13" r="2.5" />
  <line class="stem" x1="143.80" y1="316.00" x2="143.80" y2="292.13" />
  <circle class="dot" cx="143.80" cy="292.13" r="2.5" />
  <line class="stem" x1="183.70" y1="316.00" x2="183.70" y2="292.13" />
  <circle class="dot" cx="183.70" cy="292.13" r="2.5" />
  <line class="stem" x1="223.60" y1="316.00" x2="223.60" y2="292.13" />
  <circle class="dot" cx="223.60" cy="292.13" r="2.5" />
  <line class="stem" x1="263.50" y1="316.00" x2="263.50" y2="292.13" />
  <circle class="dot" cx="263.50" cy="292.13" r="2.5" />
  <line class="stem" x1="303.40" y1="316.00" x2="303.40" y2="292.13" />
  <circle class="dot" cx="303.40" cy="292.13" r="2.5" />
  <line class="stem" x1="343.30" y1="316.00" x2="343.30" y2="292.13" />
  <circle class="dot" cx="343.30" cy="292.13" r="2.5" />
  <line class="stem" x1="383.20" y1="316.00" x2="383.20" y2="292.13" />
  <circle class="dot" cx="383.20" cy="292.13" r="2.5" />
  <line class="stem" x1="423.10" y1="316.00" x2="423.10" y2="292.13" />
  <circle class="dot" cx="423.10" cy="292.13" r="2.5" />
  <line class="stem" x1="463.00" y1="316.00" x2="463.00" y2="292.13" />
  <circle class="dot" cx="463.00" cy="292.13" r="2.5" />
  <line class="truth" x1="64.00" y1="379.00" x2="94.00" y2="379.00" />
  <text class="small" x="102.00" y="383.00">uniform reference</text>
  <line class="coverage" x1="224.00" y1="379.00" x2="254.00" y2="379.00" />
  <text class="small" x="262.00" y="383.00">normalized Kq</text>
  <text class="small" x="64.00" y="404.00">ordinary CE = ∞</text>
  <text class="label" x="541.00" y="34.00" fill="#1f2a37">31 equally weighted atoms</text>
  <text class="small" x="541.00" y="52.00">finer support, same kernel</text>
  <rect x="541.00" y="64.00" width="399.00" height="252.00" fill="none" stroke="#000000" stroke-opacity="0.05" />
  <line class="axis" x1="541.00" y1="316.00" x2="940.00" y2="316.00" />
  <line class="axis" x1="541.00" y1="64.00" x2="541.00" y2="316.00" />
  <line class="grid" x1="541.00" y1="249.68" x2="940.00" y2="249.68" />
  <text class="small" x="507.00" y="253.68">0.5</text>
  <line class="grid" x1="541.00" y1="183.37" x2="940.00" y2="183.37" />
  <text class="small" x="507.00" y="187.37">1</text>
  <line class="grid" x1="541.00" y1="117.05" x2="940.00" y2="117.05" />
  <text class="small" x="507.00" y="121.05">1.5</text>
  <text class="small" x="523.00" y="320.00">0</text>
  <line class="axis" x1="541.00" y1="316.00" x2="541.00" y2="322.00" />
  <text class="small" x="534.00" y="340.00">0</text>
  <line class="axis" x1="740.50" y1="316.00" x2="740.50" y2="322.00" />
  <text class="small" x="733.50" y="340.00">0.5</text>
  <line class="axis" x1="940.00" y1="316.00" x2="940.00" y2="322.00" />
  <text class="small" x="933.00" y="340.00">1</text>
  <text class="small" x="736.50" y="360.00">x</text>
  <path class="truth" d="M 541.00,183.37 L 541.95,183.37 L 542.90,183.37 L 543.85,183.37 L 544.80,183.37 L 545.75,183.37 L 546.70,183.37 L 547.65,183.37 L 548.60,183.37 L 549.55,183.37 L 550.50,183.37 L 551.45,183.37 L 552.40,183.37 L 553.35,183.37 L 554.30,183.37 L 555.25,183.37 L 556.20,183.37 L 557.15,183.37 L 558.10,183.37 L 559.05,183.37 L 560.00,183.37 L 560.95,183.37 L 561.90,183.37 L 562.85,183.37 L 563.80,183.37 L 564.75,183.37 L 565.70,183.37 L 566.65,183.37 L 567.60,183.37 L 568.55,183.37 L 569.50,183.37 L 570.45,183.37 L 571.40,183.37 L 572.35,183.37 L 573.30,183.37 L 574.25,183.37 L 575.20,183.37 L 576.15,183.37 L 577.10,183.37 L 578.05,183.37 L 579.00,183.37 L 579.95,183.37 L 580.90,183.37 L 581.85,183.37 L 582.80,183.37 L 583.75,183.37 L 584.70,183.37 L 585.65,183.37 L 586.60,183.37 L 587.55,183.37 L 588.50,183.37 L 589.45,183.37 L 590.40,183.37 L 591.35,183.37 L 592.30,183.37 L 593.25,183.37 L 594.20,183.37 L 595.15,183.37 L 596.10,183.37 L 597.05,183.37 L 598.00,183.37 L 598.95,183.37 L 599.90,183.37 L 600.85,183.37 L 601.80,183.37 L 602.75,183.37 L 603.70,183.37 L 604.65,183.37 L 605.60,183.37 L 606.55,183.37 L 607.50,183.37 L 608.45,183.37 L 609.40,183.37 L 610.35,183.37 L 611.30,183.37 L 612.25,183.37 L 613.20,183.37 L 614.15,183.37 L 615.10,183.37 L 616.05,183.37 L 617.00,183.37 L 617.95,183.37 L 618.90,183.37 L 619.85,183.37 L 620.80,183.37 L 621.75,183.37 L 622.70,183.37 L 623.65,183.37 L 624.60,183.37 L 625.55,183.37 L 626.50,183.37 L 627.45,183.37 L 628.40,183.37 L 629.35,183.37 L 630.30,183.37 L 631.25,183.37 L 632.20,183.37 L 633.15,183.37 L 634.10,183.37 L 635.05,183.37 L 636.00,183.37 L 636.95,183.37 L 637.90,183.37 L 638.85,183.37 L 639.80,183.37 L 640.75,183.37 L 641.70,183.37 L 642.65,183.37 L 643.60,183.37 L 644.55,183.37 L 645.50,183.37 L 646.45,183.37 L 647.40,183.37 L 648.35,183.37 L 649.30,183.37 L 650.25,183.37 L 651.20,183.37 L 652.15,183.37 L 653.10,183.37 L 654.05,183.37 L 655.00,183.37 L 655.95,183.37 L 656.90,183.37 L 657.85,183.37 L 658.80,183.37 L 659.75,183.37 L 660.70,183.37 L 661.65,183.37 L 662.60,183.37 L 663.55,183.37 L 664.50,183.37 L 665.45,183.37 L 666.40,183.37 L 667.35,183.37 L 668.30,183.37 L 669.25,183.37 L 670.20,183.37 L 671.15,183.37 L 672.10,183.37 L 673.05,183.37 L 674.00,183.37 L 674.95,183.37 L 675.90,183.37 L 676.85,183.37 L 677.80,183.37 L 678.75,183.37 L 679.70,183.37 L 680.65,183.37 L 681.60,183.37 L 682.55,183.37 L 683.50,183.37 L 684.45,183.37 L 685.40,183.37 L 686.35,183.37 L 687.30,183.37 L 688.25,183.37 L 689.20,183.37 L 690.15,183.37 L 691.10,183.37 L 692.05,183.37 L 693.00,183.37 L 693.95,183.37 L 694.90,183.37 L 695.85,183.37 L 696.80,183.37 L 697.75,183.37 L 698.70,183.37 L 699.65,183.37 L 700.60,183.37 L 701.55,183.37 L 702.50,183.37 L 703.45,183.37 L 704.40,183.37 L 705.35,183.37 L 706.30,183.37 L 707.25,183.37 L 708.20,183.37 L 709.15,183.37 L 710.10,183.37 L 711.05,183.37 L 712.00,183.37 L 712.95,183.37 L 713.90,183.37 L 714.85,183.37 L 715.80,183.37 L 716.75,183.37 L 717.70,183.37 L 718.65,183.37 L 719.60,183.37 L 720.55,183.37 L 721.50,183.37 L 722.45,183.37 L 723.40,183.37 L 724.35,183.37 L 725.30,183.37 L 726.25,183.37 L 727.20,183.37 L 728.15,183.37 L 729.10,183.37 L 730.05,183.37 L 731.00,183.37 L 731.95,183.37 L 732.90,183.37 L 733.85,183.37 L 734.80,183.37 L 735.75,183.37 L 736.70,183.37 L 737.65,183.37 L 738.60,183.37 L 739.55,183.37 L 740.50,183.37 L 741.45,183.37 L 742.40,183.37 L 743.35,183.37 L 744.30,183.37 L 745.25,183.37 L 746.20,183.37 L 747.15,183.37 L 748.10,183.37 L 749.05,183.37 L 750.00,183.37 L 750.95,183.37 L 751.90,183.37 L 752.85,183.37 L 753.80,183.37 L 754.75,183.37 L 755.70,183.37 L 756.65,183.37 L 757.60,183.37 L 758.55,183.37 L 759.50,183.37 L 760.45,183.37 L 761.40,183.37 L 762.35,183.37 L 763.30,183.37 L 764.25,183.37 L 765.20,183.37 L 766.15,183.37 L 767.10,183.37 L 768.05,183.37 L 769.00,183.37 L 769.95,183.37 L 770.90,183.37 L 771.85,183.37 L 772.80,183.37 L 773.75,183.37 L 774.70,183.37 L 775.65,183.37 L 776.60,183.37 L 777.55,183.37 L 778.50,183.37 L 779.45,183.37 L 780.40,183.37 L 781.35,183.37 L 782.30,183.37 L 783.25,183.37 L 784.20,183.37 L 785.15,183.37 L 786.10,183.37 L 787.05,183.37 L 788.00,183.37 L 788.95,183.37 L 789.90,183.37 L 790.85,183.37 L 791.80,183.37 L 792.75,183.37 L 793.70,183.37 L 794.65,183.37 L 795.60,183.37 L 796.55,183.37 L 797.50,183.37 L 798.45,183.37 L 799.40,183.37 L 800.35,183.37 L 801.30,183.37 L 802.25,183.37 L 803.20,183.37 L 804.15,183.37 L 805.10,183.37 L 806.05,183.37 L 807.00,183.37 L 807.95,183.37 L 808.90,183.37 L 809.85,183.37 L 810.80,183.37 L 811.75,183.37 L 812.70,183.37 L 813.65,183.37 L 814.60,183.37 L 815.55,183.37 L 816.50,183.37 L 817.45,183.37 L 818.40,183.37 L 819.35,183.37 L 820.30,183.37 L 821.25,183.37 L 822.20,183.37 L 823.15,183.37 L 824.10,183.37 L 825.05,183.37 L 826.00,183.37 L 826.95,183.37 L 827.90,183.37 L 828.85,183.37 L 829.80,183.37 L 830.75,183.37 L 831.70,183.37 L 832.65,183.37 L 833.60,183.37 L 834.55,183.37 L 835.50,183.37 L 836.45,183.37 L 837.40,183.37 L 838.35,183.37 L 839.30,183.37 L 840.25,183.37 L 841.20,183.37 L 842.15,183.37 L 843.10,183.37 L 844.05,183.37 L 845.00,183.37 L 845.95,183.37 L 846.90,183.37 L 847.85,183.37 L 848.80,183.37 L 849.75,183.37 L 850.70,183.37 L 851.65,183.37 L 852.60,183.37 L 853.55,183.37 L 854.50,183.37 L 855.45,183.37 L 856.40,183.37 L 857.35,183.37 L 858.30,183.37 L 859.25,183.37 L 860.20,183.37 L 861.15,183.37 L 862.10,183.37 L 863.05,183.37 L 864.00,183.37 L 864.95,183.37 L 865.90,183.37 L 866.85,183.37 L 867.80,183.37 L 868.75,183.37 L 869.70,183.37 L 870.65,183.37 L 871.60,183.37 L 872.55,183.37 L 873.50,183.37 L 874.45,183.37 L 875.40,183.37 L 876.35,183.37 L 877.30,183.37 L 878.25,183.37 L 879.20,183.37 L 880.15,183.37 L 881.10,183.37 L 882.05,183.37 L 883.00,183.37 L 883.95,183.37 L 884.90,183.37 L 885.85,183.37 L 886.80,183.37 L 887.75,183.37 L 888.70,183.37 L 889.65,183.37 L 890.60,183.37 L 891.55,183.37 L 892.50,183.37 L 893.45,183.37 L 894.40,183.37 L 895.35,183.37 L 896.30,183.37 L 897.25,183.37 L 898.20,183.37 L 899.15,183.37 L 900.10,183.37 L 901.05,183.37 L 902.00,183.37 L 902.95,183.37 L 903.90,183.37 L 904.85,183.37 L 905.80,183.37 L 906.75,183.37 L 907.70,183.37 L 908.65,183.37 L 909.60,183.37 L 910.55,183.37 L 911.50,183.37 L 912.45,183.37 L 913.40,183.37 L 914.35,183.37 L 915.30,183.37 L 916.25,183.37 L 917.20,183.37 L 918.15,183.37 L 919.10,183.37 L 920.05,183.37 L 921.00,183.37 L 921.95,183.37 L 922.90,183.37 L 923.85,183.37 L 924.80,183.37 L 925.75,183.37 L 926.70,183.37 L 927.65,183.37 L 928.60,183.37 L 929.55,183.37 L 930.50,183.37 L 931.45,183.37 L 932.40,183.37 L 933.35,183.37 L 934.30,183.37 L 935.25,183.37 L 936.20,183.37 L 937.15,183.37 L 938.10,183.37 L 939.05,183.37 L 940.00,183.37" />
  <path class="coverage" d="M 541.00,226.03 L 541.95,223.06 L 542.90,220.17 L 543.85,217.38 L 544.80,214.70 L 545.75,212.12 L 546.70,209.66 L 547.65,207.31 L 548.60,205.09 L 549.55,202.99 L 550.50,201.01 L 551.45,199.15 L 552.40,197.42 L 553.35,195.80 L 554.30,194.30 L 555.25,192.92 L 556.20,191.64 L 557.15,190.48 L 558.10,189.41 L 559.05,188.44 L 560.00,187.55 L 560.95,186.76 L 561.90,186.04 L 562.85,185.40 L 563.80,184.82 L 564.75,184.31 L 565.70,183.86 L 566.65,183.46 L 567.60,183.11 L 568.55,182.80 L 569.50,182.53 L 570.45,182.29 L 571.40,182.09 L 572.35,181.91 L 573.30,181.76 L 574.25,181.63 L 575.20,181.52 L 576.15,181.43 L 577.10,181.35 L 578.05,181.28 L 579.00,181.22 L 579.95,181.18 L 580.90,181.14 L 581.85,181.10 L 582.80,181.07 L 583.75,181.05 L 584.70,181.03 L 585.65,181.02 L 586.60,181.01 L 587.55,180.99 L 588.50,180.99 L 589.45,180.98 L 590.40,180.97 L 591.35,180.97 L 592.30,180.97 L 593.25,180.96 L 594.20,180.96 L 595.15,180.96 L 596.10,180.96 L 597.05,180.96 L 598.00,180.96 L 598.95,180.96 L 599.90,180.96 L 600.85,180.96 L 601.80,180.95 L 602.75,180.95 L 603.70,180.95 L 604.65,180.95 L 605.60,180.95 L 606.55,180.95 L 607.50,180.95 L 608.45,180.95 L 609.40,180.95 L 610.35,180.95 L 611.30,180.95 L 612.25,180.95 L 613.20,180.95 L 614.15,180.95 L 615.10,180.95 L 616.05,180.95 L 617.00,180.95 L 617.95,180.95 L 618.90,180.95 L 619.85,180.95 L 620.80,180.95 L 621.75,180.95 L 622.70,180.95 L 623.65,180.95 L 624.60,180.95 L 625.55,180.95 L 626.50,180.95 L 627.45,180.95 L 628.40,180.95 L 629.35,180.95 L 630.30,180.95 L 631.25,180.95 L 632.20,180.95 L 633.15,180.95 L 634.10,180.95 L 635.05,180.95 L 636.00,180.95 L 636.95,180.95 L 637.90,180.95 L 638.85,180.95 L 639.80,180.95 L 640.75,180.95 L 641.70,180.95 L 642.65,180.95 L 643.60,180.95 L 644.55,180.95 L 645.50,180.95 L 646.45,180.95 L 647.40,180.95 L 648.35,180.95 L 649.30,180.95 L 650.25,180.95 L 651.20,180.95 L 652.15,180.95 L 653.10,180.95 L 654.05,180.95 L 655.00,180.95 L 655.95,180.95 L 656.90,180.95 L 657.85,180.95 L 658.80,180.95 L 659.75,180.95 L 660.70,180.95 L 661.65,180.95 L 662.60,180.95 L 663.55,180.95 L 664.50,180.95 L 665.45,180.95 L 666.40,180.95 L 667.35,180.95 L 668.30,180.95 L 669.25,180.95 L 670.20,180.95 L 671.15,180.95 L 672.10,180.95 L 673.05,180.95 L 674.00,180.95 L 674.95,180.95 L 675.90,180.95 L 676.85,180.95 L 677.80,180.95 L 678.75,180.95 L 679.70,180.95 L 680.65,180.95 L 681.60,180.95 L 682.55,180.95 L 683.50,180.95 L 684.45,180.95 L 685.40,180.95 L 686.35,180.95 L 687.30,180.95 L 688.25,180.95 L 689.20,180.95 L 690.15,180.95 L 691.10,180.95 L 692.05,180.95 L 693.00,180.95 L 693.95,180.95 L 694.90,180.95 L 695.85,180.95 L 696.80,180.95 L 697.75,180.95 L 698.70,180.95 L 699.65,180.95 L 700.60,180.95 L 701.55,180.95 L 702.50,180.95 L 703.45,180.95 L 704.40,180.95 L 705.35,180.95 L 706.30,180.95 L 707.25,180.95 L 708.20,180.95 L 709.15,180.95 L 710.10,180.95 L 711.05,180.95 L 712.00,180.95 L 712.95,180.95 L 713.90,180.95 L 714.85,180.95 L 715.80,180.95 L 716.75,180.95 L 717.70,180.95 L 718.65,180.95 L 719.60,180.95 L 720.55,180.95 L 721.50,180.95 L 722.45,180.95 L 723.40,180.95 L 724.35,180.95 L 725.30,180.95 L 726.25,180.95 L 727.20,180.95 L 728.15,180.95 L 729.10,180.95 L 730.05,180.95 L 731.00,180.95 L 731.95,180.95 L 732.90,180.95 L 733.85,180.95 L 734.80,180.95 L 735.75,180.95 L 736.70,180.95 L 737.65,180.95 L 738.60,180.95 L 739.55,180.95 L 740.50,180.95 L 741.45,180.95 L 742.40,180.95 L 743.35,180.95 L 744.30,180.95 L 745.25,180.95 L 746.20,180.95 L 747.15,180.95 L 748.10,180.95 L 749.05,180.95 L 750.00,180.95 L 750.95,180.95 L 751.90,180.95 L 752.85,180.95 L 753.80,180.95 L 754.75,180.95 L 755.70,180.95 L 756.65,180.95 L 757.60,180.95 L 758.55,180.95 L 759.50,180.95 L 760.45,180.95 L 761.40,180.95 L 762.35,180.95 L 763.30,180.95 L 764.25,180.95 L 765.20,180.95 L 766.15,180.95 L 767.10,180.95 L 768.05,180.95 L 769.00,180.95 L 769.95,180.95 L 770.90,180.95 L 771.85,180.95 L 772.80,180.95 L 773.75,180.95 L 774.70,180.95 L 775.65,180.95 L 776.60,180.95 L 777.55,180.95 L 778.50,180.95 L 779.45,180.95 L 780.40,180.95 L 781.35,180.95 L 782.30,180.95 L 783.25,180.95 L 784.20,180.95 L 785.15,180.95 L 786.10,180.95 L 787.05,180.95 L 788.00,180.95 L 788.95,180.95 L 789.90,180.95 L 790.85,180.95 L 791.80,180.95 L 792.75,180.95 L 793.70,180.95 L 794.65,180.95 L 795.60,180.95 L 796.55,180.95 L 797.50,180.95 L 798.45,180.95 L 799.40,180.95 L 800.35,180.95 L 801.30,180.95 L 802.25,180.95 L 803.20,180.95 L 804.15,180.95 L 805.10,180.95 L 806.05,180.95 L 807.00,180.95 L 807.95,180.95 L 808.90,180.95 L 809.85,180.95 L 810.80,180.95 L 811.75,180.95 L 812.70,180.95 L 813.65,180.95 L 814.60,180.95 L 815.55,180.95 L 816.50,180.95 L 817.45,180.95 L 818.40,180.95 L 819.35,180.95 L 820.30,180.95 L 821.25,180.95 L 822.20,180.95 L 823.15,180.95 L 824.10,180.95 L 825.05,180.95 L 826.00,180.95 L 826.95,180.95 L 827.90,180.95 L 828.85,180.95 L 829.80,180.95 L 830.75,180.95 L 831.70,180.95 L 832.65,180.95 L 833.60,180.95 L 834.55,180.95 L 835.50,180.95 L 836.45,180.95 L 837.40,180.95 L 838.35,180.95 L 839.30,180.95 L 840.25,180.95 L 841.20,180.95 L 842.15,180.95 L 843.10,180.95 L 844.05,180.95 L 845.00,180.95 L 845.95,180.95 L 846.90,180.95 L 847.85,180.95 L 848.80,180.95 L 849.75,180.95 L 850.70,180.95 L 851.65,180.95 L 852.60,180.95 L 853.55,180.95 L 854.50,180.95 L 855.45,180.95 L 856.40,180.95 L 857.35,180.95 L 858.30,180.95 L 859.25,180.95 L 860.20,180.95 L 861.15,180.95 L 862.10,180.95 L 863.05,180.95 L 864.00,180.95 L 864.95,180.95 L 865.90,180.95 L 866.85,180.95 L 867.80,180.95 L 868.75,180.95 L 869.70,180.95 L 870.65,180.95 L 871.60,180.95 L 872.55,180.95 L 873.50,180.95 L 874.45,180.95 L 875.40,180.95 L 876.35,180.95 L 877.30,180.95 L 878.25,180.95 L 879.20,180.95 L 880.15,180.96 L 881.10,180.96 L 882.05,180.96 L 883.00,180.96 L 883.95,180.96 L 884.90,180.96 L 885.85,180.96 L 886.80,180.96 L 887.75,180.96 L 888.70,180.97 L 889.65,180.97 L 890.60,180.97 L 891.55,180.98 L 892.50,180.99 L 893.45,180.99 L 894.40,181.01 L 895.35,181.02 L 896.30,181.03 L 897.25,181.05 L 898.20,181.07 L 899.15,181.10 L 900.10,181.14 L 901.05,181.18 L 902.00,181.22 L 902.95,181.28 L 903.90,181.35 L 904.85,181.43 L 905.80,181.52 L 906.75,181.63 L 907.70,181.76 L 908.65,181.91 L 909.60,182.09 L 910.55,182.29 L 911.50,182.53 L 912.45,182.80 L 913.40,183.11 L 914.35,183.46 L 915.30,183.86 L 916.25,184.31 L 917.20,184.82 L 918.15,185.40 L 919.10,186.04 L 920.05,186.76 L 921.00,187.55 L 921.95,188.44 L 922.90,189.41 L 923.85,190.48 L 924.80,191.64 L 925.75,192.92 L 926.70,194.30 L 927.65,195.80 L 928.60,197.42 L 929.55,199.15 L 930.50,201.01 L 931.45,202.99 L 932.40,205.09 L 933.35,207.31 L 934.30,209.66 L 935.25,212.12 L 936.20,214.70 L 937.15,217.38 L 938.10,220.17 L 939.05,223.06 L 940.00,226.03" />
  <line class="stem" x1="541.00" y1="316.00" x2="541.00" y2="292.13" />
  <circle class="dot" cx="541.00" cy="292.13" r="2.5" />
  <line class="stem" x1="554.30" y1="316.00" x2="554.30" y2="292.13" />
  <circle class="dot" cx="554.30" cy="292.13" r="2.5" />
  <line class="stem" x1="567.60" y1="316.00" x2="567.60" y2="292.13" />
  <circle class="dot" cx="567.60" cy="292.13" r="2.5" />
  <line class="stem" x1="580.90" y1="316.00" x2="580.90" y2="292.13" />
  <circle class="dot" cx="580.90" cy="292.13" r="2.5" />
  <line class="stem" x1="594.20" y1="316.00" x2="594.20" y2="292.13" />
  <circle class="dot" cx="594.20" cy="292.13" r="2.5" />
  <line class="stem" x1="607.50" y1="316.00" x2="607.50" y2="292.13" />
  <circle class="dot" cx="607.50" cy="292.13" r="2.5" />
  <line class="stem" x1="620.80" y1="316.00" x2="620.80" y2="292.13" />
  <circle class="dot" cx="620.80" cy="292.13" r="2.5" />
  <line class="stem" x1="634.10" y1="316.00" x2="634.10" y2="292.13" />
  <circle class="dot" cx="634.10" cy="292.13" r="2.5" />
  <line class="stem" x1="647.40" y1="316.00" x2="647.40" y2="292.13" />
  <circle class="dot" cx="647.40" cy="292.13" r="2.5" />
  <line class="stem" x1="660.70" y1="316.00" x2="660.70" y2="292.13" />
  <circle class="dot" cx="660.70" cy="292.13" r="2.5" />
  <line class="stem" x1="674.00" y1="316.00" x2="674.00" y2="292.13" />
  <circle class="dot" cx="674.00" cy="292.13" r="2.5" />
  <line class="stem" x1="687.30" y1="316.00" x2="687.30" y2="292.13" />
  <circle class="dot" cx="687.30" cy="292.13" r="2.5" />
  <line class="stem" x1="700.60" y1="316.00" x2="700.60" y2="292.13" />
  <circle class="dot" cx="700.60" cy="292.13" r="2.5" />
  <line class="stem" x1="713.90" y1="316.00" x2="713.90" y2="292.13" />
  <circle class="dot" cx="713.90" cy="292.13" r="2.5" />
  <line class="stem" x1="727.20" y1="316.00" x2="727.20" y2="292.13" />
  <circle class="dot" cx="727.20" cy="292.13" r="2.5" />
  <line class="stem" x1="740.50" y1="316.00" x2="740.50" y2="292.13" />
  <circle class="dot" cx="740.50" cy="292.13" r="2.5" />
  <line class="stem" x1="753.80" y1="316.00" x2="753.80" y2="292.13" />
  <circle class="dot" cx="753.80" cy="292.13" r="2.5" />
  <line class="stem" x1="767.10" y1="316.00" x2="767.10" y2="292.13" />
  <circle class="dot" cx="767.10" cy="292.13" r="2.5" />
  <line class="stem" x1="780.40" y1="316.00" x2="780.40" y2="292.13" />
  <circle class="dot" cx="780.40" cy="292.13" r="2.5" />
  <line class="stem" x1="793.70" y1="316.00" x2="793.70" y2="292.13" />
  <circle class="dot" cx="793.70" cy="292.13" r="2.5" />
  <line class="stem" x1="807.00" y1="316.00" x2="807.00" y2="292.13" />
  <circle class="dot" cx="807.00" cy="292.13" r="2.5" />
  <line class="stem" x1="820.30" y1="316.00" x2="820.30" y2="292.13" />
  <circle class="dot" cx="820.30" cy="292.13" r="2.5" />
  <line class="stem" x1="833.60" y1="316.00" x2="833.60" y2="292.13" />
  <circle class="dot" cx="833.60" cy="292.13" r="2.5" />
  <line class="stem" x1="846.90" y1="316.00" x2="846.90" y2="292.13" />
  <circle class="dot" cx="846.90" cy="292.13" r="2.5" />
  <line class="stem" x1="860.20" y1="316.00" x2="860.20" y2="292.13" />
  <circle class="dot" cx="860.20" cy="292.13" r="2.5" />
  <line class="stem" x1="873.50" y1="316.00" x2="873.50" y2="292.13" />
  <circle class="dot" cx="873.50" cy="292.13" r="2.5" />
  <line class="stem" x1="886.80" y1="316.00" x2="886.80" y2="292.13" />
  <circle class="dot" cx="886.80" cy="292.13" r="2.5" />
  <line class="stem" x1="900.10" y1="316.00" x2="900.10" y2="292.13" />
  <circle class="dot" cx="900.10" cy="292.13" r="2.5" />
  <line class="stem" x1="913.40" y1="316.00" x2="913.40" y2="292.13" />
  <circle class="dot" cx="913.40" cy="292.13" r="2.5" />
  <line class="stem" x1="926.70" y1="316.00" x2="926.70" y2="292.13" />
  <circle class="dot" cx="926.70" cy="292.13" r="2.5" />
  <line class="stem" x1="940.00" y1="316.00" x2="940.00" y2="292.13" />
  <circle class="dot" cx="940.00" cy="292.13" r="2.5" />
  <line class="truth" x1="541.00" y1="379.00" x2="571.00" y2="379.00" />
  <text class="small" x="579.00" y="383.00">uniform reference</text>
  <line class="coverage" x1="701.00" y1="379.00" x2="731.00" y2="379.00" />
  <text class="small" x="739.00" y="383.00">normalized Kq</text>
  <text class="small" x="541.00" y="404.00">ordinary CE = ∞</text>
</svg>
