<?xml version="1.0" encoding="UTF-8"?>
<svg xmlns="http://www.w3.org/2000/svg" viewBox="0 0 980.00 430.00" role="img">
  <title>Two ordinary MLE candidates for a wrapped Gaussian model</title>
  <style>
    text { font-family: 'Crimson Pro', 'Times New Roman', serif; fill: #5b6673; }
    .label { font-size: 14px; font-weight: 600; }
    .small { font-size: 12px; }
    .axis-label { fill: #5b6673; }
    .accent-text { fill: #8b3a3a; }
    .axis { stroke: #1f2a37; stroke-opacity: 0.35; stroke-width: 1.2; }
    .grid { stroke: #1f2a37; stroke-opacity: 0.12; stroke-width: 1; }
    .muted-curve { stroke: #5b6673; stroke-opacity: 0.58; stroke-width: 1.8; fill: none; stroke-dasharray: 5 5; }
    .density-fill { fill: #8b3a3a; fill-opacity: 0.32; stroke: none; }
  </style>
  <rect x="0" y="0" width="980.00" height="430.00" fill="#ffffff" />
  <text class="label" x="64.00" y="34.00" fill="#1f2a37">Off-center candidate</text>
  <text class="small" x="64.00" y="52.00">one member of the ordinary MLE family</text>
  <rect x="64.00" y="64.00" width="399.00" height="252.00" fill="none" stroke="#000000" stroke-opacity="0.05" />
  <line class="axis" x1="64.00" y1="316.00" x2="463.00" y2="316.00" />
  <line class="axis" x1="64.00" y1="64.00" x2="64.00" y2="316.00" />
  <line class="grid" x1="64.00" y1="256.71" x2="463.00" y2="256.71" />
  <text class="small" x="32.00" y="260.71">1</text>
  <line class="grid" x1="64.00" y1="197.41" x2="463.00" y2="197.41" />
  <text class="small" x="32.00" y="201.41">2</text>
  <line class="grid" x1="64.00" y1="138.12" x2="463.00" y2="138.12" />
  <text class="small" x="32.00" y="142.12">3</text>
  <line class="grid" x1="64.00" y1="78.82" x2="463.00" y2="78.82" />
  <text class="small" x="32.00" y="82.82">4</text>
  <text class="small" x="46.00" y="320.00">0</text>
  <line class="axis" x1="64.00" y1="316.00" x2="64.00" y2="322.00" />
  <text class="small" x="57.00" y="340.00">0</text>
  <line class="axis" x1="263.50" y1="316.00" x2="263.50" y2="322.00" />
  <text class="small" x="256.50" y="340.00">0.5</text>
  <line class="axis" x1="463.00" y1="316.00" x2="463.00" y2="322.00" />
  <text class="small" x="456.00" y="340.00">1</text>
  <text class="small axis-label" x="14.00" y="190.00" text-anchor="middle" transform="rotate(-90 14.00 190.00)">density</text>
  <text class="small" x="259.50" y="360.00">x</text>
  <path class="density-fill" d="M 64.00,316.00 L 64.00,315.36 L 65.11,315.29 L 66.22,315.22 L 67.33,315.15 L 68.43,315.06 L 69.54,314.97 L 70.65,314.88 L 71.76,314.77 L 72.87,314.65 L 73.97,314.53 L 75.08,314.39 L 76.19,314.25 L 77.30,314.09 L 78.41,313.92 L 79.52,313.73 L 80.63,313.53 L 81.73,313.32 L 82.84,313.09 L 83.95,312.84 L 85.06,312.57 L 86.17,312.28 L 87.28,311.97 L 88.38,311.64 L 89.49,311.29 L 90.60,310.91 L 91.71,310.50 L 92.82,310.07 L 93.92,309.61 L 95.03,309.12 L 96.14,308.59 L 97.25,308.03 L 98.36,307.44 L 99.47,306.81 L 100.57,306.14 L 101.68,305.42 L 102.79,304.67 L 103.90,303.87 L 105.01,303.03 L 106.12,302.14 L 107.22,301.19 L 108.33,300.20 L 109.44,299.15 L 110.55,298.05 L 111.66,296.88 L 112.77,295.66 L 113.88,294.38 L 114.98,293.04 L 116.09,291.62 L 117.20,290.15 L 118.31,288.60 L 119.42,286.99 L 120.53,285.30 L 121.63,283.54 L 122.74,281.71 L 123.85,279.79 L 124.96,277.81 L 126.07,275.74 L 127.17,273.60 L 128.28,271.37 L 129.39,269.07 L 130.50,266.68 L 131.61,264.22 L 132.72,261.67 L 133.82,259.04 L 134.93,256.33 L 136.04,253.54 L 137.15,250.67 L 138.26,247.72 L 139.37,244.69 L 140.48,241.58 L 141.58,238.40 L 142.69,235.15 L 143.80,231.82 L 144.91,228.42 L 146.02,224.96 L 147.13,221.44 L 148.23,217.85 L 149.34,214.20 L 150.45,210.51 L 151.56,206.76 L 152.67,202.96 L 153.78,199.13 L 154.88,195.26 L 155.99,191.35 L 157.10,187.42 L 158.21,183.46 L 159.32,179.49 L 160.43,175.51 L 161.53,171.53 L 162.64,167.55 L 163.75,163.57 L 164.86,159.61 L 165.97,155.67 L 167.08,151.76 L 168.18,147.88 L 169.29,144.04 L 170.40,140.25 L 171.51,136.52 L 172.62,132.84 L 173.73,129.24 L 174.83,125.71 L 175.94,122.27 L 177.05,118.91 L 178.16,115.65 L 179.27,112.50 L 180.38,109.45 L 181.48,106.52 L 182.59,103.72 L 183.70,101.04 L 184.81,98.50 L 185.92,96.09 L 187.03,93.83 L 188.13,91.72 L 189.24,89.77 L 190.35,87.97 L 191.46,86.34 L 192.57,84.87 L 193.68,83.57 L 194.78,82.45 L 195.89,81.50 L 197.00,80.73 L 198.11,80.14 L 199.22,79.73 L 200.33,79.50 L 201.43,79.46 L 202.54,79.59 L 203.65,79.91 L 204.76,80.41 L 205.87,81.09 L 206.97,81.95 L 208.08,82.99 L 209.19,84.20 L 210.30,85.58 L 211.41,87.13 L 212.52,88.85 L 213.63,90.72 L 214.73,92.76 L 215.84,94.94 L 216.95,97.28 L 218.06,99.75 L 219.17,102.36 L 220.28,105.11 L 221.38,107.97 L 222.49,110.96 L 223.60,114.06 L 224.71,117.27 L 225.82,120.58 L 226.92,123.98 L 228.03,127.47 L 229.14,131.03 L 230.25,134.67 L 231.36,138.38 L 232.47,142.14 L 233.57,145.95 L 234.68,149.81 L 235.79,153.71 L 236.90,157.64 L 238.01,161.59 L 239.12,165.56 L 240.22,169.54 L 241.33,173.52 L 242.44,177.51 L 243.55,181.48 L 244.66,185.44 L 245.77,189.39 L 246.88,193.31 L 247.98,197.20 L 249.09,201.05 L 250.20,204.87 L 251.31,208.64 L 252.42,212.36 L 253.52,216.03 L 254.63,219.65 L 255.74,223.21 L 256.85,226.70 L 257.96,230.13 L 259.07,233.49 L 260.17,236.78 L 261.28,240.00 L 262.39,243.15 L 263.50,246.21 L 264.61,249.20 L 265.72,252.11 L 266.82,254.95 L 267.93,257.70 L 269.04,260.37 L 270.15,262.95 L 271.26,265.46 L 272.37,267.89 L 273.48,270.23 L 274.58,272.50 L 275.69,274.68 L 276.80,276.78 L 277.91,278.81 L 279.02,280.76 L 280.13,282.63 L 281.23,284.43 L 282.34,286.15 L 283.45,287.80 L 284.56,289.38 L 285.67,290.89 L 286.77,292.34 L 287.88,293.72 L 288.99,295.03 L 290.10,296.28 L 291.21,297.47 L 292.32,298.61 L 293.42,299.68 L 294.53,300.70 L 295.64,301.67 L 296.75,302.59 L 297.86,303.46 L 298.97,304.28 L 300.08,305.05 L 301.18,305.79 L 302.29,306.48 L 303.40,307.13 L 304.51,307.74 L 305.62,308.32 L 306.72,308.86 L 307.83,309.37 L 308.94,309.84 L 310.05,310.29 L 311.16,310.71 L 312.27,311.10 L 313.38,311.47 L 314.48,311.81 L 315.59,312.13 L 316.70,312.43 L 317.81,312.71 L 318.92,312.96 L 320.03,313.20 L 321.13,313.43 L 322.24,313.63 L 323.35,313.83 L 324.46,314.00 L 325.57,314.17 L 326.68,314.32 L 327.78,314.46 L 328.89,314.59 L 330.00,314.71 L 331.11,314.82 L 332.22,314.93 L 333.33,315.02 L 334.43,315.11 L 335.54,315.19 L 336.65,315.26 L 337.76,315.33 L 338.87,315.39 L 339.97,315.44 L 341.08,315.49 L 342.19,315.54 L 343.30,315.59 L 344.41,315.62 L 345.52,315.66 L 346.63,315.69 L 347.73,315.72 L 348.84,315.75 L 349.95,315.77 L 351.06,315.80 L 352.17,315.82 L 353.27,315.83 L 354.38,315.85 L 355.49,315.87 L 356.60,315.88 L 357.71,315.89 L 358.82,315.90 L 359.93,315.91 L 361.03,315.92 L 362.14,315.93 L 363.25,315.94 L 364.36,315.94 L 365.47,315.95 L 366.57,315.96 L 367.68,315.96 L 368.79,315.97 L 369.90,315.97 L 371.01,315.97 L 372.12,315.98 L 373.23,315.98 L 374.33,315.98 L 375.44,315.98 L 376.55,315.98 L 377.66,315.99 L 378.77,315.99 L 379.88,315.99 L 380.98,315.99 L 382.09,315.99 L 383.20,315.99 L 384.31,315.99 L 385.42,315.99 L 386.53,315.99 L 387.63,316.00 L 388.74,316.00 L 389.85,316.00 L 390.96,316.00 L 392.07,316.00 L 393.17,316.00 L 394.28,316.00 L 395.39,316.00 L 396.50,316.00 L 397.61,316.00 L 398.72,316.00 L 399.82,316.00 L 400.93,316.00 L 402.04,316.00 L 403.15,316.00 L 404.26,316.00 L 405.37,316.00 L 406.47,316.00 L 407.58,316.00 L 408.69,316.00 L 409.80,316.00 L 410.91,316.00 L 412.02,316.00 L 413.13,316.00 L 414.23,316.00 L 415.34,315.99 L 416.45,315.99 L 417.56,315.99 L 418.67,315.99 L 419.78,315.99 L 420.88,315.99 L 421.99,315.99 L 423.10,315.99 L 424.21,315.99 L 425.32,315.98 L 426.43,315.98 L 427.53,315.98 L 428.64,315.98 L 429.75,315.97 L 430.86,315.97 L 431.97,315.97 L 433.08,315.96 L 434.18,315.96 L 435.29,315.95 L 436.40,315.95 L 437.51,315.94 L 438.62,315.93 L 439.72,315.93 L 440.83,315.92 L 441.94,315.91 L 443.05,315.90 L 444.16,315.89 L 445.27,315.87 L 446.38,315.86 L 447.48,315.84 L 448.59,315.83 L 449.70,315.81 L 450.81,315.79 L 451.92,315.76 L 453.02,315.74 L 454.13,315.71 L 455.24,315.68 L 456.35,315.64 L 457.46,315.61 L 458.57,315.56 L 459.68,315.52 L 460.78,315.47 L 461.89,315.42 L 463.00,315.36 L 463.00,316.00 Z" />
  <path class="muted-curve" d="M 64.00,256.71 L 65.11,256.71 L 66.22,256.71 L 67.33,256.71 L 68.43,256.71 L 69.54,256.71 L 70.65,256.71 L 71.76,256.71 L 72.87,256.71 L 73.97,256.71 L 75.08,256.71 L 76.19,256.71 L 77.30,256.71 L 78.41,256.71 L 79.52,256.71 L 80.63,256.71 L 81.73,256.71 L 82.84,256.71 L 83.95,256.71 L 85.06,256.71 L 86.17,256.71 L 87.28,256.71 L 88.38,256.71 L 89.49,256.71 L 90.60,256.71 L 91.71,256.71 L 92.82,256.71 L 93.92,256.71 L 95.03,256.71 L 96.14,256.71 L 97.25,256.71 L 98.36,256.71 L 99.47,256.71 L 100.57,256.71 L 101.68,256.71 L 102.79,256.71 L 103.90,256.71 L 105.01,256.71 L 106.12,256.71 L 107.22,256.71 L 108.33,256.71 L 109.44,256.71 L 110.55,256.71 L 111.66,256.71 L 112.77,256.71 L 113.88,256.71 L 114.98,256.71 L 116.09,256.71 L 117.20,256.71 L 118.31,256.71 L 119.42,256.71 L 120.53,256.71 L 121.63,256.71 L 122.74,256.71 L 123.85,256.71 L 124.96,256.71 L 126.07,256.71 L 127.17,256.71 L 128.28,256.71 L 129.39,256.71 L 130.50,256.71 L 131.61,256.71 L 132.72,256.71 L 133.82,256.71 L 134.93,256.71 L 136.04,256.71 L 137.15,256.71 L 138.26,256.71 L 139.37,256.71 L 140.48,256.71 L 141.58,256.71 L 142.69,256.71 L 143.80,256.71 L 144.91,256.71 L 146.02,256.71 L 147.13,256.71 L 148.23,256.71 L 149.34,256.71 L 150.45,256.71 L 151.56,256.71 L 152.67,256.71 L 153.78,256.71 L 154.88,256.71 L 155.99,256.71 L 157.10,256.71 L 158.21,256.71 L 159.32,256.71 L 160.43,256.71 L 161.53,256.71 L 162.64,256.71 L 163.75,256.71 L 164.86,256.71 L 165.97,256.71 L 167.08,256.71 L 168.18,256.71 L 169.29,256.71 L 170.40,256.71 L 171.51,256.71 L 172.62,256.71 L 173.73,256.71 L 174.83,256.71 L 175.94,256.71 L 177.05,256.71 L 178.16,256.71 L 179.27,256.71 L 180.38,256.71 L 181.48,256.71 L 182.59,256.71 L 183.70,256.71 L 184.81,256.71 L 185.92,256.71 L 187.03,256.71 L 188.13,256.71 L 189.24,256.71 L 190.35,256.71 L 191.46,256.71 L 192.57,256.71 L 193.68,256.71 L 194.78,256.71 L 195.89,256.71 L 197.00,256.71 L 198.11,256.71 L 199.22,256.71 L 200.33,256.71 L 201.43,256.71 L 202.54,256.71 L 203.65,256.71 L 204.76,256.71 L 205.87,256.71 L 206.97,256.71 L 208.08,256.71 L 209.19,256.71 L 210.30,256.71 L 211.41,256.71 L 212.52,256.71 L 213.63,256.71 L 214.73,256.71 L 215.84,256.71 L 216.95,256.71 L 218.06,256.71 L 219.17,256.71 L 220.28,256.71 L 221.38,256.71 L 222.49,256.71 L 223.60,256.71 L 224.71,256.71 L 225.82,256.71 L 226.92,256.71 L 228.03,256.71 L 229.14,256.71 L 230.25,256.71 L 231.36,256.71 L 232.47,256.71 L 233.57,256.71 L 234.68,256.71 L 235.79,256.71 L 236.90,256.71 L 238.01,256.71 L 239.12,256.71 L 240.22,256.71 L 241.33,256.71 L 242.44,256.71 L 243.55,256.71 L 244.66,256.71 L 245.77,256.71 L 246.88,256.71 L 247.98,256.71 L 249.09,256.71 L 250.20,256.71 L 251.31,256.71 L 252.42,256.71 L 253.52,256.71 L 254.63,256.71 L 255.74,256.71 L 256.85,256.71 L 257.96,256.71 L 259.07,256.71 L 260.17,256.71 L 261.28,256.71 L 262.39,256.71 L 263.50,256.71 L 264.61,256.71 L 265.72,256.71 L 266.82,256.71 L 267.93,256.71 L 269.04,256.71 L 270.15,256.71 L 271.26,256.71 L 272.37,256.71 L 273.48,256.71 L 274.58,256.71 L 275.69,256.71 L 276.80,256.71 L 277.91,256.71 L 279.02,256.71 L 280.13,256.71 L 281.23,256.71 L 282.34,256.71 L 283.45,256.71 L 284.56,256.71 L 285.67,256.71 L 286.77,256.71 L 287.88,256.71 L 288.99,256.71 L 290.10,256.71 L 291.21,256.71 L 292.32,256.71 L 293.42,256.71 L 294.53,256.71 L 295.64,256.71 L 296.75,256.71 L 297.86,256.71 L 298.97,256.71 L 300.08,256.71 L 301.18,256.71 L 302.29,256.71 L 303.40,256.71 L 304.51,256.71 L 305.62,256.71 L 306.72,256.71 L 307.83,256.71 L 308.94,256.71 L 310.05,256.71 L 311.16,256.71 L 312.27,256.71 L 313.38,256.71 L 314.48,256.71 L 315.59,256.71 L 316.70,256.71 L 317.81,256.71 L 318.92,256.71 L 320.03,256.71 L 321.13,256.71 L 322.24,256.71 L 323.35,256.71 L 324.46,256.71 L 325.57,256.71 L 326.68,256.71 L 327.78,256.71 L 328.89,256.71 L 330.00,256.71 L 331.11,256.71 L 332.22,256.71 L 333.33,256.71 L 334.43,256.71 L 335.54,256.71 L 336.65,256.71 L 337.76,256.71 L 338.87,256.71 L 339.97,256.71 L 341.08,256.71 L 342.19,256.71 L 343.30,256.71 L 344.41,256.71 L 345.52,256.71 L 346.63,256.71 L 347.73,256.71 L 348.84,256.71 L 349.95,256.71 L 351.06,256.71 L 352.17,256.71 L 353.27,256.71 L 354.38,256.71 L 355.49,256.71 L 356.60,256.71 L 357.71,256.71 L 358.82,256.71 L 359.93,256.71 L 361.03,256.71 L 362.14,256.71 L 363.25,256.71 L 364.36,256.71 L 365.47,256.71 L 366.57,256.71 L 367.68,256.71 L 368.79,256.71 L 369.90,256.71 L 371.01,256.71 L 372.12,256.71 L 373.23,256.71 L 374.33,256.71 L 375.44,256.71 L 376.55,256.71 L 377.66,256.71 L 378.77,256.71 L 379.88,256.71 L 380.98,256.71 L 382.09,256.71 L 383.20,256.71 L 384.31,256.71 L 385.42,256.71 L 386.53,256.71 L 387.63,256.71 L 388.74,256.71 L 389.85,256.71 L 390.96,256.71 L 392.07,256.71 L 393.17,256.71 L 394.28,256.71 L 395.39,256.71 L 396.50,256.71 L 397.61,256.71 L 398.72,256.71 L 399.82,256.71 L 400.93,256.71 L 402.04,256.71 L 403.15,256.71 L 404.26,256.71 L 405.37,256.71 L 406.47,256.71 L 407.58,256.71 L 408.69,256.71 L 409.80,256.71 L 410.91,256.71 L 412.02,256.71 L 413.13,256.71 L 414.23,256.71 L 415.34,256.71 L 416.45,256.71 L 417.56,256.71 L 418.67,256.71 L 419.78,256.71 L 420.88,256.71 L 421.99,256.71 L 423.10,256.71 L 424.21,256.71 L 425.32,256.71 L 426.43,256.71 L 427.53,256.71 L 428.64,256.71 L 429.75,256.71 L 430.86,256.71 L 431.97,256.71 L 433.08,256.71 L 434.18,256.71 L 435.29,256.71 L 436.40,256.71 L 437.51,256.71 L 438.62,256.71 L 439.72,256.71 L 440.83,256.71 L 441.94,256.71 L 443.05,256.71 L 444.16,256.71 L 445.27,256.71 L 446.38,256.71 L 447.48,256.71 L 448.59,256.71 L 449.70,256.71 L 450.81,256.71 L 451.92,256.71 L 453.02,256.71 L 454.13,256.71 L 455.24,256.71 L 456.35,256.71 L 457.46,256.71 L 458.57,256.71 L 459.68,256.71 L 460.78,256.71 L 461.89,256.71 L 463.00,256.71" />
  <line class="muted-curve" x1="64.00" y1="379.00" x2="94.00" y2="379.00" />
  <text class="small" x="102.00" y="383.00">uniform P</text>
  <rect class="density-fill" x="192.00" y="370.00" width="30.00" height="12.00" />
  <text class="small" x="230.00" y="383.00">q(x; μ = 0.34)</text>
  <text class="small" x="64.00" y="404.00">ordinary CE = 2.767</text>
  <text class="label" x="541.00" y="34.00" fill="#1f2a37">Centered candidate</text>
  <text class="small" x="541.00" y="52.00">same ordinary likelihood</text>
  <rect x="541.00" y="64.00" width="399.00" height="252.00" fill="none" stroke="#000000" stroke-opacity="0.05" />
  <line class="axis" x1="541.00" y1="316.00" x2="940.00" y2="316.00" />
  <line class="axis" x1="541.00" y1="64.00" x2="541.00" y2="316.00" />
  <line class="grid" x1="541.00" y1="256.71" x2="940.00" y2="256.71" />
  <text class="small" x="509.00" y="260.71">1</text>
  <line class="grid" x1="541.00" y1="197.41" x2="940.00" y2="197.41" />
  <text class="small" x="509.00" y="201.41">2</text>
  <line class="grid" x1="541.00" y1="138.12" x2="940.00" y2="138.12" />
  <text class="small" x="509.00" y="142.12">3</text>
  <line class="grid" x1="541.00" y1="78.82" x2="940.00" y2="78.82" />
  <text class="small" x="509.00" y="82.82">4</text>
  <text class="small" x="523.00" y="320.00">0</text>
  <line class="axis" x1="541.00" y1="316.00" x2="541.00" y2="322.00" />
  <text class="small" x="534.00" y="340.00">0</text>
  <line class="axis" x1="740.50" y1="316.00" x2="740.50" y2="322.00" />
  <text class="small" x="733.50" y="340.00">0.5</text>
  <line class="axis" x1="940.00" y1="316.00" x2="940.00" y2="322.00" />
  <text class="small" x="933.00" y="340.00">1</text>
  <text class="small" x="736.50" y="360.00">x</text>
  <path class="density-fill" d="M 541.00,316.00 L 541.00,316.00 L 542.11,316.00 L 543.22,316.00 L 544.33,316.00 L 545.43,316.00 L 546.54,316.00 L 547.65,316.00 L 548.76,316.00 L 549.87,316.00 L 550.98,316.00 L 552.08,316.00 L 553.19,316.00 L 554.30,316.00 L 555.41,315.99 L 556.52,315.99 L 557.63,315.99 L 558.73,315.99 L 559.84,315.99 L 560.95,315.99 L 562.06,315.99 L 563.17,315.99 L 564.27,315.99 L 565.38,315.98 L 566.49,315.98 L 567.60,315.98 L 568.71,315.98 L 569.82,315.97 L 570.92,315.97 L 572.03,315.97 L 573.14,315.96 L 574.25,315.96 L 575.36,315.95 L 576.47,315.95 L 577.58,315.94 L 578.68,315.94 L 579.79,315.93 L 580.90,315.92 L 582.01,315.91 L 583.12,315.90 L 584.23,315.89 L 585.33,315.88 L 586.44,315.86 L 587.55,315.85 L 588.66,315.83 L 589.77,315.81 L 590.88,315.79 L 591.98,315.77 L 593.09,315.74 L 594.20,315.72 L 595.31,315.68 L 596.42,315.65 L 597.52,315.61 L 598.63,315.57 L 599.74,315.53 L 600.85,315.48 L 601.96,315.43 L 603.07,315.37 L 604.17,315.31 L 605.28,315.24 L 606.39,315.17 L 607.50,315.09 L 608.61,315.00 L 609.72,314.90 L 610.83,314.80 L 611.93,314.68 L 613.04,314.56 L 614.15,314.43 L 615.26,314.28 L 616.37,314.13 L 617.48,313.96 L 618.58,313.78 L 619.69,313.58 L 620.80,313.37 L 621.91,313.14 L 623.02,312.90 L 624.13,312.64 L 625.23,312.36 L 626.34,312.05 L 627.45,311.73 L 628.56,311.38 L 629.67,311.01 L 630.77,310.61 L 631.88,310.18 L 632.99,309.73 L 634.10,309.24 L 635.21,308.73 L 636.32,308.18 L 637.42,307.59 L 638.53,306.97 L 639.64,306.31 L 640.75,305.61 L 641.86,304.86 L 642.97,304.08 L 644.08,303.24 L 645.18,302.36 L 646.29,301.43 L 647.40,300.45 L 648.51,299.42 L 649.62,298.33 L 650.73,297.18 L 651.83,295.97 L 652.94,294.71 L 654.05,293.38 L 655.16,291.98 L 656.27,290.52 L 657.38,289.00 L 658.48,287.40 L 659.59,285.73 L 660.70,283.99 L 661.81,282.17 L 662.92,280.28 L 664.02,278.31 L 665.13,276.27 L 666.24,274.14 L 667.35,271.94 L 668.46,269.65 L 669.57,267.29 L 670.67,264.84 L 671.78,262.32 L 672.89,259.71 L 674.00,257.02 L 675.11,254.24 L 676.22,251.39 L 677.33,248.46 L 678.43,245.45 L 679.54,242.37 L 680.65,239.20 L 681.76,235.97 L 682.87,232.66 L 683.98,229.28 L 685.08,225.83 L 686.19,222.32 L 687.30,218.75 L 688.41,215.12 L 689.52,211.44 L 690.63,207.70 L 691.73,203.92 L 692.84,200.09 L 693.95,196.23 L 695.06,192.33 L 696.17,188.40 L 697.27,184.45 L 698.38,180.49 L 699.49,176.51 L 700.60,172.53 L 701.71,168.54 L 702.82,164.56 L 703.92,160.60 L 705.03,156.65 L 706.14,152.73 L 707.25,148.84 L 708.36,144.99 L 709.47,141.19 L 710.58,137.44 L 711.68,133.75 L 712.79,130.13 L 713.90,126.59 L 715.01,123.12 L 716.12,119.74 L 717.23,116.46 L 718.33,113.28 L 719.44,110.20 L 720.55,107.25 L 721.66,104.41 L 722.77,101.70 L 723.88,99.12 L 724.98,96.68 L 726.09,94.38 L 727.20,92.23 L 728.31,90.24 L 729.42,88.40 L 730.52,86.73 L 731.63,85.22 L 732.74,83.88 L 733.85,82.71 L 734.96,81.72 L 736.07,80.91 L 737.17,80.27 L 738.28,79.82 L 739.39,79.54 L 740.50,79.45 L 741.61,79.54 L 742.72,79.82 L 743.83,80.27 L 744.93,80.91 L 746.04,81.72 L 747.15,82.71 L 748.26,83.88 L 749.37,85.22 L 750.48,86.73 L 751.58,88.40 L 752.69,90.24 L 753.80,92.23 L 754.91,94.38 L 756.02,96.68 L 757.13,99.12 L 758.23,101.70 L 759.34,104.41 L 760.45,107.25 L 761.56,110.20 L 762.67,113.28 L 763.77,116.46 L 764.88,119.74 L 765.99,123.12 L 767.10,126.59 L 768.21,130.13 L 769.32,133.75 L 770.42,137.44 L 771.53,141.19 L 772.64,144.99 L 773.75,148.84 L 774.86,152.73 L 775.97,156.65 L 777.08,160.60 L 778.18,164.56 L 779.29,168.54 L 780.40,172.53 L 781.51,176.51 L 782.62,180.49 L 783.72,184.45 L 784.83,188.40 L 785.94,192.33 L 787.05,196.23 L 788.16,200.09 L 789.27,203.92 L 790.38,207.70 L 791.48,211.44 L 792.59,215.12 L 793.70,218.75 L 794.81,222.32 L 795.92,225.83 L 797.03,229.28 L 798.13,232.66 L 799.24,235.97 L 800.35,239.20 L 801.46,242.37 L 802.57,245.45 L 803.67,248.46 L 804.78,251.39 L 805.89,254.24 L 807.00,257.02 L 808.11,259.71 L 809.22,262.32 L 810.33,264.84 L 811.43,267.29 L 812.54,269.65 L 813.65,271.94 L 814.76,274.14 L 815.87,276.27 L 816.97,278.31 L 818.08,280.28 L 819.19,282.17 L 820.30,283.99 L 821.41,285.73 L 822.52,287.40 L 823.63,289.00 L 824.73,290.52 L 825.84,291.98 L 826.95,293.38 L 828.06,294.71 L 829.17,295.97 L 830.27,297.18 L 831.38,298.33 L 832.49,299.42 L 833.60,300.45 L 834.71,301.43 L 835.82,302.36 L 836.92,303.24 L 838.03,304.08 L 839.14,304.86 L 840.25,305.61 L 841.36,306.31 L 842.47,306.97 L 843.58,307.59 L 844.68,308.18 L 845.79,308.73 L 846.90,309.24 L 848.01,309.73 L 849.12,310.18 L 850.23,310.61 L 851.33,311.01 L 852.44,311.38 L 853.55,311.73 L 854.66,312.05 L 855.77,312.36 L 856.88,312.64 L 857.98,312.90 L 859.09,313.14 L 860.20,313.37 L 861.31,313.58 L 862.42,313.78 L 863.53,313.96 L 864.63,314.13 L 865.74,314.28 L 866.85,314.43 L 867.96,314.56 L 869.07,314.68 L 870.17,314.80 L 871.28,314.90 L 872.39,315.00 L 873.50,315.09 L 874.61,315.17 L 875.72,315.24 L 876.83,315.31 L 877.93,315.37 L 879.04,315.43 L 880.15,315.48 L 881.26,315.53 L 882.37,315.57 L 883.47,315.61 L 884.58,315.65 L 885.69,315.68 L 886.80,315.72 L 887.91,315.74 L 889.02,315.77 L 890.13,315.79 L 891.23,315.81 L 892.34,315.83 L 893.45,315.85 L 894.56,315.86 L 895.67,315.88 L 896.78,315.89 L 897.88,315.90 L 898.99,315.91 L 900.10,315.92 L 901.21,315.93 L 902.32,315.94 L 903.42,315.94 L 904.53,315.95 L 905.64,315.95 L 906.75,315.96 L 907.86,315.96 L 908.97,315.97 L 910.08,315.97 L 911.18,315.97 L 912.29,315.98 L 913.40,315.98 L 914.51,315.98 L 915.62,315.98 L 916.72,315.99 L 917.83,315.99 L 918.94,315.99 L 920.05,315.99 L 921.16,315.99 L 922.27,315.99 L 923.38,315.99 L 924.48,315.99 L 925.59,315.99 L 926.70,316.00 L 927.81,316.00 L 928.92,316.00 L 930.02,316.00 L 931.13,316.00 L 932.24,316.00 L 933.35,316.00 L 934.46,316.00 L 935.57,316.00 L 936.67,316.00 L 937.78,316.00 L 938.89,316.00 L 940.00,316.00 L 940.00,316.00 Z" />
  <path class="muted-curve" d="M 541.00,256.71 L 542.11,256.71 L 543.22,256.71 L 544.33,256.71 L 545.43,256.71 L 546.54,256.71 L 547.65,256.71 L 548.76,256.71 L 549.87,256.71 L 550.98,256.71 L 552.08,256.71 L 553.19,256.71 L 554.30,256.71 L 555.41,256.71 L 556.52,256.71 L 557.63,256.71 L 558.73,256.71 L 559.84,256.71 L 560.95,256.71 L 562.06,256.71 L 563.17,256.71 L 564.27,256.71 L 565.38,256.71 L 566.49,256.71 L 567.60,256.71 L 568.71,256.71 L 569.82,256.71 L 570.92,256.71 L 572.03,256.71 L 573.14,256.71 L 574.25,256.71 L 575.36,256.71 L 576.47,256.71 L 577.58,256.71 L 578.68,256.71 L 579.79,256.71 L 580.90,256.71 L 582.01,256.71 L 583.12,256.71 L 584.23,256.71 L 585.33,256.71 L 586.44,256.71 L 587.55,256.71 L 588.66,256.71 L 589.77,256.71 L 590.88,256.71 L 591.98,256.71 L 593.09,256.71 L 594.20,256.71 L 595.31,256.71 L 596.42,256.71 L 597.52,256.71 L 598.63,256.71 L 599.74,256.71 L 600.85,256.71 L 601.96,256.71 L 603.07,256.71 L 604.17,256.71 L 605.28,256.71 L 606.39,256.71 L 607.50,256.71 L 608.61,256.71 L 609.72,256.71 L 610.83,256.71 L 611.93,256.71 L 613.04,256.71 L 614.15,256.71 L 615.26,256.71 L 616.37,256.71 L 617.48,256.71 L 618.58,256.71 L 619.69,256.71 L 620.80,256.71 L 621.91,256.71 L 623.02,256.71 L 624.13,256.71 L 625.23,256.71 L 626.34,256.71 L 627.45,256.71 L 628.56,256.71 L 629.67,256.71 L 630.77,256.71 L 631.88,256.71 L 632.99,256.71 L 634.10,256.71 L 635.21,256.71 L 636.32,256.71 L 637.42,256.71 L 638.53,256.71 L 639.64,256.71 L 640.75,256.71 L 641.86,256.71 L 642.97,256.71 L 644.08,256.71 L 645.18,256.71 L 646.29,256.71 L 647.40,256.71 L 648.51,256.71 L 649.62,256.71 L 650.73,256.71 L 651.83,256.71 L 652.94,256.71 L 654.05,256.71 L 655.16,256.71 L 656.27,256.71 L 657.38,256.71 L 658.48,256.71 L 659.59,256.71 L 660.70,256.71 L 661.81,256.71 L 662.92,256.71 L 664.02,256.71 L 665.13,256.71 L 666.24,256.71 L 667.35,256.71 L 668.46,256.71 L 669.57,256.71 L 670.67,256.71 L 671.78,256.71 L 672.89,256.71 L 674.00,256.71 L 675.11,256.71 L 676.22,256.71 L 677.33,256.71 L 678.43,256.71 L 679.54,256.71 L 680.65,256.71 L 681.76,256.71 L 682.87,256.71 L 683.98,256.71 L 685.08,256.71 L 686.19,256.71 L 687.30,256.71 L 688.41,256.71 L 689.52,256.71 L 690.63,256.71 L 691.73,256.71 L 692.84,256.71 L 693.95,256.71 L 695.06,256.71 L 696.17,256.71 L 697.27,256.71 L 698.38,256.71 L 699.49,256.71 L 700.60,256.71 L 701.71,256.71 L 702.82,256.71 L 703.92,256.71 L 705.03,256.71 L 706.14,256.71 L 707.25,256.71 L 708.36,256.71 L 709.47,256.71 L 710.58,256.71 L 711.68,256.71 L 712.79,256.71 L 713.90,256.71 L 715.01,256.71 L 716.12,256.71 L 717.23,256.71 L 718.33,256.71 L 719.44,256.71 L 720.55,256.71 L 721.66,256.71 L 722.77,256.71 L 723.88,256.71 L 724.98,256.71 L 726.09,256.71 L 727.20,256.71 L 728.31,256.71 L 729.42,256.71 L 730.52,256.71 L 731.63,256.71 L 732.74,256.71 L 733.85,256.71 L 734.96,256.71 L 736.07,256.71 L 737.17,256.71 L 738.28,256.71 L 739.39,256.71 L 740.50,256.71 L 741.61,256.71 L 742.72,256.71 L 743.83,256.71 L 744.93,256.71 L 746.04,256.71 L 747.15,256.71 L 748.26,256.71 L 749.37,256.71 L 750.48,256.71 L 751.58,256.71 L 752.69,256.71 L 753.80,256.71 L 754.91,256.71 L 756.02,256.71 L 757.13,256.71 L 758.23,256.71 L 759.34,256.71 L 760.45,256.71 L 761.56,256.71 L 762.67,256.71 L 763.77,256.71 L 764.88,256.71 L 765.99,256.71 L 767.10,256.71 L 768.21,256.71 L 769.32,256.71 L 770.42,256.71 L 771.53,256.71 L 772.64,256.71 L 773.75,256.71 L 774.86,256.71 L 775.97,256.71 L 777.08,256.71 L 778.18,256.71 L 779.29,256.71 L 780.40,256.71 L 781.51,256.71 L 782.62,256.71 L 783.72,256.71 L 784.83,256.71 L 785.94,256.71 L 787.05,256.71 L 788.16,256.71 L 789.27,256.71 L 790.38,256.71 L 791.48,256.71 L 792.59,256.71 L 793.70,256.71 L 794.81,256.71 L 795.92,256.71 L 797.03,256.71 L 798.13,256.71 L 799.24,256.71 L 800.35,256.71 L 801.46,256.71 L 802.57,256.71 L 803.67,256.71 L 804.78,256.71 L 805.89,256.71 L 807.00,256.71 L 808.11,256.71 L 809.22,256.71 L 810.33,256.71 L 811.43,256.71 L 812.54,256.71 L 813.65,256.71 L 814.76,256.71 L 815.87,256.71 L 816.97,256.71 L 818.08,256.71 L 819.19,256.71 L 820.30,256.71 L 821.41,256.71 L 822.52,256.71 L 823.63,256.71 L 824.73,256.71 L 825.84,256.71 L 826.95,256.71 L 828.06,256.71 L 829.17,256.71 L 830.27,256.71 L 831.38,256.71 L 832.49,256.71 L 833.60,256.71 L 834.71,256.71 L 835.82,256.71 L 836.92,256.71 L 838.03,256.71 L 839.14,256.71 L 840.25,256.71 L 841.36,256.71 L 842.47,256.71 L 843.58,256.71 L 844.68,256.71 L 845.79,256.71 L 846.90,256.71 L 848.01,256.71 L 849.12,256.71 L 850.23,256.71 L 851.33,256.71 L 852.44,256.71 L 853.55,256.71 L 854.66,256.71 L 855.77,256.71 L 856.88,256.71 L 857.98,256.71 L 859.09,256.71 L 860.20,256.71 L 861.31,256.71 L 862.42,256.71 L 863.53,256.71 L 864.63,256.71 L 865.74,256.71 L 866.85,256.71 L 867.96,256.71 L 869.07,256.71 L 870.17,256.71 L 871.28,256.71 L 872.39,256.71 L 873.50,256.71 L 874.61,256.71 L 875.72,256.71 L 876.83,256.71 L 877.93,256.71 L 879.04,256.71 L 880.15,256.71 L 881.26,256.71 L 882.37,256.71 L 883.47,256.71 L 884.58,256.71 L 885.69,256.71 L 886.80,256.71 L 887.91,256.71 L 889.02,256.71 L 890.13,256.71 L 891.23,256.71 L 892.34,256.71 L 893.45,256.71 L 894.56,256.71 L 895.67,256.71 L 896.78,256.71 L 897.88,256.71 L 898.99,256.71 L 900.10,256.71 L 901.21,256.71 L 902.32,256.71 L 903.42,256.71 L 904.53,256.71 L 905.64,256.71 L 906.75,256.71 L 907.86,256.71 L 908.97,256.71 L 910.08,256.71 L 911.18,256.71 L 912.29,256.71 L 913.40,256.71 L 914.51,256.71 L 915.62,256.71 L 916.72,256.71 L 917.83,256.71 L 918.94,256.71 L 920.05,256.71 L 921.16,256.71 L 922.27,256.71 L 923.38,256.71 L 924.48,256.71 L 925.59,256.71 L 926.70,256.71 L 927.81,256.71 L 928.92,256.71 L 930.02,256.71 L 931.13,256.71 L 932.24,256.71 L 933.35,256.71 L 934.46,256.71 L 935.57,256.71 L 936.67,256.71 L 937.78,256.71 L 938.89,256.71 L 940.00,256.71" />
  <line class="muted-curve" x1="541.00" y1="379.00" x2="571.00" y2="379.00" />
  <text class="small" x="579.00" y="383.00">uniform P</text>
  <rect class="density-fill" x="669.00" y="370.00" width="30.00" height="12.00" />
  <text class="small" x="707.00" y="383.00">q(x; μ = 0.50)</text>
  <text class="small" x="541.00" y="404.00">ordinary CE = 2.767</text>
</svg>
