<?xml version="1.0" encoding="UTF-8"?>
<svg xmlns="http://www.w3.org/2000/svg" viewBox="0 0 980.00 430.00" role="img">
  <title>Gaussian mixture collapse under cross-entropy and K-cross-entropy</title>
  <style>
    text { font-family: 'Crimson Pro', 'Times New Roman', serif; fill: #5b6673; }
    .label { font-size: 14px; font-weight: 600; fill: #1f2a37; }
    .small { font-size: 12px; }
    .axis { stroke: #1f2a37; stroke-opacity: 0.35; stroke-width: 1.2; }
    .zero { stroke: #1f2a37; stroke-opacity: 0.22; stroke-width: 1.2; }
    .grid { stroke: #1f2a37; stroke-opacity: 0.12; stroke-width: 1; }
    .ce { stroke: #5b6673; stroke-opacity: 0.78; stroke-width: 2.1; fill: none; stroke-dasharray: 1.5 5; stroke-linecap: round; }
    .kline { stroke: #8b3a3a; stroke-opacity: 0.9; stroke-width: 2.3; fill: none; }
    .density-fill { fill: #8b3a3a; fill-opacity: 0.2; stroke: none; }
    .spike-marker { stroke: #5b6673; stroke-opacity: 0.55; stroke-width: 1.3; stroke-dasharray: 3 4; }
    .marker { stroke: #8b3a3a; stroke-opacity: 0.32; stroke-width: 1.2; stroke-dasharray: 4 4; }
    .floor-marker { stroke: #5b6673; stroke-opacity: 0.36; stroke-width: 1.2; stroke-dasharray: 4 4; }
    .dot { fill: #8b3a3a; fill-opacity: 0.88; stroke: #8b3a3a; stroke-opacity: 0.95; stroke-width: 1; }
  </style>
  <rect x="0" y="0" width="980.00" height="430.00" fill="#ffffff" />
  <defs>
    <clipPath id="density-clip"><rect x="64.00" y="64.00" width="399.00" height="250.00" /></clipPath>
  </defs>
  <text class="label" x="64.00" y="34.00">Optimized mixture fits</text>
  <text class="small" x="64.00" y="52.00">CE with a variance floor versus Gaussian K-CE</text>
  <rect x="64.00" y="64.00" width="399.00" height="250.00" fill="none" stroke="#000000" stroke-opacity="0.05" />
  <line class="axis" x1="64.00" y1="314.00" x2="463.00" y2="314.00" />
  <line class="axis" x1="64.00" y1="64.00" x2="64.00" y2="314.00" />
  <line class="grid" x1="64.00" y1="240.47" x2="463.00" y2="240.47" />
  <text class="small" x="36.00" y="244.47">1</text>
  <line class="grid" x1="64.00" y1="166.94" x2="463.00" y2="166.94" />
  <text class="small" x="36.00" y="170.94">2</text>
  <line class="grid" x1="64.00" y1="93.41" x2="463.00" y2="93.41" />
  <text class="small" x="36.00" y="97.41">3</text>
  <line class="axis" x1="73.50" y1="314.00" x2="73.50" y2="320.00" />
  <text class="small" x="63.50" y="338.00">-0.5</text>
  <line class="axis" x1="168.50" y1="314.00" x2="168.50" y2="320.00" />
  <text class="small" x="158.50" y="338.00">0</text>
  <line class="axis" x1="263.50" y1="314.00" x2="263.50" y2="320.00" />
  <text class="small" x="253.50" y="338.00">0.5</text>
  <line class="axis" x1="358.50" y1="314.00" x2="358.50" y2="320.00" />
  <text class="small" x="348.50" y="338.00">1</text>
  <line class="axis" x1="453.50" y1="314.00" x2="453.50" y2="320.00" />
  <text class="small" x="443.50" y="338.00">1.5</text>
  <text class="small" x="18.00" y="189.00" text-anchor="middle" transform="rotate(-90 18.00 189.00)">density</text>
  <text class="small" x="259.50" y="358.00">x</text>
  <g clip-path="url(#density-clip)">
    <path class="density-fill" d="M 64.00,308.65 L 64.59,308.43 L 65.18,308.21 L 65.76,307.99 L 66.35,307.75 L 66.94,307.51 L 67.53,307.26 L 68.11,307.00 L 68.70,306.73 L 69.29,306.46 L 69.88,306.18 L 70.46,305.89 L 71.05,305.59 L 71.64,305.28 L 72.23,304.96 L 72.81,304.64 L 73.40,304.30 L 73.99,303.96 L 74.58,303.60 L 75.16,303.24 L 75.75,302.87 L 76.34,302.48 L 76.93,302.09 L 77.52,301.69 L 78.10,301.28 L 78.69,300.85 L 79.28,300.42 L 79.87,299.98 L 80.45,299.52 L 81.04,299.06 L 81.63,298.58 L 82.22,298.09 L 82.80,297.60 L 83.39,297.09 L 83.98,296.57 L 84.57,296.04 L 85.15,295.49 L 85.74,294.94 L 86.33,294.38 L 86.92,293.80 L 87.51,293.21 L 88.09,292.61 L 88.68,292.00 L 89.27,291.38 L 89.86,290.75 L 90.44,290.11 L 91.03,289.45 L 91.62,288.79 L 92.21,288.11 L 92.79,287.42 L 93.38,286.72 L 93.97,286.01 L 94.56,285.29 L 95.14,284.56 L 95.73,283.82 L 96.32,283.07 L 96.91,282.31 L 97.49,281.54 L 98.08,280.76 L 98.67,279.96 L 99.26,279.16 L 99.85,278.35 L 100.43,277.54 L 101.02,276.71 L 101.61,275.87 L 102.20,275.03 L 102.78,274.18 L 103.37,273.32 L 103.96,272.45 L 104.55,271.58 L 105.13,270.70 L 105.72,269.81 L 106.31,268.92 L 106.90,268.02 L 107.48,267.11 L 108.07,266.21 L 108.66,265.29 L 109.25,264.38 L 109.84,263.45 L 110.42,262.53 L 111.01,261.60 L 111.60,260.68 L 112.19,259.75 L 112.77,258.81 L 113.36,257.88 L 113.95,256.95 L 114.54,256.01 L 115.12,255.08 L 115.71,254.15 L 116.30,253.22 L 116.89,252.30 L 117.47,251.37 L 118.06,250.45 L 118.65,249.53 L 119.24,248.62 L 119.82,247.71 L 120.41,246.81 L 121.00,245.91 L 121.59,245.03 L 122.18,244.14 L 122.76,243.27 L 123.35,242.40 L 123.94,241.55 L 124.53,240.70 L 125.11,239.86 L 125.70,239.04 L 126.29,238.22 L 126.88,237.42 L 127.46,236.63 L 128.05,235.85 L 128.64,235.09 L 129.23,234.34 L 129.81,233.60 L 130.40,232.88 L 130.99,232.18 L 131.58,231.49 L 132.16,230.81 L 132.75,230.16 L 133.34,229.52 L 133.93,228.90 L 134.52,228.30 L 135.10,227.72 L 135.69,227.16 L 136.28,226.62 L 136.87,226.10 L 137.45,225.60 L 138.04,225.12 L 138.63,224.66 L 139.22,224.23 L 139.80,223.81 L 140.39,223.42 L 140.98,223.05 L 141.57,222.71 L 142.15,222.39 L 142.74,222.09 L 143.33,221.82 L 143.92,221.57 L 144.51,221.34 L 145.09,221.14 L 145.68,220.96 L 146.27,220.81 L 146.86,220.69 L 147.44,220.59 L 148.03,220.51 L 148.62,220.46 L 149.21,220.43 L 149.79,220.43 L 150.38,220.46 L 150.97,220.51 L 151.56,220.59 L 152.14,220.69 L 152.73,220.81 L 153.32,220.96 L 153.91,221.14 L 154.49,221.34 L 155.08,221.56 L 155.67,221.81 L 156.26,222.09 L 156.85,222.39 L 157.43,222.71 L 158.02,223.05 L 158.61,223.42 L 159.20,223.81 L 159.78,224.22 L 160.37,224.66 L 160.96,225.12 L 161.55,225.60 L 162.13,226.10 L 162.72,226.62 L 163.31,227.16 L 163.90,227.72 L 164.48,228.30 L 165.07,228.90 L 165.66,229.52 L 166.25,230.16 L 166.84,230.81 L 167.42,231.48 L 168.01,232.17 L 168.60,232.88 L 169.19,233.60 L 169.77,234.33 L 170.36,235.08 L 170.95,235.85 L 171.54,236.63 L 172.12,237.42 L 172.71,238.22 L 173.30,239.03 L 173.89,239.86 L 174.47,240.70 L 175.06,241.54 L 175.65,242.40 L 176.24,243.27 L 176.82,244.14 L 177.41,245.02 L 178.00,245.91 L 178.59,246.81 L 179.18,247.71 L 179.76,248.62 L 180.35,249.53 L 180.94,250.45 L 181.53,251.37 L 182.11,252.29 L 182.70,253.22 L 183.29,254.15 L 183.88,255.08 L 184.46,256.01 L 185.05,256.94 L 185.64,257.88 L 186.23,258.81 L 186.81,259.74 L 187.40,260.67 L 187.99,261.60 L 188.58,262.53 L 189.16,263.45 L 189.75,264.37 L 190.34,265.29 L 190.93,266.20 L 191.52,267.11 L 192.10,268.01 L 192.69,268.91 L 193.28,269.81 L 193.87,270.69 L 194.45,271.57 L 195.04,272.45 L 195.63,273.31 L 196.22,274.17 L 196.80,275.03 L 197.39,275.87 L 197.98,276.71 L 198.57,277.53 L 199.15,278.35 L 199.74,279.16 L 200.33,279.96 L 200.92,280.75 L 201.51,281.53 L 202.09,282.31 L 202.68,283.07 L 203.27,283.82 L 203.86,284.56 L 204.44,285.29 L 205.03,286.01 L 205.62,286.72 L 206.21,287.42 L 206.79,288.11 L 207.38,288.78 L 207.97,289.45 L 208.56,290.11 L 209.14,290.75 L 209.73,291.38 L 210.32,292.00 L 210.91,292.61 L 211.49,293.21 L 212.08,293.80 L 212.67,294.37 L 213.26,294.94 L 213.85,295.49 L 214.43,296.03 L 215.02,296.56 L 215.61,297.08 L 216.20,297.59 L 216.78,298.09 L 217.37,298.58 L 217.96,299.05 L 218.55,299.52 L 219.13,299.97 L 219.72,300.42 L 220.31,300.85 L 220.90,301.27 L 221.48,301.69 L 222.07,302.09 L 222.66,302.48 L 223.25,302.87 L 223.84,303.24 L 224.42,303.60 L 225.01,303.96 L 225.60,304.30 L 226.19,304.63 L 226.77,304.96 L 227.36,305.28 L 227.95,305.58 L 228.54,305.88 L 229.12,306.18 L 229.71,306.46 L 230.30,306.73 L 230.89,307.00 L 231.47,307.26 L 232.06,307.51 L 232.65,307.75 L 233.24,307.98 L 233.82,308.21 L 234.41,308.43 L 235.00,308.65 L 235.59,308.85 L 236.18,309.06 L 236.76,309.25 L 237.35,309.44 L 237.94,309.62 L 238.53,309.79 L 239.11,309.96 L 239.70,310.13 L 240.29,310.28 L 240.88,310.44 L 241.46,310.58 L 242.05,310.73 L 242.64,310.86 L 243.23,310.99 L 243.81,311.12 L 244.40,311.24 L 244.99,311.36 L 245.58,311.48 L 246.16,311.59 L 246.75,311.69 L 247.34,311.79 L 247.93,311.89 L 248.52,311.98 L 249.10,312.07 L 249.69,312.16 L 250.28,312.24 L 250.87,312.32 L 251.45,312.40 L 252.04,312.47 L 252.63,312.54 L 253.22,312.61 L 253.80,312.68 L 254.39,312.74 L 254.98,312.80 L 255.57,312.85 L 256.15,312.91 L 256.74,312.96 L 257.33,313.01 L 257.92,313.06 L 258.51,313.11 L 259.09,313.15 L 259.68,313.19 L 260.27,313.23 L 260.86,313.27 L 261.44,313.31 L 262.03,313.34 L 262.62,313.37 L 263.21,313.41 L 263.79,313.44 L 264.38,313.47 L 264.97,313.49 L 265.56,313.52 L 266.14,313.54 L 266.73,313.57 L 267.32,313.59 L 267.91,313.61 L 268.49,313.63 L 269.08,313.65 L 269.67,313.67 L 270.26,313.69 L 270.85,313.70 L 271.43,313.72 L 272.02,313.74 L 272.61,313.75 L 273.20,313.76 L 273.78,313.78 L 274.37,313.79 L 274.96,313.80 L 275.55,313.81 L 276.13,313.82 L 276.72,313.83 L 277.31,313.84 L 277.90,313.85 L 278.48,313.86 L 279.07,313.86 L 279.66,313.87 L 280.25,313.88 L 280.84,313.88 L 281.42,313.89 L 282.01,313.89 L 282.60,313.90 L 283.19,313.90 L 283.77,313.91 L 284.36,313.91 L 284.95,313.91 L 285.54,313.92 L 286.12,313.92 L 286.71,313.92 L 287.30,313.92 L 287.89,313.92 L 288.47,313.93 L 289.06,313.93 L 289.65,313.93 L 290.24,313.93 L 290.82,313.92 L 291.41,313.92 L 292.00,313.92 L 292.59,313.92 L 293.18,313.92 L 293.76,313.91 L 294.35,313.91 L 294.94,313.91 L 295.53,313.90 L 296.11,313.90 L 296.70,313.89 L 297.29,313.88 L 297.88,313.88 L 298.46,313.87 L 299.05,313.86 L 299.64,313.85 L 300.23,313.84 L 300.81,313.83 L 301.40,313.81 L 301.99,313.80 L 302.58,313.78 L 303.16,313.77 L 303.75,313.75 L 304.34,313.73 L 304.93,313.71 L 305.52,313.69 L 306.10,313.66 L 306.69,313.64 L 307.28,313.61 L 307.87,313.58 L 308.45,313.55 L 309.04,313.52 L 309.63,313.48 L 310.22,313.44 L 310.80,313.40 L 311.39,313.35 L 311.98,313.31 L 312.57,313.26 L 313.15,313.20 L 313.74,313.15 L 314.33,313.08 L 314.92,313.02 L 315.51,312.95 L 316.09,312.88 L 316.68,312.80 L 317.27,312.72 L 317.86,312.63 L 318.44,312.54 L 319.03,312.44 L 319.62,312.33 L 320.21,312.22 L 320.79,312.11 L 321.38,311.98 L 321.97,311.85 L 322.56,311.72 L 323.14,311.57 L 323.73,311.42 L 324.32,311.26 L 324.91,311.09 L 325.49,310.91 L 326.08,310.72 L 326.67,310.53 L 327.26,310.32 L 327.85,310.10 L 328.43,309.87 L 329.02,309.63 L 329.61,309.38 L 330.20,309.12 L 330.78,308.85 L 331.37,308.56 L 331.96,308.26 L 332.55,307.95 L 333.13,307.62 L 333.72,307.28 L 334.31,306.92 L 334.90,306.55 L 335.48,306.17 L 336.07,305.77 L 336.66,305.35 L 337.25,304.92 L 337.84,304.47 L 338.42,304.00 L 339.01,303.51 L 339.60,303.01 L 340.19,302.49 L 340.77,301.95 L 341.36,301.39 L 341.95,300.81 L 342.54,300.22 L 343.12,299.60 L 343.71,298.97 L 344.30,298.31 L 344.89,297.64 L 345.47,296.94 L 346.06,296.23 L 346.65,295.49 L 347.24,294.74 L 347.82,293.96 L 348.41,293.16 L 349.00,292.35 L 349.59,291.51 L 350.18,290.65 L 350.76,289.78 L 351.35,288.88 L 351.94,287.96 L 352.53,287.03 L 353.11,286.07 L 353.70,285.10 L 354.29,284.11 L 354.88,283.10 L 355.46,282.07 L 356.05,281.03 L 356.64,279.97 L 357.23,278.90 L 357.81,277.81 L 358.40,276.70 L 358.99,275.58 L 359.58,274.45 L 360.16,273.31 L 360.75,272.16 L 361.34,270.99 L 361.93,269.82 L 362.52,268.64 L 363.10,267.45 L 363.69,266.26 L 364.28,265.06 L 364.87,263.86 L 365.45,262.65 L 366.04,261.44 L 366.63,260.24 L 367.22,259.03 L 367.80,257.83 L 368.39,256.63 L 368.98,255.43 L 369.57,254.24 L 370.15,253.06 L 370.74,251.89 L 371.33,250.73 L 371.92,249.58 L 372.51,248.45 L 373.09,247.33 L 373.68,246.23 L 374.27,245.14 L 374.86,244.08 L 375.44,243.03 L 376.03,242.01 L 376.62,241.01 L 377.21,240.03 L 377.79,239.09 L 378.38,238.17 L 378.97,237.27 L 379.56,236.41 L 380.14,235.58 L 380.73,234.79 L 381.32,234.02 L 381.91,233.29 L 382.49,232.60 L 383.08,231.95 L 383.67,231.33 L 384.26,230.75 L 384.85,230.21 L 385.43,229.72 L 386.02,229.26 L 386.61,228.85 L 387.20,228.48 L 387.78,228.15 L 388.37,227.87 L 388.96,227.63 L 389.55,227.43 L 390.13,227.28 L 390.72,227.18 L 391.31,227.12 L 391.90,227.11 L 392.48,227.14 L 393.07,227.22 L 393.66,227.34 L 394.25,227.51 L 394.84,227.73 L 395.42,227.99 L 396.01,228.29 L 396.60,228.64 L 397.19,229.03 L 397.77,229.46 L 398.36,229.93 L 398.95,230.45 L 399.54,231.00 L 400.12,231.60 L 400.71,232.23 L 401.30,232.90 L 401.89,233.61 L 402.47,234.36 L 403.06,235.13 L 403.65,235.95 L 404.24,236.79 L 404.82,237.67 L 405.41,238.57 L 406.00,239.50 L 406.59,240.46 L 407.18,241.45 L 407.76,242.46 L 408.35,243.49 L 408.94,244.55 L 409.53,245.62 L 410.11,246.71 L 410.70,247.83 L 411.29,248.95 L 411.88,250.09 L 412.46,251.25 L 413.05,252.41 L 413.64,253.59 L 414.23,254.77 L 414.81,255.96 L 415.40,257.16 L 415.99,258.36 L 416.58,259.57 L 417.16,260.77 L 417.75,261.98 L 418.34,263.19 L 418.93,264.39 L 419.52,265.59 L 420.10,266.79 L 420.69,267.98 L 421.28,269.16 L 421.87,270.34 L 422.45,271.51 L 423.04,272.67 L 423.63,273.82 L 424.22,274.96 L 424.80,276.08 L 425.39,277.19 L 425.98,278.29 L 426.57,279.37 L 427.15,280.44 L 427.74,281.49 L 428.33,282.53 L 428.92,283.55 L 429.51,284.55 L 430.09,285.53 L 430.68,286.50 L 431.27,287.44 L 431.86,288.37 L 432.44,289.28 L 433.03,290.17 L 433.62,291.04 L 434.21,291.88 L 434.79,292.71 L 435.38,293.52 L 435.97,294.31 L 436.56,295.07 L 437.14,295.82 L 437.73,296.55 L 438.32,297.25 L 438.91,297.94 L 439.49,298.60 L 440.08,299.25 L 440.67,299.88 L 441.26,300.48 L 441.85,301.07 L 442.43,301.64 L 443.02,302.19 L 443.61,302.72 L 444.20,303.23 L 444.78,303.73 L 445.37,304.21 L 445.96,304.67 L 446.55,305.11 L 447.13,305.54 L 447.72,305.95 L 448.31,306.34 L 448.90,306.72 L 449.48,307.08 L 450.07,307.43 L 450.66,307.77 L 451.25,308.09 L 451.84,308.40 L 452.42,308.69 L 453.01,308.97 L 453.60,309.24 L 454.19,309.50 L 454.77,309.74 L 455.36,309.98 L 455.95,310.20 L 456.54,310.41 L 457.12,310.61 L 457.71,310.81 L 458.30,310.99 L 458.89,311.16 L 459.47,311.33 L 460.06,311.49 L 460.65,311.64 L 461.24,311.78 L 461.82,311.91 L 462.41,312.04 L 463.00,312.16 L 463.00,314.00 L 64.00,314.00 Z" />
    <path class="kline" d="M 64.00,308.65 L 64.59,308.43 L 65.18,308.21 L 65.76,307.99 L 66.35,307.75 L 66.94,307.51 L 67.53,307.26 L 68.11,307.00 L 68.70,306.73 L 69.29,306.46 L 69.88,306.18 L 70.46,305.89 L 71.05,305.59 L 71.64,305.28 L 72.23,304.96 L 72.81,304.64 L 73.40,304.30 L 73.99,303.96 L 74.58,303.60 L 75.16,303.24 L 75.75,302.87 L 76.34,302.48 L 76.93,302.09 L 77.52,301.69 L 78.10,301.28 L 78.69,300.85 L 79.28,300.42 L 79.87,299.98 L 80.45,299.52 L 81.04,299.06 L 81.63,298.58 L 82.22,298.09 L 82.80,297.60 L 83.39,297.09 L 83.98,296.57 L 84.57,296.04 L 85.15,295.49 L 85.74,294.94 L 86.33,294.38 L 86.92,293.80 L 87.51,293.21 L 88.09,292.61 L 88.68,292.00 L 89.27,291.38 L 89.86,290.75 L 90.44,290.11 L 91.03,289.45 L 91.62,288.79 L 92.21,288.11 L 92.79,287.42 L 93.38,286.72 L 93.97,286.01 L 94.56,285.29 L 95.14,284.56 L 95.73,283.82 L 96.32,283.07 L 96.91,282.31 L 97.49,281.54 L 98.08,280.76 L 98.67,279.96 L 99.26,279.16 L 99.85,278.35 L 100.43,277.54 L 101.02,276.71 L 101.61,275.87 L 102.20,275.03 L 102.78,274.18 L 103.37,273.32 L 103.96,272.45 L 104.55,271.58 L 105.13,270.70 L 105.72,269.81 L 106.31,268.92 L 106.90,268.02 L 107.48,267.11 L 108.07,266.21 L 108.66,265.29 L 109.25,264.38 L 109.84,263.45 L 110.42,262.53 L 111.01,261.60 L 111.60,260.68 L 112.19,259.75 L 112.77,258.81 L 113.36,257.88 L 113.95,256.95 L 114.54,256.01 L 115.12,255.08 L 115.71,254.15 L 116.30,253.22 L 116.89,252.30 L 117.47,251.37 L 118.06,250.45 L 118.65,249.53 L 119.24,248.62 L 119.82,247.71 L 120.41,246.81 L 121.00,245.91 L 121.59,245.03 L 122.18,244.14 L 122.76,243.27 L 123.35,242.40 L 123.94,241.55 L 124.53,240.70 L 125.11,239.86 L 125.70,239.04 L 126.29,238.22 L 126.88,237.42 L 127.46,236.63 L 128.05,235.85 L 128.64,235.09 L 129.23,234.34 L 129.81,233.60 L 130.40,232.88 L 130.99,232.18 L 131.58,231.49 L 132.16,230.81 L 132.75,230.16 L 133.34,229.52 L 133.93,228.90 L 134.52,228.30 L 135.10,227.72 L 135.69,227.16 L 136.28,226.62 L 136.87,226.10 L 137.45,225.60 L 138.04,225.12 L 138.63,224.66 L 139.22,224.23 L 139.80,223.81 L 140.39,223.42 L 140.98,223.05 L 141.57,222.71 L 142.15,222.39 L 142.74,222.09 L 143.33,221.82 L 143.92,221.57 L 144.51,221.34 L 145.09,221.14 L 145.68,220.96 L 146.27,220.81 L 146.86,220.69 L 147.44,220.59 L 148.03,220.51 L 148.62,220.46 L 149.21,220.43 L 149.79,220.43 L 150.38,220.46 L 150.97,220.51 L 151.56,220.59 L 152.14,220.69 L 152.73,220.81 L 153.32,220.96 L 153.91,221.14 L 154.49,221.34 L 155.08,221.56 L 155.67,221.81 L 156.26,222.09 L 156.85,222.39 L 157.43,222.71 L 158.02,223.05 L 158.61,223.42 L 159.20,223.81 L 159.78,224.22 L 160.37,224.66 L 160.96,225.12 L 161.55,225.60 L 162.13,226.10 L 162.72,226.62 L 163.31,227.16 L 163.90,227.72 L 164.48,228.30 L 165.07,228.90 L 165.66,229.52 L 166.25,230.16 L 166.84,230.81 L 167.42,231.48 L 168.01,232.17 L 168.60,232.88 L 169.19,233.60 L 169.77,234.33 L 170.36,235.08 L 170.95,235.85 L 171.54,236.63 L 172.12,237.42 L 172.71,238.22 L 173.30,239.03 L 173.89,239.86 L 174.47,240.70 L 175.06,241.54 L 175.65,242.40 L 176.24,243.27 L 176.82,244.14 L 177.41,245.02 L 178.00,245.91 L 178.59,246.81 L 179.18,247.71 L 179.76,248.62 L 180.35,249.53 L 180.94,250.45 L 181.53,251.37 L 182.11,252.29 L 182.70,253.22 L 183.29,254.15 L 183.88,255.08 L 184.46,256.01 L 185.05,256.94 L 185.64,257.88 L 186.23,258.81 L 186.81,259.74 L 187.40,260.67 L 187.99,261.60 L 188.58,262.53 L 189.16,263.45 L 189.75,264.37 L 190.34,265.29 L 190.93,266.20 L 191.52,267.11 L 192.10,268.01 L 192.69,268.91 L 193.28,269.81 L 193.87,270.69 L 194.45,271.57 L 195.04,272.45 L 195.63,273.31 L 196.22,274.17 L 196.80,275.03 L 197.39,275.87 L 197.98,276.71 L 198.57,277.53 L 199.15,278.35 L 199.74,279.16 L 200.33,279.96 L 200.92,280.75 L 201.51,281.53 L 202.09,282.31 L 202.68,283.07 L 203.27,283.82 L 203.86,284.56 L 204.44,285.29 L 205.03,286.01 L 205.62,286.72 L 206.21,287.42 L 206.79,288.11 L 207.38,288.78 L 207.97,289.45 L 208.56,290.11 L 209.14,290.75 L 209.73,291.38 L 210.32,292.00 L 210.91,292.61 L 211.49,293.21 L 212.08,293.80 L 212.67,294.37 L 213.26,294.94 L 213.85,295.49 L 214.43,296.03 L 215.02,296.56 L 215.61,297.08 L 216.20,297.59 L 216.78,298.09 L 217.37,298.58 L 217.96,299.05 L 218.55,299.52 L 219.13,299.97 L 219.72,300.42 L 220.31,300.85 L 220.90,301.27 L 221.48,301.69 L 222.07,302.09 L 222.66,302.48 L 223.25,302.87 L 223.84,303.24 L 224.42,303.60 L 225.01,303.96 L 225.60,304.30 L 226.19,304.63 L 226.77,304.96 L 227.36,305.28 L 227.95,305.58 L 228.54,305.88 L 229.12,306.18 L 229.71,306.46 L 230.30,306.73 L 230.89,307.00 L 231.47,307.26 L 232.06,307.51 L 232.65,307.75 L 233.24,307.98 L 233.82,308.21 L 234.41,308.43 L 235.00,308.65 L 235.59,308.85 L 236.18,309.06 L 236.76,309.25 L 237.35,309.44 L 237.94,309.62 L 238.53,309.79 L 239.11,309.96 L 239.70,310.13 L 240.29,310.28 L 240.88,310.44 L 241.46,310.58 L 242.05,310.73 L 242.64,310.86 L 243.23,310.99 L 243.81,311.12 L 244.40,311.24 L 244.99,311.36 L 245.58,311.48 L 246.16,311.59 L 246.75,311.69 L 247.34,311.79 L 247.93,311.89 L 248.52,311.98 L 249.10,312.07 L 249.69,312.16 L 250.28,312.24 L 250.87,312.32 L 251.45,312.40 L 252.04,312.47 L 252.63,312.54 L 253.22,312.61 L 253.80,312.68 L 254.39,312.74 L 254.98,312.80 L 255.57,312.85 L 256.15,312.91 L 256.74,312.96 L 257.33,313.01 L 257.92,313.06 L 258.51,313.11 L 259.09,313.15 L 259.68,313.19 L 260.27,313.23 L 260.86,313.27 L 261.44,313.31 L 262.03,313.34 L 262.62,313.37 L 263.21,313.41 L 263.79,313.44 L 264.38,313.47 L 264.97,313.49 L 265.56,313.52 L 266.14,313.54 L 266.73,313.57 L 267.32,313.59 L 267.91,313.61 L 268.49,313.63 L 269.08,313.65 L 269.67,313.67 L 270.26,313.69 L 270.85,313.70 L 271.43,313.72 L 272.02,313.74 L 272.61,313.75 L 273.20,313.76 L 273.78,313.78 L 274.37,313.79 L 274.96,313.80 L 275.55,313.81 L 276.13,313.82 L 276.72,313.83 L 277.31,313.84 L 277.90,313.85 L 278.48,313.86 L 279.07,313.86 L 279.66,313.87 L 280.25,313.88 L 280.84,313.88 L 281.42,313.89 L 282.01,313.89 L 282.60,313.90 L 283.19,313.90 L 283.77,313.91 L 284.36,313.91 L 284.95,313.91 L 285.54,313.92 L 286.12,313.92 L 286.71,313.92 L 287.30,313.92 L 287.89,313.92 L 288.47,313.93 L 289.06,313.93 L 289.65,313.93 L 290.24,313.93 L 290.82,313.92 L 291.41,313.92 L 292.00,313.92 L 292.59,313.92 L 293.18,313.92 L 293.76,313.91 L 294.35,313.91 L 294.94,313.91 L 295.53,313.90 L 296.11,313.90 L 296.70,313.89 L 297.29,313.88 L 297.88,313.88 L 298.46,313.87 L 299.05,313.86 L 299.64,313.85 L 300.23,313.84 L 300.81,313.83 L 301.40,313.81 L 301.99,313.80 L 302.58,313.78 L 303.16,313.77 L 303.75,313.75 L 304.34,313.73 L 304.93,313.71 L 305.52,313.69 L 306.10,313.66 L 306.69,313.64 L 307.28,313.61 L 307.87,313.58 L 308.45,313.55 L 309.04,313.52 L 309.63,313.48 L 310.22,313.44 L 310.80,313.40 L 311.39,313.35 L 311.98,313.31 L 312.57,313.26 L 313.15,313.20 L 313.74,313.15 L 314.33,313.08 L 314.92,313.02 L 315.51,312.95 L 316.09,312.88 L 316.68,312.80 L 317.27,312.72 L 317.86,312.63 L 318.44,312.54 L 319.03,312.44 L 319.62,312.33 L 320.21,312.22 L 320.79,312.11 L 321.38,311.98 L 321.97,311.85 L 322.56,311.72 L 323.14,311.57 L 323.73,311.42 L 324.32,311.26 L 324.91,311.09 L 325.49,310.91 L 326.08,310.72 L 326.67,310.53 L 327.26,310.32 L 327.85,310.10 L 328.43,309.87 L 329.02,309.63 L 329.61,309.38 L 330.20,309.12 L 330.78,308.85 L 331.37,308.56 L 331.96,308.26 L 332.55,307.95 L 333.13,307.62 L 333.72,307.28 L 334.31,306.92 L 334.90,306.55 L 335.48,306.17 L 336.07,305.77 L 336.66,305.35 L 337.25,304.92 L 337.84,304.47 L 338.42,304.00 L 339.01,303.51 L 339.60,303.01 L 340.19,302.49 L 340.77,301.95 L 341.36,301.39 L 341.95,300.81 L 342.54,300.22 L 343.12,299.60 L 343.71,298.97 L 344.30,298.31 L 344.89,297.64 L 345.47,296.94 L 346.06,296.23 L 346.65,295.49 L 347.24,294.74 L 347.82,293.96 L 348.41,293.16 L 349.00,292.35 L 349.59,291.51 L 350.18,290.65 L 350.76,289.78 L 351.35,288.88 L 351.94,287.96 L 352.53,287.03 L 353.11,286.07 L 353.70,285.10 L 354.29,284.11 L 354.88,283.10 L 355.46,282.07 L 356.05,281.03 L 356.64,279.97 L 357.23,278.90 L 357.81,277.81 L 358.40,276.70 L 358.99,275.58 L 359.58,274.45 L 360.16,273.31 L 360.75,272.16 L 361.34,270.99 L 361.93,269.82 L 362.52,268.64 L 363.10,267.45 L 363.69,266.26 L 364.28,265.06 L 364.87,263.86 L 365.45,262.65 L 366.04,261.44 L 366.63,260.24 L 367.22,259.03 L 367.80,257.83 L 368.39,256.63 L 368.98,255.43 L 369.57,254.24 L 370.15,253.06 L 370.74,251.89 L 371.33,250.73 L 371.92,249.58 L 372.51,248.45 L 373.09,247.33 L 373.68,246.23 L 374.27,245.14 L 374.86,244.08 L 375.44,243.03 L 376.03,242.01 L 376.62,241.01 L 377.21,240.03 L 377.79,239.09 L 378.38,238.17 L 378.97,237.27 L 379.56,236.41 L 380.14,235.58 L 380.73,234.79 L 381.32,234.02 L 381.91,233.29 L 382.49,232.60 L 383.08,231.95 L 383.67,231.33 L 384.26,230.75 L 384.85,230.21 L 385.43,229.72 L 386.02,229.26 L 386.61,228.85 L 387.20,228.48 L 387.78,228.15 L 388.37,227.87 L 388.96,227.63 L 389.55,227.43 L 390.13,227.28 L 390.72,227.18 L 391.31,227.12 L 391.90,227.11 L 392.48,227.14 L 393.07,227.22 L 393.66,227.34 L 394.25,227.51 L 394.84,227.73 L 395.42,227.99 L 396.01,228.29 L 396.60,228.64 L 397.19,229.03 L 397.77,229.46 L 398.36,229.93 L 398.95,230.45 L 399.54,231.00 L 400.12,231.60 L 400.71,232.23 L 401.30,232.90 L 401.89,233.61 L 402.47,234.36 L 403.06,235.13 L 403.65,235.95 L 404.24,236.79 L 404.82,237.67 L 405.41,238.57 L 406.00,239.50 L 406.59,240.46 L 407.18,241.45 L 407.76,242.46 L 408.35,243.49 L 408.94,244.55 L 409.53,245.62 L 410.11,246.71 L 410.70,247.83 L 411.29,248.95 L 411.88,250.09 L 412.46,251.25 L 413.05,252.41 L 413.64,253.59 L 414.23,254.77 L 414.81,255.96 L 415.40,257.16 L 415.99,258.36 L 416.58,259.57 L 417.16,260.77 L 417.75,261.98 L 418.34,263.19 L 418.93,264.39 L 419.52,265.59 L 420.10,266.79 L 420.69,267.98 L 421.28,269.16 L 421.87,270.34 L 422.45,271.51 L 423.04,272.67 L 423.63,273.82 L 424.22,274.96 L 424.80,276.08 L 425.39,277.19 L 425.98,278.29 L 426.57,279.37 L 427.15,280.44 L 427.74,281.49 L 428.33,282.53 L 428.92,283.55 L 429.51,284.55 L 430.09,285.53 L 430.68,286.50 L 431.27,287.44 L 431.86,288.37 L 432.44,289.28 L 433.03,290.17 L 433.62,291.04 L 434.21,291.88 L 434.79,292.71 L 435.38,293.52 L 435.97,294.31 L 436.56,295.07 L 437.14,295.82 L 437.73,296.55 L 438.32,297.25 L 438.91,297.94 L 439.49,298.60 L 440.08,299.25 L 440.67,299.88 L 441.26,300.48 L 441.85,301.07 L 442.43,301.64 L 443.02,302.19 L 443.61,302.72 L 444.20,303.23 L 444.78,303.73 L 445.37,304.21 L 445.96,304.67 L 446.55,305.11 L 447.13,305.54 L 447.72,305.95 L 448.31,306.34 L 448.90,306.72 L 449.48,307.08 L 450.07,307.43 L 450.66,307.77 L 451.25,308.09 L 451.84,308.40 L 452.42,308.69 L 453.01,308.97 L 453.60,309.24 L 454.19,309.50 L 454.77,309.74 L 455.36,309.98 L 455.95,310.20 L 456.54,310.41 L 457.12,310.61 L 457.71,310.81 L 458.30,310.99 L 458.89,311.16 L 459.47,311.33 L 460.06,311.49 L 460.65,311.64 L 461.24,311.78 L 461.82,311.91 L 462.41,312.04 L 463.00,312.16" />
    <path class="ce" d="M 64.00,297.44 L 64.59,297.30 L 65.18,297.16 L 65.76,297.02 L 66.35,296.88 L 66.94,296.74 L 67.53,296.60 L 68.11,296.46 L 68.70,296.31 L 69.29,296.17 L 69.88,296.03 L 70.46,295.88 L 71.05,295.74 L 71.64,295.59 L 72.23,295.44 L 72.81,295.30 L 73.40,295.15 L 73.99,295.00 L 74.58,294.85 L 75.16,294.71 L 75.75,294.56 L 76.34,294.41 L 76.93,294.26 L 77.52,294.11 L 78.10,293.96 L 78.69,293.81 L 79.28,293.65 L 79.87,293.50 L 80.45,293.35 L 81.04,293.20 L 81.63,293.04 L 82.22,292.89 L 82.80,292.74 L 83.39,292.58 L 83.98,292.43 L 84.57,292.27 L 85.15,292.12 L 85.74,291.96 L 86.33,291.80 L 86.92,291.65 L 87.51,291.49 L 88.09,291.33 L 88.68,291.18 L 89.27,291.02 L 89.86,290.86 L 90.44,290.70 L 91.03,290.54 L 91.62,290.38 L 92.21,290.23 L 92.79,290.07 L 93.38,289.91 L 93.97,289.75 L 94.56,289.59 L 95.14,289.43 L 95.73,289.27 L 96.32,289.11 L 96.91,288.95 L 97.49,288.79 L 98.08,288.62 L 98.67,288.46 L 99.26,288.30 L 99.85,288.14 L 100.43,287.98 L 101.02,287.82 L 101.61,287.66 L 102.20,287.50 L 102.78,287.33 L 103.37,287.17 L 103.96,287.01 L 104.55,286.85 L 105.13,286.69 L 105.72,286.53 L 106.31,286.36 L 106.90,286.20 L 107.48,286.04 L 108.07,285.88 L 108.66,285.72 L 109.25,285.56 L 109.84,285.40 L 110.42,285.23 L 111.01,285.07 L 111.60,284.91 L 112.19,284.75 L 112.77,284.59 L 113.36,284.43 L 113.95,284.27 L 114.54,284.11 L 115.12,283.95 L 115.71,283.79 L 116.30,283.63 L 116.89,283.47 L 117.47,283.31 L 118.06,283.15 L 118.65,282.99 L 119.24,282.84 L 119.82,282.68 L 120.41,282.52 L 121.00,282.36 L 121.59,282.20 L 122.18,282.05 L 122.76,281.89 L 123.35,281.74 L 123.94,281.58 L 124.53,281.42 L 125.11,281.27 L 125.70,281.12 L 126.29,280.96 L 126.88,280.81 L 127.46,280.65 L 128.05,280.50 L 128.64,280.35 L 129.23,280.20 L 129.81,280.05 L 130.40,279.90 L 130.99,279.75 L 131.58,279.60 L 132.16,279.45 L 132.75,279.30 L 133.34,279.15 L 133.93,279.00 L 134.52,278.86 L 135.10,278.71 L 135.69,278.57 L 136.28,278.42 L 136.87,278.28 L 137.45,278.13 L 138.04,277.99 L 138.63,277.85 L 139.22,277.71 L 139.80,277.57 L 140.39,277.43 L 140.98,277.29 L 141.57,277.15 L 142.15,277.01 L 142.74,276.88 L 143.33,276.74 L 143.92,276.61 L 144.51,276.47 L 145.09,276.34 L 145.68,276.21 L 146.27,276.07 L 146.86,275.94 L 147.44,275.81 L 148.03,275.68 L 148.62,275.56 L 149.21,275.43 L 149.79,275.30 L 150.38,275.18 L 150.97,275.05 L 151.56,274.93 L 152.14,274.81 L 152.73,274.69 L 153.32,274.57 L 153.91,274.45 L 154.49,274.33 L 155.08,274.21 L 155.67,274.09 L 156.26,273.98 L 156.85,273.87 L 157.43,273.75 L 158.02,273.64 L 158.61,273.53 L 159.20,273.42 L 159.78,273.31 L 160.37,273.20 L 160.96,273.10 L 161.55,272.99 L 162.13,272.89 L 162.72,272.79 L 163.31,272.69 L 163.90,272.58 L 164.48,272.49 L 165.07,272.39 L 165.66,272.29 L 166.25,272.20 L 166.84,272.10 L 167.42,272.01 L 168.01,271.92 L 168.60,271.83 L 169.19,271.74 L 169.77,271.65 L 170.36,271.56 L 170.95,271.48 L 171.54,271.39 L 172.12,271.31 L 172.71,271.23 L 173.30,271.15 L 173.89,271.07 L 174.47,271.00 L 175.06,270.92 L 175.65,270.85 L 176.24,270.77 L 176.82,270.70 L 177.41,270.63 L 178.00,270.56 L 178.59,270.50 L 179.18,270.43 L 179.76,270.37 L 180.35,270.30 L 180.94,270.24 L 181.53,270.18 L 182.11,270.12 L 182.70,270.07 L 183.29,270.01 L 183.88,269.96 L 184.46,269.90 L 185.05,269.85 L 185.64,269.80 L 186.23,269.75 L 186.81,269.71 L 187.40,269.66 L 187.99,269.62 L 188.58,269.58 L 189.16,269.54 L 189.75,269.50 L 190.34,269.46 L 190.93,269.42 L 191.52,269.39 L 192.10,269.36 L 192.69,269.32 L 193.28,269.29 L 193.87,269.27 L 194.45,269.24 L 195.04,269.21 L 195.63,269.19 L 196.22,269.17 L 196.80,269.15 L 197.39,269.13 L 197.98,269.11 L 198.57,269.10 L 199.15,269.08 L 199.74,269.07 L 200.33,269.06 L 200.92,269.05 L 201.51,269.04 L 202.09,269.03 L 202.68,269.03 L 203.27,269.03 L 203.86,269.02 L 204.44,269.02 L 205.03,269.03 L 205.62,269.03 L 206.21,269.03 L 206.79,269.04 L 207.38,269.05 L 207.97,269.06 L 208.56,269.07 L 209.14,269.08 L 209.73,269.09 L 210.32,269.11 L 210.91,269.13 L 211.49,269.15 L 212.08,269.17 L 212.67,269.19 L 213.26,269.21 L 213.85,269.24 L 214.43,269.26 L 215.02,269.29 L 215.61,269.32 L 216.20,269.35 L 216.78,269.39 L 217.37,269.42 L 217.96,269.46 L 218.55,269.49 L 219.13,269.53 L 219.72,269.57 L 220.31,269.62 L 220.90,269.66 L 221.48,269.70 L 222.07,269.75 L 222.66,269.80 L 223.25,269.85 L 223.84,269.90 L 224.42,269.95 L 225.01,270.01 L 225.60,270.06 L 226.19,270.12 L 226.77,270.18 L 227.36,270.24 L 227.95,270.30 L 228.54,270.36 L 229.12,270.43 L 229.71,270.49 L 230.30,270.56 L 230.89,270.63 L 231.47,270.70 L 232.06,270.77 L 232.65,270.84 L 233.24,270.92 L 233.82,270.99 L 234.41,271.07 L 235.00,271.15 L 235.59,271.23 L 236.18,271.31 L 236.76,271.39 L 237.35,271.47 L 237.94,271.56 L 238.53,271.64 L 239.11,271.73 L 239.70,271.82 L 240.29,271.91 L 240.88,272.00 L 241.46,272.10 L 242.05,272.19 L 242.64,272.28 L 243.23,272.38 L 243.81,272.48 L 244.40,272.58 L 244.99,272.68 L 245.58,272.78 L 246.16,272.88 L 246.75,272.99 L 247.34,273.09 L 247.93,273.20 L 248.52,273.30 L 249.10,273.41 L 249.69,273.52 L 250.28,273.63 L 250.87,273.75 L 251.45,273.86 L 252.04,273.97 L 252.63,274.09 L 253.22,274.20 L 253.80,274.32 L 254.39,274.44 L 254.98,274.56 L 255.57,274.68 L 256.15,274.80 L 256.74,274.92 L 257.33,275.05 L 257.92,275.17 L 258.51,275.29 L 259.09,275.42 L 259.68,275.55 L 260.27,275.68 L 260.86,275.80 L 261.44,275.93 L 262.03,276.07 L 262.62,276.20 L 263.21,276.33 L 263.79,276.46 L 264.38,276.60 L 264.97,276.73 L 265.56,276.87 L 266.14,277.00 L 266.73,277.14 L 267.32,277.28 L 267.91,277.42 L 268.49,277.56 L 269.08,277.70 L 269.67,277.84 L 270.26,277.98 L 270.85,278.13 L 271.43,278.27 L 272.02,278.41 L 272.61,278.56 L 273.20,278.70 L 273.78,278.85 L 274.37,278.99 L 274.96,279.14 L 275.55,279.29 L 276.13,279.44 L 276.72,279.59 L 277.31,279.74 L 277.90,279.89 L 278.48,280.04 L 279.07,280.19 L 279.66,280.34 L 280.25,280.49 L 280.84,280.64 L 281.42,280.80 L 282.01,280.95 L 282.60,281.11 L 283.19,281.26 L 283.77,281.41 L 284.36,281.57 L 284.95,281.73 L 285.54,281.88 L 286.12,282.04 L 286.71,282.19 L 287.30,282.35 L 287.89,282.51 L 288.47,282.67 L 289.06,282.82 L 289.65,282.98 L 290.24,283.14 L 290.82,283.30 L 291.41,283.46 L 292.00,283.62 L 292.59,283.78 L 293.18,283.94 L 293.76,284.10 L 294.35,284.26 L 294.94,284.42 L 295.53,284.58 L 296.11,284.74 L 296.70,284.90 L 297.29,285.06 L 297.88,285.22 L 298.46,285.38 L 299.05,285.55 L 299.64,285.71 L 300.23,285.87 L 300.81,286.03 L 301.40,286.19 L 301.99,286.35 L 302.58,286.52 L 303.16,286.68 L 303.75,286.84 L 304.34,287.00 L 304.93,287.16 L 305.52,287.32 L 306.10,287.49 L 306.69,287.65 L 307.28,287.81 L 307.87,287.97 L 308.45,288.13 L 309.04,288.29 L 309.63,288.45 L 310.22,288.61 L 310.80,288.77 L 311.39,288.94 L 311.98,289.10 L 312.57,289.26 L 313.15,289.42 L 313.74,289.58 L 314.33,289.74 L 314.92,289.90 L 315.51,290.06 L 316.09,290.21 L 316.68,290.37 L 317.27,290.53 L 317.86,290.69 L 318.44,290.85 L 319.03,291.01 L 319.62,291.17 L 320.21,291.32 L 320.79,291.48 L 321.38,291.64 L 321.97,291.79 L 322.56,291.95 L 323.14,292.10 L 323.73,292.26 L 324.32,292.42 L 324.91,292.57 L 325.49,292.72 L 326.08,292.88 L 326.67,293.03 L 327.26,293.19 L 327.85,293.34 L 328.43,293.49 L 329.02,293.64 L 329.61,293.80 L 330.20,293.95 L 330.78,294.10 L 331.37,294.25 L 331.96,294.40 L 332.55,294.55 L 333.13,294.70 L 333.72,294.84 L 334.31,294.99 L 334.90,295.14 L 335.48,295.29 L 336.07,295.43 L 336.66,295.58 L 337.25,295.73 L 337.84,295.87 L 338.42,296.02 L 339.01,296.16 L 339.60,296.30 L 340.19,296.45 L 340.77,296.59 L 341.36,296.73 L 341.95,296.87 L 342.54,297.01 L 343.12,297.15 L 343.71,297.29 L 344.30,297.43 L 344.89,297.57 L 345.47,297.71 L 346.06,297.85 L 346.65,297.98 L 347.24,298.12 L 347.82,298.25 L 348.41,298.39 L 349.00,298.52 L 349.59,298.66 L 350.18,298.79 L 350.76,298.92 L 351.35,299.05 L 351.94,299.18 L 352.53,299.32 L 353.11,299.45 L 353.70,299.57 L 354.29,299.70 L 354.88,299.83 L 355.46,299.96 L 356.05,300.08 L 356.64,300.21 L 357.23,300.34 L 357.81,300.46 L 358.40,300.58 L 358.99,300.71 L 359.58,300.83 L 360.16,300.95 L 360.75,301.07 L 361.34,301.19 L 361.93,301.31 L 362.52,301.43 L 363.10,301.55 L 363.69,301.67 L 364.28,301.79 L 364.87,301.90 L 365.45,302.02 L 366.04,302.14 L 366.63,302.25 L 367.22,302.36 L 367.80,302.48 L 368.39,302.59 L 368.98,302.70 L 369.57,302.81 L 370.15,302.92 L 370.74,303.03 L 371.33,303.14 L 371.92,303.25 L 372.51,303.36 L 373.09,303.46 L 373.68,303.57 L 374.27,303.67 L 374.86,303.78 L 375.44,303.88 L 376.03,303.99 L 376.62,304.09 L 377.21,304.19 L 377.79,304.29 L 378.38,304.39 L 378.97,304.49 L 379.56,304.59 L 380.14,304.69 L 380.73,304.79 L 381.32,304.88 L 381.91,304.98 L 382.49,305.07 L 383.08,305.17 L 383.67,305.26 L 384.26,305.36 L 384.85,305.45 L 385.43,305.54 L 386.02,305.63 L 386.61,305.72 L 387.20,305.81 L 387.78,305.90 L 388.37,305.99 L 388.96,306.08 L 389.55,306.17 L 390.13,306.25 L 390.72,306.34 L 391.31,306.42 L 391.90,306.51 L 392.48,306.59 L 393.07,306.67 L 393.66,306.76 L 394.25,306.84 L 394.84,306.92 L 395.42,307.00 L 396.01,307.08 L 396.60,307.16 L 397.19,307.24 L 397.77,307.31 L 398.36,307.39 L 398.95,307.47 L 399.54,307.54 L 400.12,307.62 L 400.71,307.69 L 401.30,307.77 L 401.89,307.84 L 402.47,307.91 L 403.06,307.98 L 403.65,308.06 L 404.24,308.13 L 404.82,308.20 L 405.41,308.27 L 406.00,308.33 L 406.59,308.40 L 407.18,308.47 L 407.76,308.54 L 408.35,308.60 L 408.94,308.67 L 409.53,308.73 L 410.11,308.80 L 410.70,308.86 L 411.29,308.92 L 411.88,308.99 L 412.46,309.05 L 413.05,309.11 L 413.64,309.17 L 414.23,309.23 L 414.81,300.56 L 415.40,-4823.75 L 415.99,97.74 L 416.58,309.47 L 417.16,309.52 L 417.75,309.58 L 418.34,309.64 L 418.93,309.69 L 419.52,309.75 L 420.10,309.80 L 420.69,309.85 L 421.28,309.91 L 421.87,309.96 L 422.45,310.01 L 423.04,310.07 L 423.63,310.12 L 424.22,310.17 L 424.80,310.22 L 425.39,310.27 L 425.98,310.32 L 426.57,310.36 L 427.15,310.41 L 427.74,310.46 L 428.33,310.51 L 428.92,310.55 L 429.51,310.60 L 430.09,310.65 L 430.68,310.69 L 431.27,310.73 L 431.86,310.78 L 432.44,310.82 L 433.03,310.87 L 433.62,310.91 L 434.21,310.95 L 434.79,310.99 L 435.38,311.03 L 435.97,311.07 L 436.56,311.11 L 437.14,311.15 L 437.73,311.19 L 438.32,311.23 L 438.91,311.27 L 439.49,311.31 L 440.08,311.35 L 440.67,311.38 L 441.26,311.42 L 441.85,311.46 L 442.43,311.49 L 443.02,311.53 L 443.61,311.56 L 444.20,311.60 L 444.78,311.63 L 445.37,311.67 L 445.96,311.70 L 446.55,311.73 L 447.13,311.77 L 447.72,311.80 L 448.31,311.83 L 448.90,311.86 L 449.48,311.89 L 450.07,311.92 L 450.66,311.95 L 451.25,311.98 L 451.84,312.01 L 452.42,312.04 L 453.01,312.07 L 453.60,312.10 L 454.19,312.13 L 454.77,312.16 L 455.36,312.18 L 455.95,312.21 L 456.54,312.24 L 457.12,312.26 L 457.71,312.29 L 458.30,312.32 L 458.89,312.34 L 459.47,312.37 L 460.06,312.39 L 460.65,312.41 L 461.24,312.44 L 461.82,312.46 L 462.41,312.49 L 463.00,312.51" />
  </g>
  <line class="spike-marker" x1="415.50" y1="64.00" x2="415.50" y2="314.00" />
  <text class="small" x="403.50" y="80.00" text-anchor="end">CE spike clipped</text>
  <circle class="dot" cx="107.70" cy="305.18" r="3.1" />
  <circle class="dot" cx="149.50" cy="305.18" r="3.1" />
  <circle class="dot" cx="191.30" cy="305.18" r="3.1" />
  <circle class="dot" cx="368.00" cy="305.18" r="3.1" />
  <circle class="dot" cx="415.50" cy="305.18" r="3.1" />
  <line class="kline" x1="64.00" y1="377.00" x2="94.00" y2="377.00" />
  <text class="small" x="102.00" y="381.00">K-CE fit</text>
  <line class="ce" x1="214.00" y1="377.00" x2="244.00" y2="377.00" />
  <text class="small" x="252.00" y="381.00">CE fit with σ ≥ 0.001</text>
  <text class="small" x="64.00" y="402.00">Gaussian similarity scale ℓ = 0.15</text>
  <text class="label" x="541.00" y="34.00">Risk along the second-component variance</text>
  <text class="small" x="541.00" y="52.00">hold all other fitted parameters fixed; vary σ₂</text>
  <rect x="541.00" y="64.00" width="399.00" height="250.00" fill="none" stroke="#000000" stroke-opacity="0.05" />
  <line class="axis" x1="541.00" y1="314.00" x2="940.00" y2="314.00" />
  <line class="axis" x1="541.00" y1="64.00" x2="541.00" y2="314.00" />
  <line class="zero" x1="541.00" y1="314.00" x2="940.00" y2="314.00" />
  <text class="small" x="517.00" y="318.00">0.0</text>
  <line class="grid" x1="541.00" y1="194.95" x2="940.00" y2="194.95" />
  <text class="small" x="517.00" y="198.95">0.5</text>
  <line class="grid" x1="541.00" y1="75.90" x2="940.00" y2="75.90" />
  <text class="small" x="517.00" y="79.90">1.0</text>
  <line class="axis" x1="541.00" y1="314.00" x2="541.00" y2="320.00" />
  <text class="small" x="525.00" y="338.00">0.001</text>
  <line class="axis" x1="646.11" y1="314.00" x2="646.11" y2="320.00" />
  <text class="small" x="630.11" y="338.00">0.005</text>
  <line class="axis" x1="736.65" y1="314.00" x2="736.65" y2="320.00" />
  <text class="small" x="720.65" y="338.00">0.02</text>
  <line class="axis" x1="841.77" y1="314.00" x2="841.77" y2="320.00" />
  <text class="small" x="825.77" y="338.00">0.1</text>
  <line class="axis" x1="913.52" y1="314.00" x2="913.52" y2="320.00" />
  <text class="small" x="897.52" y="338.00">0.3</text>
  <line class="marker" x1="862.34" y1="64.00" x2="862.34" y2="314.00" />
  <text class="small" x="852.34" y="82.00" text-anchor="end">K-CE best σ ≈ 0.14</text>
  <line class="floor-marker" x1="541.00" y1="64.00" x2="541.00" y2="314.00" />
  <text class="small" x="547.00" y="82.00">σ floor</text>
  <text class="small" x="495.00" y="189.00" text-anchor="middle" transform="rotate(-90 495.00 189.00)">relative excess empirical risk</text>
  <text class="small" x="666.50" y="358.00">second-component width σ₂</text>
  <path class="kline" d="M 541.00,255.10 L 543.68,255.10 L 546.36,255.10 L 549.03,255.10 L 551.71,255.10 L 554.39,255.10 L 557.07,255.11 L 559.74,255.11 L 562.42,255.11 L 565.10,255.11 L 567.78,255.11 L 570.46,255.11 L 573.13,255.11 L 575.81,255.11 L 578.49,255.12 L 581.17,255.12 L 583.85,255.12 L 586.52,255.12 L 589.20,255.13 L 591.88,255.13 L 594.56,255.13 L 597.23,255.14 L 599.91,255.14 L 602.59,255.14 L 605.27,255.15 L 607.95,255.15 L 610.62,255.16 L 613.30,255.16 L 615.98,255.17 L 618.66,255.18 L 621.34,255.18 L 624.01,255.19 L 626.69,255.20 L 629.37,255.21 L 632.05,255.22 L 634.72,255.23 L 637.40,255.24 L 640.08,255.25 L 642.76,255.26 L 645.44,255.28 L 648.11,255.30 L 650.79,255.31 L 653.47,255.33 L 656.15,255.35 L 658.83,255.37 L 661.50,255.40 L 664.18,255.42 L 666.86,255.45 L 669.54,255.48 L 672.21,255.52 L 674.89,255.55 L 677.57,255.59 L 680.25,255.63 L 682.93,255.68 L 685.60,255.73 L 688.28,255.78 L 690.96,255.84 L 693.64,255.91 L 696.32,255.98 L 698.99,256.05 L 701.67,256.13 L 704.35,256.22 L 707.03,256.32 L 709.70,256.42 L 712.38,256.53 L 715.06,256.66 L 717.74,256.79 L 720.42,256.93 L 723.09,257.09 L 725.77,257.26 L 728.45,257.44 L 731.13,257.64 L 733.81,257.85 L 736.48,258.09 L 739.16,258.34 L 741.84,258.61 L 744.52,258.90 L 747.19,259.22 L 749.87,259.57 L 752.55,259.94 L 755.23,260.34 L 757.91,260.78 L 760.58,261.25 L 763.26,261.76 L 765.94,262.31 L 768.62,262.90 L 771.30,263.53 L 773.97,264.22 L 776.65,264.96 L 779.33,265.75 L 782.01,266.61 L 784.68,267.53 L 787.36,268.51 L 790.04,269.56 L 792.72,270.69 L 795.40,271.89 L 798.07,273.18 L 800.75,274.55 L 803.43,276.00 L 806.11,277.54 L 808.79,279.17 L 811.46,280.89 L 814.14,282.70 L 816.82,284.59 L 819.50,286.57 L 822.17,288.62 L 824.85,290.74 L 827.53,292.91 L 830.21,295.13 L 832.89,297.36 L 835.56,299.61 L 838.24,301.82 L 840.92,303.98 L 843.60,306.05 L 846.28,307.98 L 848.95,309.74 L 851.63,311.26 L 854.31,312.51 L 856.99,313.42 L 859.66,313.93 L 862.34,314.00 L 865.02,313.56 L 867.70,312.56 L 870.38,310.95 L 873.05,308.70 L 875.73,305.77 L 878.41,302.14 L 881.09,297.78 L 883.77,292.71 L 886.44,286.91 L 889.12,280.42 L 891.80,273.24 L 894.48,265.40 L 897.15,256.95 L 899.83,247.93 L 902.51,238.38 L 905.19,228.35 L 907.87,217.89 L 910.54,207.05 L 913.22,195.89 L 915.90,184.45 L 918.58,172.78 L 921.26,160.93 L 923.93,148.94 L 926.61,136.85 L 929.29,124.69 L 931.97,112.49 L 934.64,100.28 L 937.32,88.08 L 940.00,75.90" />
  <path class="ce" d="M 541.00,314.00 L 543.68,312.09 L 546.36,310.18 L 549.03,308.28 L 551.71,306.37 L 554.39,304.46 L 557.07,302.56 L 559.74,300.65 L 562.42,298.74 L 565.10,296.83 L 567.78,294.93 L 570.46,293.02 L 573.13,291.11 L 575.81,289.21 L 578.49,287.30 L 581.17,285.39 L 583.85,283.49 L 586.52,281.58 L 589.20,279.68 L 591.88,277.77 L 594.56,275.86 L 597.23,273.96 L 599.91,272.05 L 602.59,270.15 L 605.27,268.24 L 607.95,266.34 L 610.62,264.43 L 613.30,262.53 L 615.98,260.62 L 618.66,258.72 L 621.34,256.82 L 624.01,254.91 L 626.69,253.01 L 629.37,251.11 L 632.05,249.20 L 634.72,247.30 L 637.40,245.40 L 640.08,243.49 L 642.76,241.59 L 645.44,239.69 L 648.11,237.79 L 650.79,235.89 L 653.47,233.99 L 656.15,232.09 L 658.83,230.19 L 661.50,228.29 L 664.18,226.39 L 666.86,224.49 L 669.54,222.59 L 672.21,220.69 L 674.89,218.79 L 677.57,216.90 L 680.25,215.00 L 682.93,213.10 L 685.60,211.21 L 688.28,209.31 L 690.96,207.42 L 693.64,205.52 L 696.32,203.63 L 698.99,201.74 L 701.67,199.85 L 704.35,197.96 L 707.03,196.06 L 709.70,194.18 L 712.38,192.29 L 715.06,190.40 L 717.74,188.51 L 720.42,186.62 L 723.09,184.74 L 725.77,182.86 L 728.45,180.97 L 731.13,179.09 L 733.81,177.21 L 736.48,175.33 L 739.16,173.45 L 741.84,171.57 L 744.52,169.70 L 747.19,167.82 L 749.87,165.95 L 752.55,164.08 L 755.23,162.20 L 757.91,160.34 L 760.58,158.47 L 763.26,156.60 L 765.94,154.74 L 768.62,152.88 L 771.30,151.02 L 773.97,149.16 L 776.65,147.30 L 779.33,145.45 L 782.01,143.60 L 784.68,141.75 L 787.36,139.90 L 790.04,138.06 L 792.72,136.22 L 795.40,134.38 L 798.07,132.54 L 800.75,130.71 L 803.43,128.89 L 806.11,127.09 L 808.79,125.30 L 811.46,123.54 L 814.14,121.84 L 816.82,120.20 L 819.50,118.65 L 822.17,117.23 L 824.85,115.95 L 827.53,114.86 L 830.21,113.96 L 832.89,113.28 L 835.56,112.82 L 838.24,112.56 L 840.92,112.49 L 843.60,112.59 L 846.28,112.80 L 848.95,113.10 L 851.63,113.44 L 854.31,113.78 L 856.99,114.10 L 859.66,114.35 L 862.34,114.52 L 865.02,114.58 L 867.70,114.52 L 870.38,114.33 L 873.05,114.01 L 875.73,113.55 L 878.41,112.95 L 881.09,112.22 L 883.77,111.36 L 886.44,110.38 L 889.12,109.28 L 891.80,108.07 L 894.48,106.75 L 897.15,105.34 L 899.83,103.84 L 902.51,102.26 L 905.19,100.61 L 907.87,98.89 L 910.54,97.11 L 913.22,95.28 L 915.90,93.41 L 918.58,91.50 L 921.26,89.57 L 923.93,87.61 L 926.61,85.65 L 929.29,83.67 L 931.97,81.71 L 934.64,79.75 L 937.32,77.81 L 940.00,75.90" />
  <line class="kline" x1="541.00" y1="377.00" x2="571.00" y2="377.00" />
  <text class="small" x="579.00" y="381.00">Gaussian K-CE</text>
  <line class="ce" x1="681.00" y1="377.00" x2="711.00" y2="377.00" />
  <text class="small" x="719.00" y="381.00">ordinary CE</text>
  <text class="small" x="541.00" y="402.00">each curve is shown as excess over its own displayed minimum</text>
</svg>
