<?xml version="1.0" encoding="UTF-8"?>
<svg xmlns="http://www.w3.org/2000/svg" viewBox="0 0 980.00 680.00" role="img">
  <title>Partition kernel on a Gaussian and its pullback to a uniform</title>
  <style>
    text { font-family: 'Crimson Pro', 'Times New Roman', serif; fill: #5b6673; }
    .label { font-size: 13px; }
    .small { font-size: 12px; }
    .axis { stroke: #1f2a37; stroke-opacity: 0.35; stroke-width: 1.2; }
    .grid { stroke: #1f2a37; stroke-opacity: 0.12; stroke-width: 1; }
    .curve { stroke: #1f2a37; stroke-width: 2.2; fill: none; }
    .bin { stroke: #8b3a3a; stroke-opacity: 0.35; stroke-width: 1.6; }
    .bin-strong { stroke: #8b3a3a; stroke-opacity: 0.75; stroke-width: 2.1; }
    .fill { fill: #8b3a3a; fill-opacity: 0.32; stroke: none; }
    .bar { fill: none; stroke: #8b3a3a; stroke-opacity: 0.65; stroke-width: 1.2; }
    .bar-highlight { fill: #8b3a3a; fill-opacity: 0.32; stroke: #8b3a3a; stroke-opacity: 0.85; stroke-width: 1.4; }
  </style>
  <rect x="0" y="0" width="980.00" height="680.00" fill="#ffffff" />
  <text class="label" x="64.00" y="24.00" fill="#1f2a37">Gaussian pdf (x-space)</text>
  <text class="label" x="541.00" y="24.00" fill="#1f2a37">Uniform pdf (u-space)</text>
  <defs><marker id="arrowhead" markerWidth="10" markerHeight="7" refX="8" refY="3.5" orient="auto"><polygon points="0 0, 10 3.5, 0 7" fill="#5b6673" /></marker></defs>
  <line x1="475.00" y1="20.00" x2="529.00" y2="20.00" stroke="#5b6673" stroke-width="1.4" marker-end="url(#arrowhead)" opacity="0.7" />
  <text class="small" x="474.00" y="14.00" fill="#5b6673">u = Φ(x)</text>
  <rect x="64.00" y="42.00" width="399.00" height="264.00" fill="none" stroke="#000000" stroke-opacity="0.05" />
  <rect x="541.00" y="42.00" width="399.00" height="264.00" fill="none" stroke="#000000" stroke-opacity="0.05" />
  <line class="axis" x1="64.00" y1="306.00" x2="463.00" y2="306.00" />
  <line class="axis" x1="64.00" y1="42.00" x2="64.00" y2="306.00" />
  <line class="axis" x1="541.00" y1="306.00" x2="940.00" y2="306.00" />
  <line class="axis" x1="541.00" y1="42.00" x2="541.00" y2="306.00" />
  <line class="grid" x1="64.00" y1="180.29" x2="463.00" y2="180.29" />
  <text class="small" x="36.00" y="184.29">0.2</text>
  <line class="grid" x1="64.00" y1="54.57" x2="463.00" y2="54.57" />
  <text class="small" x="36.00" y="58.57">0.4</text>
  <text class="small" x="46.00" y="310.00">0</text>
  <line class="grid" x1="541.00" y1="86.00" x2="940.00" y2="86.00" />
  <text class="small" x="523.00" y="90.00">1</text>
  <text class="small" x="523.00" y="310.00">0</text>
  <line class="axis" x1="64.00" y1="306.00" x2="64.00" y2="312.00" />
  <text class="small" x="58.00" y="330.00">-3</text>
  <line class="axis" x1="130.50" y1="306.00" x2="130.50" y2="312.00" />
  <text class="small" x="124.50" y="330.00">-2</text>
  <line class="axis" x1="197.00" y1="306.00" x2="197.00" y2="312.00" />
  <text class="small" x="191.00" y="330.00">-1</text>
  <line class="axis" x1="263.50" y1="306.00" x2="263.50" y2="312.00" />
  <text class="small" x="257.50" y="330.00">0</text>
  <line class="axis" x1="330.00" y1="306.00" x2="330.00" y2="312.00" />
  <text class="small" x="324.00" y="330.00">1</text>
  <line class="axis" x1="396.50" y1="306.00" x2="396.50" y2="312.00" />
  <text class="small" x="390.50" y="330.00">2</text>
  <line class="axis" x1="463.00" y1="306.00" x2="463.00" y2="312.00" />
  <text class="small" x="457.00" y="330.00">3</text>
  <text class="small" x="209.50" y="350.00">x (σ units)</text>
  <line class="axis" x1="541.00" y1="306.00" x2="541.00" y2="312.00" />
  <text class="small" x="534.00" y="330.00">0</text>
  <line class="axis" x1="740.50" y1="306.00" x2="740.50" y2="312.00" />
  <text class="small" x="733.50" y="330.00">0.5</text>
  <line class="axis" x1="940.00" y1="306.00" x2="940.00" y2="312.00" />
  <text class="small" x="933.00" y="330.00">1</text>
  <text class="small" x="732.50" y="350.00">u</text>
  <path class="fill" d="M 343.30,306.00 L 343.30,183.94 L 343.63,184.67 L 343.96,185.40 L 344.30,186.13 L 344.63,186.86 L 344.96,187.58 L 345.30,188.31 L 345.63,189.03 L 345.96,189.75 L 346.29,190.47 L 346.62,191.19 L 346.96,191.91 L 347.29,192.62 L 347.62,193.34 L 347.95,194.05 L 348.29,194.76 L 348.62,195.47 L 348.95,196.17 L 349.28,196.88 L 349.62,197.58 L 349.95,198.28 L 350.28,198.98 L 350.62,199.68 L 350.95,200.37 L 351.28,201.07 L 351.61,201.76 L 351.94,202.45 L 352.28,203.14 L 352.61,203.82 L 352.94,204.51 L 353.27,205.19 L 353.61,205.87 L 353.94,206.54 L 354.27,207.22 L 354.61,207.89 L 354.94,208.56 L 355.27,209.23 L 355.60,209.90 L 355.94,210.56 L 356.27,211.23 L 356.60,211.89 L 356.93,212.54 L 357.26,213.20 L 357.60,213.85 L 357.93,214.50 L 358.26,215.15 L 358.59,215.80 L 358.93,216.44 L 359.26,217.08 L 359.59,217.72 L 359.93,218.36 L 360.26,218.99 L 360.59,219.62 L 360.92,220.25 L 361.26,220.88 L 361.59,221.50 L 361.92,222.13 L 362.25,222.75 L 362.59,223.36 L 362.92,223.98 L 363.25,224.59 L 363.58,225.20 L 363.91,225.81 L 364.25,226.41 L 364.58,227.01 L 364.91,227.61 L 365.25,228.21 L 365.58,228.80 L 365.91,229.39 L 366.24,229.98 L 366.57,230.57 L 366.91,231.15 L 367.24,231.73 L 367.57,232.31 L 367.91,232.88 L 368.24,233.46 L 368.57,234.03 L 368.90,234.59 L 369.24,235.16 L 369.57,235.72 L 369.90,236.28 L 369.90,306.00 Z" />
  <rect class="fill" x="894.09" y="86.00" width="24.05" height="220.00" />
  <line class="bin" x1="77.30" y1="306.00" x2="77.30" y2="301.02" />
  <line class="bin" x1="103.90" y1="306.00" x2="103.90" y2="291.92" />
  <line class="bin" x1="130.50" y1="306.00" x2="130.50" y2="272.06" />
  <line class="bin" x1="157.10" y1="306.00" x2="157.10" y2="236.28" />
  <line class="bin" x1="183.70" y1="306.00" x2="183.70" y2="183.94" />
  <line class="bin" x1="210.30" y1="306.00" x2="210.30" y2="123.91" />
  <line class="bin" x1="236.90" y1="306.00" x2="236.90" y2="74.52" />
  <line class="bin" x1="263.50" y1="306.00" x2="263.50" y2="55.24" />
  <line class="bin" x1="290.10" y1="306.00" x2="290.10" y2="74.52" />
  <line class="bin" x1="316.70" y1="306.00" x2="316.70" y2="123.91" />
  <line class="bin-strong" x1="343.30" y1="306.00" x2="343.30" y2="183.94" />
  <line class="bin-strong" x1="369.90" y1="306.00" x2="369.90" y2="236.28" />
  <line class="bin" x1="396.50" y1="306.00" x2="396.50" y2="272.06" />
  <line class="bin" x1="423.10" y1="306.00" x2="423.10" y2="291.92" />
  <line class="bin" x1="449.70" y1="306.00" x2="449.70" y2="301.02" />
  <line class="bin" x1="541.00" y1="306.00" x2="541.00" y2="86.00" />
  <line class="bin" x1="541.00" y1="306.00" x2="541.00" y2="86.00" />
  <line class="bin" x1="541.00" y1="306.00" x2="541.00" y2="86.00" />
  <line class="bin" x1="541.00" y1="306.00" x2="541.00" y2="86.00" />
  <line class="bin" x1="541.00" y1="306.00" x2="541.00" y2="86.00" />
  <line class="bin" x1="541.01" y1="306.00" x2="541.01" y2="86.00" />
  <line class="bin" x1="541.06" y1="306.00" x2="541.06" y2="86.00" />
  <line class="bin" x1="541.27" y1="306.00" x2="541.27" y2="86.00" />
  <line class="bin" x1="542.02" y1="306.00" x2="542.02" y2="86.00" />
  <line class="bin" x1="544.27" y1="306.00" x2="544.27" y2="86.00" />
  <line class="bin" x1="550.08" y1="306.00" x2="550.08" y2="86.00" />
  <line class="bin" x1="562.86" y1="306.00" x2="562.86" y2="86.00" />
  <line class="bin" x1="586.91" y1="306.00" x2="586.91" y2="86.00" />
  <line class="bin" x1="625.53" y1="306.00" x2="625.53" y2="86.00" />
  <line class="bin" x1="678.49" y1="306.00" x2="678.49" y2="86.00" />
  <line class="bin" x1="740.50" y1="306.00" x2="740.50" y2="86.00" />
  <line class="bin" x1="802.51" y1="306.00" x2="802.51" y2="86.00" />
  <line class="bin" x1="855.47" y1="306.00" x2="855.47" y2="86.00" />
  <line class="bin-strong" x1="894.09" y1="306.00" x2="894.09" y2="86.00" />
  <line class="bin-strong" x1="918.14" y1="306.00" x2="918.14" y2="86.00" />
  <line class="bin" x1="930.92" y1="306.00" x2="930.92" y2="86.00" />
  <line class="bin" x1="936.73" y1="306.00" x2="936.73" y2="86.00" />
  <line class="bin" x1="938.98" y1="306.00" x2="938.98" y2="86.00" />
  <line class="bin" x1="939.73" y1="306.00" x2="939.73" y2="86.00" />
  <line class="bin" x1="939.94" y1="306.00" x2="939.94" y2="86.00" />
  <line class="bin" x1="939.99" y1="306.00" x2="939.99" y2="86.00" />
  <line class="bin" x1="940.00" y1="306.00" x2="940.00" y2="86.00" />
  <line class="bin" x1="940.00" y1="306.00" x2="940.00" y2="86.00" />
  <line class="bin" x1="940.00" y1="306.00" x2="940.00" y2="86.00" />
  <line class="bin" x1="940.00" y1="306.00" x2="940.00" y2="86.00" />
  <line class="bin" x1="940.00" y1="306.00" x2="940.00" y2="86.00" />
  <path class="curve" d="M 64.00,303.21 L 65.66,303.00 L 67.32,302.77 L 68.99,302.52 L 70.65,302.26 L 72.31,301.98 L 73.97,301.68 L 75.64,301.36 L 77.30,301.02 L 78.96,300.67 L 80.62,300.28 L 82.29,299.88 L 83.95,299.45 L 85.61,298.99 L 87.28,298.51 L 88.94,298.00 L 90.60,297.46 L 92.26,296.89 L 93.93,296.29 L 95.59,295.65 L 97.25,294.98 L 98.91,294.28 L 100.57,293.53 L 102.24,292.75 L 103.90,291.92 L 105.56,291.06 L 107.22,290.15 L 108.89,289.19 L 110.55,288.19 L 112.21,287.15 L 113.88,286.05 L 115.54,284.90 L 117.20,283.70 L 118.86,282.45 L 120.53,281.14 L 122.19,279.78 L 123.85,278.35 L 125.51,276.87 L 127.18,275.33 L 128.84,273.73 L 130.50,272.06 L 132.16,270.33 L 133.82,268.54 L 135.49,266.68 L 137.15,264.76 L 138.81,262.76 L 140.47,260.70 L 142.14,258.57 L 143.80,256.37 L 145.46,254.11 L 147.12,251.77 L 148.79,249.36 L 150.45,246.88 L 152.11,244.34 L 153.78,241.72 L 155.44,239.03 L 157.10,236.28 L 158.76,233.46 L 160.43,230.57 L 162.09,227.61 L 163.75,224.59 L 165.41,221.50 L 167.08,218.36 L 168.74,215.15 L 170.40,211.89 L 172.06,208.56 L 173.72,205.19 L 175.39,201.76 L 177.05,198.28 L 178.71,194.76 L 180.38,191.19 L 182.04,187.58 L 183.70,183.94 L 185.36,180.26 L 187.03,176.55 L 188.69,172.82 L 190.35,169.06 L 192.01,165.29 L 193.68,161.50 L 195.34,157.71 L 197.00,153.90 L 198.66,150.10 L 200.32,146.31 L 201.99,142.52 L 203.65,138.75 L 205.31,134.99 L 206.97,131.27 L 208.64,127.57 L 210.30,123.91 L 211.96,120.29 L 213.62,116.71 L 215.29,113.19 L 216.95,109.73 L 218.61,106.32 L 220.28,102.99 L 221.94,99.73 L 223.60,96.54 L 225.26,93.45 L 226.93,90.44 L 228.59,87.52 L 230.25,84.70 L 231.91,81.99 L 233.57,79.38 L 235.24,76.89 L 236.90,74.52 L 238.56,72.26 L 240.22,70.13 L 241.89,68.14 L 243.55,66.27 L 245.21,64.54 L 246.88,62.95 L 248.54,61.50 L 250.20,60.20 L 251.86,59.05 L 253.53,58.04 L 255.19,57.19 L 256.85,56.49 L 258.51,55.94 L 260.18,55.55 L 261.84,55.31 L 263.50,55.24 L 265.16,55.31 L 266.82,55.55 L 268.49,55.94 L 270.15,56.49 L 271.81,57.19 L 273.48,58.04 L 275.14,59.05 L 276.80,60.20 L 278.46,61.50 L 280.12,62.95 L 281.79,64.54 L 283.45,66.27 L 285.11,68.14 L 286.77,70.13 L 288.44,72.26 L 290.10,74.52 L 291.76,76.89 L 293.43,79.38 L 295.09,81.99 L 296.75,84.70 L 298.41,87.52 L 300.08,90.44 L 301.74,93.45 L 303.40,96.54 L 305.06,99.73 L 306.72,102.99 L 308.39,106.32 L 310.05,109.73 L 311.71,113.19 L 313.38,116.71 L 315.04,120.29 L 316.70,123.91 L 318.36,127.57 L 320.03,131.27 L 321.69,134.99 L 323.35,138.75 L 325.01,142.52 L 326.68,146.31 L 328.34,150.10 L 330.00,153.90 L 331.66,157.71 L 333.32,161.50 L 334.99,165.29 L 336.65,169.06 L 338.31,172.82 L 339.98,176.55 L 341.64,180.26 L 343.30,183.94 L 344.96,187.58 L 346.62,191.19 L 348.29,194.76 L 349.95,198.28 L 351.61,201.76 L 353.27,205.19 L 354.94,208.56 L 356.60,211.89 L 358.26,215.15 L 359.93,218.36 L 361.59,221.50 L 363.25,224.59 L 364.91,227.61 L 366.57,230.57 L 368.24,233.46 L 369.90,236.28 L 371.56,239.03 L 373.23,241.72 L 374.89,244.34 L 376.55,246.88 L 378.21,249.36 L 379.88,251.77 L 381.54,254.11 L 383.20,256.37 L 384.86,258.57 L 386.52,260.70 L 388.19,262.76 L 389.85,264.76 L 391.51,266.68 L 393.18,268.54 L 394.84,270.33 L 396.50,272.06 L 398.16,273.73 L 399.82,275.33 L 401.49,276.87 L 403.15,278.35 L 404.81,279.78 L 406.48,281.14 L 408.14,282.45 L 409.80,283.70 L 411.46,284.90 L 413.12,286.05 L 414.79,287.15 L 416.45,288.19 L 418.11,289.19 L 419.77,290.15 L 421.44,291.06 L 423.10,291.92 L 424.76,292.75 L 426.43,293.53 L 428.09,294.28 L 429.75,294.98 L 431.41,295.65 L 433.07,296.29 L 434.74,296.89 L 436.40,297.46 L 438.06,298.00 L 439.73,298.51 L 441.39,298.99 L 443.05,299.45 L 444.71,299.88 L 446.38,300.28 L 448.04,300.67 L 449.70,301.02 L 451.36,301.36 L 453.02,301.68 L 454.69,301.98 L 456.35,302.26 L 458.01,302.52 L 459.68,302.77 L 461.34,303.00 L 463.00,303.21" />
  <line class="curve" x1="541.00" y1="86.00" x2="940.00" y2="86.00" />
  <text class="label" x="64.00" y="408.00" fill="#1f2a37">Distribution of the coarse variable Y</text>
  <rect x="64.00" y="426.00" width="876.00" height="174.00" fill="none" stroke="#000000" stroke-opacity="0.05" />
  <line class="axis" x1="64.00" y1="600.00" x2="940.00" y2="600.00" />
  <line class="axis" x1="64.00" y1="426.00" x2="64.00" y2="600.00" />
  <line class="grid" x1="64.00" y1="551.67" x2="940.00" y2="551.67" />
  <text class="small" x="26.00" y="555.67">0.05</text>
  <line class="grid" x1="64.00" y1="503.33" x2="940.00" y2="503.33" />
  <text class="small" x="26.00" y="507.33">0.10</text>
  <line class="grid" x1="64.00" y1="455.00" x2="940.00" y2="455.00" />
  <text class="small" x="26.00" y="459.00">0.15</text>
  <text class="small" x="46.00" y="604.00">0</text>
  <text class="small" x="16.00" y="440.00">P(Y)</text>
  <rect class="bar" x="64.00" y="597.53" width="51.00" height="2.47" />
  <text class="small" x="89.50" y="620.00" text-anchor="end" transform="rotate(-55 89.50,620.00)">…</text>
  <rect class="bar" x="119.00" y="594.55" width="51.00" height="5.45" />
  <text class="small" x="144.50" y="620.00" text-anchor="end" transform="rotate(-55 144.50,620.00)">X ∈ [-2.8,-2.4)</text>
  <rect class="bar" x="174.00" y="585.93" width="51.00" height="14.07" />
  <text class="small" x="199.50" y="620.00" text-anchor="end" transform="rotate(-55 199.50,620.00)">X ∈ [-2.4,-2.0)</text>
  <rect class="bar" x="229.00" y="569.02" width="51.00" height="30.98" />
  <text class="small" x="254.50" y="620.00" text-anchor="end" transform="rotate(-55 254.50,620.00)">X ∈ [-2.0,-1.6)</text>
  <rect class="bar" x="284.00" y="541.74" width="51.00" height="58.26" />
  <text class="small" x="309.50" y="620.00" text-anchor="end" transform="rotate(-55 309.50,620.00)">X ∈ [-1.6,-1.2)</text>
  <rect class="bar" x="339.00" y="506.44" width="51.00" height="93.56" />
  <text class="small" x="364.50" y="620.00" text-anchor="end" transform="rotate(-55 364.50,620.00)">X ∈ [-1.2,-0.8)</text>
  <rect class="bar" x="394.00" y="471.70" width="51.00" height="128.30" />
  <text class="small" x="419.50" y="620.00" text-anchor="end" transform="rotate(-55 419.50,620.00)">X ∈ [-0.8,-0.4)</text>
  <rect class="bar" x="449.00" y="449.76" width="51.00" height="150.24" />
  <text class="small" x="474.50" y="620.00" text-anchor="end" transform="rotate(-55 474.50,620.00)">X ∈ [-0.4,0.0)</text>
  <rect class="bar" x="504.00" y="449.76" width="51.00" height="150.24" />
  <text class="small" x="529.50" y="620.00" text-anchor="end" transform="rotate(-55 529.50,620.00)">X ∈ [0.0,0.4)</text>
  <rect class="bar" x="559.00" y="471.70" width="51.00" height="128.30" />
  <text class="small" x="584.50" y="620.00" text-anchor="end" transform="rotate(-55 584.50,620.00)">X ∈ [0.4,0.8)</text>
  <rect class="bar" x="614.00" y="506.44" width="51.00" height="93.56" />
  <text class="small" x="639.50" y="620.00" text-anchor="end" transform="rotate(-55 639.50,620.00)">X ∈ [0.8,1.2)</text>
  <rect class="bar-highlight" x="669.00" y="541.74" width="51.00" height="58.26" />
  <text class="small" x="694.50" y="620.00" text-anchor="end" transform="rotate(-55 694.50,620.00)">X ∈ [1.2,1.6)</text>
  <rect class="bar" x="724.00" y="569.02" width="51.00" height="30.98" />
  <text class="small" x="749.50" y="620.00" text-anchor="end" transform="rotate(-55 749.50,620.00)">X ∈ [1.6,2.0)</text>
  <rect class="bar" x="779.00" y="585.93" width="51.00" height="14.07" />
  <text class="small" x="804.50" y="620.00" text-anchor="end" transform="rotate(-55 804.50,620.00)">X ∈ [2.0,2.4)</text>
  <rect class="bar" x="834.00" y="594.55" width="51.00" height="5.45" />
  <text class="small" x="859.50" y="620.00" text-anchor="end" transform="rotate(-55 859.50,620.00)">X ∈ [2.4,2.8)</text>
  <rect class="bar" x="889.00" y="597.53" width="51.00" height="2.47" />
  <text class="small" x="914.50" y="620.00" text-anchor="end" transform="rotate(-55 914.50,620.00)">…</text>
</svg>
